<svg class="img-fluid" xmlns="http://www.w3.org/2000/svg" width="150" height="150" viewBox="0 0 3000 3000"><g fill="#ffffff" style="transform: none;"><g><path d="M1562 2903 c-49 -19 -23 -122 49 -194 56 -57 96 -68 157 -44 60 24 142 118 142 162 0 47 -33 59 -121 43 -58 -10 -71 -9 -115 8 -61 24 -95 31 -112 25z"></path><path d="M490 2725 c0 -41 -7 -42 -108 -21 -85 18 -88 8 -22 -95 l51 -81 -45 6 c-28 4 -47 3 -51 -4 -4 -6 14 -42 40 -81 66 -100 67 -103 17 -94 -34 5 -42 4 -42 -8 0 -16 94 -162 110 -172 5 -3 46 17 90 46 88 56 97 75 41 94 l-33 11 80 51 c44 29 83 57 87 63 3 5 -4 14 -17 19 -13 5 -34 13 -47 18 -23 9 -19 12 57 61 44 29 84 56 87 62 8 13 -28 27 -110 41 -55 9 -65 14 -59 28 4 9 9 28 11 42 4 24 1 27 -41 38 -24 6 -56 11 -70 11 -23 0 -26 -4 -26 -35z"></path><path d="M1459 2708 c-23 -25 -29 -42 -29 -75 0 -37 4 -45 25 -55 32 -15 68 3 95 48 25 39 25 76 2 97 -28 26 -60 20 -93 -15z"></path><path d="M1854 2675 c-32 -49 12 -155 66 -155 52 0 67 91 24 147 -31 40 -66 44 -90 8z"></path><path d="M1556 2557 c-32 -32 -43 -100 -22 -132 32 -48 89 -27 125 47 14 27 9 72 -11 95 -17 21 -67 15 -92 -10z"></path><path d="M1730 2548 c-28 -30 -28 -106 1 -142 46 -58 129 -7 115 70 -8 39 -54 94 -80 94 -8 0 -24 -10 -36 -22z"></path><path d="M2605 1920 c-17 -3 -49 -19 -73 -35 -36 -24 -52 -28 -105 -27 -87 2 -117 -12 -117 -52 0 -40 20 -68 73 -105 98 -67 174 -63 228 12 42 58 59 102 59 153 0 50 -18 65 -65 54z"></path><path d="M2682 1758 c-22 -22 -14 -83 15 -112 55 -55 106 -45 111 21 3 34 -2 45 -28 72 -33 33 -76 41 -98 19z"></path><path d="M1475 1726 c-25 -8 -39 -18 -37 -26 16 -70 21 -64 -69 -85 -46 -11 -84 -24 -86 -30 -1 -5 34 -34 78 -63 45 -29 78 -56 74 -60 -3 -3 -20 -11 -37 -17 -17 -5 -33 -14 -35 -20 -1 -5 36 -36 84 -67 l86 -56 -42 -12 c-25 -6 -41 -16 -38 -23 4 -12 153 -117 167 -117 13 0 121 171 114 181 -3 6 -22 8 -45 4 -21 -4 -39 -4 -39 -2 0 3 23 40 50 81 66 99 65 112 -3 96 -22 -5 -37 -4 -37 2 0 5 23 42 50 83 28 41 50 79 50 86 0 12 -18 11 -129 -7 -47 -8 -61 2 -61 44 0 26 -29 28 -95 8z"></path><path d="M2315 1658 c-17 -16 -27 -37 -31 -70 -6 -41 -3 -49 19 -72 20 -20 31 -24 49 -17 52 19 74 108 37 155 -25 32 -40 33 -74 4z"></path><path d="M2613 1588 c-43 -56 12 -168 82 -168 27 0 55 34 55 66 0 30 -27 81 -53 99 -26 18 -71 20 -84 3z"></path><path d="M2452 1537 c-31 -33 -31 -118 0 -147 51 -48 103 -9 102 76 0 86 -54 123 -102 71z"></path><path d="M800 924 c-14 -10 -41 -32 -60 -50 -25 -24 -53 -37 -98 -48 -72 -17 -112 -39 -112 -63 0 -26 74 -89 126 -107 102 -34 163 -10 205 80 36 80 37 154 3 189 -20 19 -34 19 -64 -1z"></path><path d="M933 800 c-18 -8 -23 -17 -23 -48 0 -64 74 -115 128 -90 80 38 -23 171 -105 138z"></path><path d="M2585 780 c-17 -3 -49 -19 -73 -35 -34 -23 -53 -28 -100 -27 -31 0 -72 -4 -89 -10 -28 -8 -33 -14 -33 -42 0 -40 19 -68 73 -105 98 -67 174 -63 228 12 42 58 59 102 59 153 0 50 -18 65 -65 54z"></path><path d="M593 625 c-44 -31 -39 -140 8 -165 73 -40 117 115 46 165 -26 19 -28 19 -54 0z"></path><path d="M899 620 c-61 -36 -1 -160 78 -160 54 0 73 37 49 93 -22 53 -91 89 -127 67z"></path><path d="M2662 618 c-22 -22 -14 -83 15 -112 55 -55 106 -45 111 21 3 34 -2 45 -28 72 -33 33 -76 41 -98 19z"></path><path d="M745 540 c-48 -77 0 -193 71 -176 49 13 56 116 12 163 -22 24 -72 31 -83 13z"></path><path d="M2295 518 c-17 -16 -27 -37 -31 -70 -6 -41 -3 -49 19 -72 31 -31 62 -25 88 18 25 41 24 87 -2 120 -25 32 -40 33 -74 4z"></path><path d="M2586 431 c-20 -38 -5 -91 35 -125 37 -31 62 -33 89 -6 24 24 25 56 4 98 -33 66 -102 84 -128 33z"></path><path d="M2432 397 c-30 -32 -31 -118 -2 -147 49 -49 105 -9 104 76 0 86 -54 123 -102 71z"></path></g></g></svg>