<svg class="img-fluid" xmlns="http://www.w3.org/2000/svg" width="332" height="367" viewBox="0 0 3320 3670"><g fill="#ffffff" style="transform: none;" stroke-width="100" stroke="#ffffff"><g><path d="M1735 3623 c-11 -3 -24 -9 -29 -14 -6 -5 -17 -9 -27 -9 -9 0 -27 -8 -40 -19 -14 -10 -49 -21 -84 -24 -81 -9 -254 -34 -286 -42 -19 -5 -37 1 -70 23 -24 17 -47 28 -51 26 -3 -2 -9 0 -13 6 -10 16 -130 13 -145 -4 -6 -8 -37 -20 -67 -26 -50 -11 -63 -20 -124 -82 -43 -44 -72 -83 -78 -105 -6 -21 -8 -91 -4 -167 l6 -130 42 -46 c44 -48 85 -113 85 -134 0 -7 10 -25 21 -40 21 -26 21 -28 3 -41 -11 -7 -30 -16 -44 -18 -14 -3 -38 -11 -55 -18 -16 -7 -32 -13 -35 -14 -17 -4 -170 -82 -195 -99 -60 -42 -190 -151 -220 -185 -16 -19 -38 -42 -47 -51 -24 -22 -96 -163 -118 -230 -32 -95 -41 -175 -41 -360 0 -174 11 -280 33 -324 6 -11 14 -28 18 -36 4 -8 22 -16 41 -18 l34 -3 2 -147 c1 -177 15 -286 39 -313 11 -13 30 -19 57 -19 l39 0 -6 -34 c-4 -19 -13 -47 -21 -63 -24 -47 -37 -287 -25 -445 5 -75 13 -145 16 -155 16 -48 42 -106 77 -168 l23 -40 101 3 c75 2 123 9 180 27 43 14 83 25 90 25 7 0 13 4 13 8 0 4 20 13 45 20 25 7 45 16 45 21 0 5 15 12 33 16 36 8 173 85 257 145 30 22 60 40 65 40 6 0 26 -9 46 -19 19 -11 55 -25 80 -32 24 -7 49 -16 54 -20 6 -4 39 -13 75 -19 36 -7 70 -16 75 -21 19 -14 210 -30 293 -23 100 8 129 26 134 81 l3 37 71 12 c38 6 79 16 90 22 10 5 48 24 84 42 36 18 87 50 115 72 41 32 55 39 79 34 17 -4 32 -10 36 -15 4 -8 67 -39 95 -47 37 -11 103 -36 116 -43 9 -6 45 -15 80 -21 35 -7 72 -16 81 -21 24 -12 155 -11 163 1 3 5 19 10 34 10 40 0 68 36 75 95 27 220 34 388 25 545 -6 91 -14 174 -19 185 -18 44 -18 63 1 68 10 3 22 13 25 24 3 10 10 26 15 36 14 25 14 184 1 243 -6 27 -16 96 -22 154 -7 58 -16 109 -21 114 -21 22 -9 52 24 61 l32 10 -1 92 c0 50 -5 98 -11 105 -5 7 -16 34 -23 61 -7 26 -17 47 -21 47 -5 0 -9 4 -9 10 0 5 -11 34 -25 64 -14 30 -25 59 -25 65 0 5 -22 38 -50 72 -27 34 -50 68 -50 76 0 7 -5 13 -11 13 -5 0 -8 4 -5 9 4 5 3 11 -1 13 -5 1 -30 30 -58 63 -96 116 -183 189 -239 199 -20 4 -36 10 -36 15 0 4 -24 13 -52 20 -29 8 -59 18 -65 24 -7 5 -13 6 -13 2 0 -4 -6 -3 -12 3 -7 5 -47 15 -88 22 -41 7 -79 16 -85 20 -5 4 -48 11 -95 14 -47 4 -107 9 -133 12 -47 6 -48 7 -42 34 3 15 22 58 41 94 19 37 39 90 45 119 7 29 18 61 25 72 17 24 19 147 2 178 -6 12 -29 46 -51 76 -52 70 -107 96 -187 87 -45 -5 -60 -3 -70 9 -12 15 -88 19 -135 8z m167 -101 c81 -8 106 -22 160 -89 42 -53 51 -72 40 -86 -5 -7 -15 -34 -22 -62 -7 -27 -35 -101 -62 -163 -26 -63 -48 -122 -48 -133 0 -10 -4 -19 -10 -19 -12 0 -14 -86 -2 -93 4 -3 65 -10 136 -17 211 -19 398 -65 556 -138 70 -32 222 -184 268 -267 18 -33 46 -76 62 -95 34 -41 135 -259 145 -313 l7 -37 -41 0 -41 0 0 -41 c0 -22 9 -75 19 -117 39 -155 67 -369 56 -432 -6 -38 -9 -40 -41 -40 -33 0 -34 -1 -34 -40 0 -21 10 -79 22 -127 19 -77 22 -116 22 -313 1 -215 -16 -424 -34 -435 -5 -3 -37 -6 -72 -6 -45 -1 -91 8 -163 31 -129 42 -266 101 -310 134 -54 41 -87 35 -154 -27 -90 -83 -293 -177 -383 -177 -50 0 -61 -12 -56 -59 4 -41 3 -42 -35 -52 -81 -22 -345 40 -504 116 -101 49 -136 55 -167 26 -48 -43 -198 -137 -301 -187 -111 -54 -288 -117 -358 -127 -35 -6 -39 -4 -64 36 -95 150 -120 460 -52 643 28 77 34 149 16 199 -13 38 -16 40 -57 41 -53 1 -56 6 -70 146 -7 69 -7 131 0 188 5 47 10 106 10 133 0 46 -1 47 -32 47 -18 0 -41 -9 -53 -20 l-22 -20 -13 57 c-33 150 -29 367 10 498 41 136 85 211 184 313 122 126 249 210 434 286 l142 58 0 40 c0 25 -13 65 -35 109 -19 39 -35 77 -35 85 0 8 -27 44 -60 79 l-60 64 0 94 0 93 58 61 c60 65 105 93 146 93 14 0 31 9 39 20 12 17 19 19 41 10 15 -5 42 -21 60 -35 31 -24 39 -25 172 -25 91 0 158 5 194 15 30 8 74 15 98 15 33 0 52 7 81 30 40 33 122 62 132 48 3 -5 40 -13 81 -16z"></path></g></g><g fill="rgb(252,224,205)" style="transform: none;"><g><path d="M1637 3503 c-5 -4 -30 -8 -55 -9 -26 0 -72 -8 -102 -17 -67 -20 -269 -24 -288 -5 -24 24 -13 -43 12 -73 24 -29 66 -126 66 -155 0 -8 13 -41 29 -73 34 -66 29 -81 -29 -81 -40 0 -134 -42 -197 -89 -48 -35 -103 -122 -103 -164 0 -15 14 -54 30 -87 29 -57 29 -60 10 -60 -11 0 -20 -4 -20 -8 0 -5 -26 -22 -57 -38 -121 -61 -330 -240 -358 -307 -19 -46 -19 -115 0 -192 8 -33 14 -74 15 -92 0 -17 4 -35 10 -38 5 -3 10 -14 10 -23 0 -9 12 -33 26 -53 14 -21 30 -56 35 -79 5 -22 40 -88 77 -145 l67 -105 42 0 c33 0 50 7 83 35 59 49 73 47 64 -10 -4 -28 -1 -64 6 -90 12 -44 13 -45 56 -45 31 0 51 7 72 25 29 25 72 34 72 16 0 -43 141 -136 275 -181 72 -25 102 -30 182 -30 119 0 189 20 248 72 52 46 164 197 190 256 13 31 24 42 40 42 36 0 106 85 159 193 26 54 50 114 53 133 4 23 9 31 17 26 6 -5 55 -9 109 -9 l97 0 0 54 c0 34 -6 63 -17 80 -14 21 -17 50 -18 147 0 165 -11 185 -132 248 -90 47 -307 142 -443 193 -41 16 -77 30 -79 31 -1 2 7 21 20 43 16 28 29 41 44 41 19 0 23 7 29 46 10 75 10 74 -36 74 -40 1 -45 4 -69 43 -35 58 -115 98 -210 105 -66 4 -82 13 -58 28 11 7 7 131 -7 201 -5 26 -1 37 21 58 17 18 25 35 23 52 -2 14 -7 21 -11 16z m-154 -573 c-10 -11 -19 -20 -20 -20 -2 0 -3 9 -3 20 0 13 7 20 20 20 19 0 19 -1 3 -20z m529 -836 c16 -38 19 -62 16 -134 -2 -55 -8 -93 -17 -104 -13 -15 -16 -15 -32 11 -35 54 -55 226 -30 257 23 27 41 18 63 -30z m-916 -66 c26 -50 32 -209 10 -243 -13 -20 -20 -24 -31 -15 -33 28 -47 192 -21 255 8 19 17 35 20 35 3 0 13 -15 22 -32z"></path></g></g><g fill="rgb(247,198,170)" style="transform: none;"><g><path d="M2538 2138 c7 -7 12 -25 12 -41 0 -23 -3 -27 -13 -19 -12 10 -82 8 -114 -3 -6 -2 -17 3 -23 11 -7 8 -25 14 -40 14 -24 0 -28 -4 -33 -38 -2 -21 -26 -83 -53 -138 -54 -111 -123 -195 -154 -187 -15 4 -25 -7 -48 -54 -35 -73 -137 -208 -191 -255 -86 -73 -221 -88 -365 -39 -141 48 -251 120 -276 181 -12 30 -42 41 -55 20 -3 -5 -15 -10 -27 -10 -11 0 -33 -11 -50 -25 -16 -14 -35 -25 -42 -25 -22 0 -35 64 -24 116 8 37 7 49 -5 61 -22 22 -81 7 -128 -33 -23 -19 -46 -34 -52 -34 -19 1 -146 205 -156 250 -5 23 -21 59 -36 80 -15 22 -25 46 -22 54 3 8 -1 17 -9 20 -8 3 -14 12 -14 21 0 8 -6 15 -13 15 -8 0 -17 -26 -25 -70 -16 -91 -15 -112 3 -146 8 -16 15 -39 15 -51 0 -71 77 -190 152 -236 28 -17 93 -23 102 -9 2 4 25 6 50 4 45 -4 46 -5 46 -38 0 -18 7 -52 16 -74 15 -36 19 -40 52 -40 28 0 44 8 72 35 l36 35 32 -44 c56 -78 170 -148 332 -202 96 -33 177 -37 295 -15 109 21 124 29 215 121 93 93 154 175 175 236 12 35 17 40 56 45 31 4 49 14 66 35 40 50 96 166 118 243 l20 75 56 -3 c51 -2 59 0 78 25 16 20 21 41 21 85 l0 59 -32 0 c-25 0 -29 -3 -20 -12z"></path><path d="M1050 1735 c7 -8 17 -15 22 -15 6 0 5 7 -2 15 -7 8 -17 15 -22 15 -6 0 -5 -7 2 -15z"></path><path d="M487 653 c-12 -11 -8 -104 10 -235 l17 -128 43 0 c45 0 162 50 256 110 45 29 48 33 45 68 l-3 37 -79 0 -79 0 -71 78 c-59 64 -76 77 -102 77 -17 0 -34 -3 -37 -7z"></path></g></g><g fill="rgb(238,205,136)" style="transform: none;"><g><path d="M1928 3538 c-3 -8 -19 -12 -41 -10 -40 4 -86 -19 -123 -60 -35 -38 -84 -137 -84 -168 0 -25 5 -30 35 -36 43 -8 163 4 170 17 11 17 31 9 72 -32 36 -35 46 -40 79 -37 24 2 41 10 48 23 6 10 21 36 34 57 33 56 29 97 -17 157 -21 29 -53 63 -72 76 -35 27 -94 34 -101 13z"></path><path d="M1012 3510 c-7 -11 -23 -20 -35 -20 -31 0 -73 -45 -92 -100 -15 -43 -15 -119 1 -277 l5 -53 41 0 c29 0 51 8 75 26 l33 25 0 -24 c0 -52 69 -73 141 -43 19 7 61 17 94 20 111 13 112 15 64 116 -17 36 -37 89 -45 118 -20 77 -48 125 -96 167 -75 66 -160 86 -186 45z"></path><path d="M1909 2887 c-28 -11 -59 -63 -59 -100 0 -18 10 -25 63 -41 252 -75 436 -152 520 -218 21 -17 48 -49 60 -72 19 -36 22 -54 20 -146 -3 -125 7 -163 47 -180 67 -28 189 -178 190 -234 0 -18 -35 -56 -52 -56 -4 0 -8 -12 -8 -27 0 -16 -12 -50 -25 -78 -14 -27 -25 -59 -25 -70 0 -11 -12 -38 -28 -61 -50 -74 -164 -214 -182 -224 -9 -5 -36 -40 -58 -77 -133 -223 -479 -505 -695 -567 -54 -16 -67 -16 -155 -2 -285 46 -545 177 -743 375 -74 74 -103 112 -128 166 -18 38 -52 90 -74 116 -56 62 -99 166 -100 238 0 65 29 140 73 186 21 22 34 53 49 114 25 101 26 155 5 251 -23 101 -12 133 77 221 86 84 195 167 273 209 73 39 88 54 84 82 -2 18 -12 24 -41 29 -21 3 -43 11 -50 18 -6 6 -18 11 -27 11 -27 0 -140 -53 -140 -66 0 -7 -34 -34 -75 -59 -95 -60 -128 -94 -219 -231 -112 -167 -193 -319 -215 -404 -59 -227 -69 -269 -75 -316 -4 -29 -3 -77 0 -108 7 -55 7 -56 38 -56 17 0 42 7 54 16 26 18 26 24 11 -118 -12 -112 0 -302 22 -367 14 -39 53 -53 74 -25 13 18 14 17 26 -11 7 -16 12 -60 11 -96 -2 -67 -2 -67 32 -83 19 -9 59 -16 89 -16 53 0 55 1 61 31 9 46 43 89 71 89 51 0 157 -179 196 -330 l13 -53 -38 -32 c-22 -18 -36 -37 -32 -43 8 -14 -60 -58 -172 -112 -99 -48 -112 -49 -112 -12 0 56 -10 72 -44 72 -27 0 -33 -5 -50 -45 -25 -63 -19 -175 13 -227 22 -36 26 -38 75 -38 72 0 212 45 391 124 155 69 285 148 292 177 8 29 50 28 106 -1 201 -109 657 -172 657 -92 0 8 -7 24 -17 34 -9 10 -14 21 -11 24 3 2 41 13 85 24 140 33 292 107 364 177 l47 45 28 -21 c36 -26 273 -117 373 -142 41 -11 108 -19 151 -19 l78 0 6 63 c4 34 10 84 13 110 8 74 -9 87 -111 84 -73 -2 -87 1 -146 30 -36 18 -84 52 -108 76 l-43 44 12 49 c11 43 41 115 93 224 9 19 35 64 56 100 22 36 40 73 40 83 0 16 5 17 33 11 17 -5 50 -8 72 -9 37 0 41 3 51 34 7 20 14 29 18 22 4 -6 25 -11 46 -11 39 0 39 0 46 48 8 54 -26 348 -57 480 -10 46 -19 87 -19 92 0 4 19 6 41 3 l42 -6 -5 64 c-3 50 -17 92 -62 194 -32 72 -71 146 -87 165 -16 19 -43 60 -60 91 -17 31 -72 99 -122 151 -104 107 -170 145 -271 158 -71 9 -125 19 -377 71 -194 41 -227 44 -270 26z"></path></g></g><g fill="rgb(224,186,128)" style="transform: none;"><g><path d="M1805 3581 c-64 -19 -137 -55 -182 -91 -26 -20 -27 -24 -29 -133 -1 -62 -5 -131 -9 -154 -10 -55 4 -73 58 -73 70 0 119 -21 173 -75 31 -31 54 -64 59 -83 8 -39 23 -50 33 -25 4 10 17 19 30 21 19 2 22 -2 17 -18 -3 -11 -2 -20 4 -20 22 0 40 33 46 84 5 39 12 55 24 59 20 5 51 111 51 172 0 41 -5 43 -30 13 l-18 -23 -39 39 c-21 21 -51 44 -68 51 -25 11 -33 11 -55 -5 -29 -20 -100 -33 -134 -24 l-24 6 30 56 c39 72 45 80 91 113 32 23 42 26 74 18 38 -8 52 0 53 29 0 6 5 12 10 12 6 0 10 5 10 10 0 6 -19 10 -42 11 -24 1 -54 5 -68 9 l-25 8 22 7 c13 4 20 11 17 16 -7 11 -7 11 -79 -10z"></path><path d="M983 3123 c-28 -21 -56 -48 -62 -61 -14 -29 -14 -127 -1 -153 7 -11 7 -19 1 -19 -5 0 2 -22 15 -50 13 -27 24 -54 24 -59 0 -4 -22 -18 -50 -29 -50 -21 -70 -49 -27 -39 12 3 31 -1 41 -9 11 -8 32 -14 47 -14 47 0 42 -17 -16 -52 -74 -45 -72 -67 3 -27 31 17 59 35 60 40 6 15 20 10 42 -13 l20 -22 0 31 c0 17 -20 68 -46 117 -25 47 -41 86 -34 86 6 0 18 16 26 36 8 19 39 61 69 92 57 58 73 99 34 87 -40 -13 -83 57 -44 71 26 10 16 24 -18 24 -22 0 -49 -12 -84 -37z"></path><path d="M3017 1396 c3 -13 0 -33 -6 -44 -9 -18 -15 -19 -52 -10 -22 6 -43 17 -46 24 -8 23 -23 16 -23 -11 0 -13 7 -50 15 -82 8 -31 15 -81 15 -109 0 -51 1 -53 35 -65 30 -11 34 -16 28 -38 -11 -48 -75 -161 -114 -201 -22 -22 -39 -49 -39 -59 0 -10 -7 -21 -15 -25 -9 -3 -15 -18 -15 -39 0 -28 5 -36 34 -49 56 -27 150 -42 176 -28 18 9 25 9 41 -6 24 -22 24 -38 -2 -90 -16 -33 -18 -47 -10 -63 16 -30 15 -31 -39 -31 -44 0 -50 -3 -50 -20 0 -19 5 -21 73 -18 l72 3 12 80 c19 129 27 426 14 560 -10 108 -41 287 -57 329 -3 9 -16 16 -29 16 -18 0 -21 -4 -18 -24z"></path><path d="M401 730 c-15 -101 -10 -329 10 -437 9 -51 15 -63 30 -63 15 0 19 7 19 39 0 47 30 119 48 113 6 -2 12 -10 12 -18 0 -8 5 -14 10 -14 12 0 13 -10 -5 112 -8 57 -14 137 -13 178 1 43 -5 96 -14 125 -14 46 -18 50 -50 53 l-34 3 -13 -91z"></path></g></g><g fill="rgb(211,162,86)" style="transform: none;"><g><path d="M1026 3515 c4 -8 10 -12 15 -9 14 8 10 24 -6 24 -9 0 -12 -6 -9 -15z"></path><path d="M970 3491 c-54 -11 -80 -28 -143 -95 -55 -58 -58 -63 -53 -101 3 -22 5 -80 5 -129 l0 -89 48 -49 c34 -34 55 -48 75 -48 19 0 28 5 28 16 0 9 9 27 20 41 11 14 20 36 20 49 0 21 -2 23 -20 12 -10 -7 -22 -9 -26 -6 -3 4 -10 58 -13 120 -9 138 1 174 67 241 25 26 42 46 37 46 -6 -1 -26 -4 -45 -8z"></path><path d="M645 2617 c-145 -76 -171 -95 -265 -193 -98 -101 -120 -141 -157 -280 -23 -89 -26 -122 -31 -322 -4 -211 -3 -222 14 -222 15 0 20 9 22 47 2 26 14 90 28 142 14 53 34 130 45 171 22 85 103 238 215 404 93 140 117 165 220 231 46 30 84 59 84 65 0 5 -17 10 -37 10 -26 -1 -70 -18 -138 -53z"></path></g></g><g fill="rgb(179,149,108)" style="transform: none;"><g><path d="M2418 1849 c-10 -5 -18 -21 -18 -34 0 -14 -4 -25 -10 -25 -5 0 -10 -6 -10 -14 0 -33 -42 -147 -64 -173 -14 -16 -27 -49 -31 -75 l-7 -46 -46 -5 c-43 -5 -53 -12 -114 -77 -60 -63 -68 -76 -68 -111 0 -37 -2 -39 -30 -39 -32 0 -71 -23 -126 -73 -29 -27 -34 -28 -70 -18 -54 15 -97 14 -162 -5 -75 -22 -151 -14 -205 22 -49 32 -158 143 -196 199 -14 22 -49 56 -76 77 -79 60 -133 50 -176 -32 -12 -25 -13 -25 -24 20 -24 93 -46 110 -140 110 -44 0 -57 -4 -69 -22 l-15 -21 -20 24 c-11 13 -20 27 -21 31 -1 21 -36 38 -80 38 -45 0 -51 -3 -65 -30 -31 -60 -9 -224 39 -295 15 -22 34 -54 42 -72 27 -56 205 -214 319 -282 47 -28 187 -51 305 -49 72 1 124 -3 165 -15 33 -9 121 -19 196 -23 l136 -7 95 47 c52 25 103 46 114 46 27 0 108 86 128 134 21 52 125 161 198 208 37 24 64 51 77 76 20 39 42 52 89 52 15 0 26 9 33 27 6 16 16 35 23 43 8 8 17 38 21 65 3 28 15 65 26 83 15 26 19 52 19 123 0 124 -4 129 -93 129 -40 0 -80 -5 -89 -11z"></path><path d="M614 923 c-10 -16 -23 -41 -29 -58 -9 -27 -15 -30 -57 -33 l-48 -3 0 -50 c0 -52 28 -118 73 -173 27 -33 118 -66 183 -66 74 0 103 61 69 143 -18 44 -18 47 -2 47 6 0 23 9 36 19 l23 18 -27 54 c-35 72 -56 96 -99 114 -57 24 -101 20 -122 -12z"></path></g></g><g fill="rgb(166,136,96)" style="transform: none;"><g><path d="M2560 2084 c0 -41 5 -63 20 -81 20 -25 26 -63 13 -76 -3 -4 -26 11 -49 33 -36 33 -51 40 -83 40 -22 0 -43 -5 -46 -11 -14 -21 -35 -145 -35 -201 0 -45 3 -58 15 -58 8 0 15 7 15 15 0 8 5 15 10 15 6 0 10 11 10 25 0 14 8 29 19 35 26 13 98 13 106 -1 4 -5 8 -42 10 -80 3 -55 0 -77 -15 -102 -10 -18 -22 -54 -25 -82 -4 -27 -13 -57 -21 -65 -7 -8 -17 -27 -23 -43 -7 -18 -18 -27 -33 -27 -47 0 -69 -13 -89 -52 -13 -25 -40 -52 -77 -76 -73 -47 -177 -156 -198 -208 -20 -48 -101 -134 -128 -134 -11 0 -62 -21 -114 -46 l-94 -46 -107 7 c-58 3 -123 11 -144 16 -107 28 -199 38 -245 28 -38 -8 -65 -7 -139 9 l-93 19 0 -23 c0 -18 17 -32 88 -71 113 -63 176 -93 193 -93 8 0 58 -11 112 -25 236 -60 306 -42 547 138 212 159 389 326 454 430 20 31 41 57 45 57 22 0 211 261 211 291 0 8 11 37 25 64 13 28 25 62 25 78 0 15 4 27 8 27 5 0 19 8 30 19 17 14 22 29 22 67 -1 67 -24 113 -94 184 -49 50 -64 60 -92 60 l-34 0 0 -56z"></path><path d="M556 1893 c-7 -22 -24 -48 -53 -80 -47 -52 -58 -227 -22 -338 26 -78 79 -145 116 -145 17 0 23 4 20 13 -3 8 -11 47 -18 88 -11 66 -10 78 5 107 26 49 53 44 96 -20 73 -110 43 48 -44 232 -14 30 -26 67 -26 82 0 47 -17 78 -44 78 -14 0 -26 -7 -30 -17z"></path><path d="M2160 1619 c0 -65 -70 -189 -157 -278 -53 -54 -77 -72 -90 -67 -33 13 -154 -5 -173 -26 -16 -18 -24 -18 -101 -8 -132 17 -242 57 -336 121 -23 16 -55 29 -72 29 l-30 0 28 -42 c40 -58 148 -169 197 -201 70 -46 182 -52 289 -17 26 9 47 7 94 -5 63 -16 84 -13 111 20 19 23 99 75 115 75 7 0 15 -5 17 -12 2 -6 12 -9 21 -5 13 5 16 15 11 50 -6 42 -5 44 63 116 73 79 109 93 138 55 16 -23 20 -15 29 59 10 84 -52 177 -118 177 -36 0 -36 -1 -36 -41z"></path><path d="M2834 1247 c-47 -48 -84 -107 -84 -133 0 -13 5 -24 10 -24 6 0 10 -17 10 -37 1 -62 17 -125 34 -135 9 -5 16 -20 16 -33 0 -27 13 -30 82 -19 40 7 32 -5 124 187 8 16 14 49 14 73 0 44 0 44 -35 44 -19 0 -35 -5 -35 -11 0 -6 9 -8 22 -4 17 6 20 4 15 -10 -4 -9 -7 -18 -7 -21 0 -2 -11 2 -25 8 -21 9 -25 18 -25 54 0 23 -4 54 -10 68 -14 38 -65 35 -106 -7z"></path></g></g><g fill="rgb(117,93,76)" style="transform: none;"><g><path d="M1782 3575 c-82 -23 -114 -42 -181 -104 -33 -31 -34 -32 -27 -99 3 -37 9 -84 12 -106 5 -29 1 -48 -16 -78 -14 -25 -20 -49 -17 -66 5 -29 -39 -133 -59 -139 -7 -3 -13 52 -18 169 -7 191 -14 258 -27 258 -11 0 -10 -137 0 -300 8 -121 1 -156 -19 -96 -6 20 -17 39 -25 43 -17 11 -93 174 -111 241 -21 78 -48 125 -96 167 -52 45 -96 65 -142 65 -42 0 -41 -24 0 -28 89 -7 192 -118 214 -230 7 -31 25 -81 40 -110 32 -60 33 -59 -59 -66 -63 -4 -150 -39 -158 -63 -8 -22 69 -19 122 4 28 13 67 23 87 23 20 0 40 5 43 11 26 41 111 -218 99 -298 -6 -41 -5 -43 20 -43 14 0 26 -4 26 -10 0 -5 9 -10 20 -10 11 0 20 1 20 3 0 1 -7 24 -15 51 -21 68 -19 121 4 143 24 23 55 85 72 143 7 25 17 51 23 59 25 32 187 -24 227 -80 11 -15 26 -44 35 -64 16 -39 34 -38 34 2 0 39 -28 89 -72 128 -48 44 -76 56 -152 64 -72 7 -89 26 -64 69 14 23 15 40 9 88 -14 101 2 154 53 170 11 4 50 24 86 45 36 21 77 41 92 44 16 4 25 11 22 16 -7 11 -4 12 -102 -16z"></path><path d="M764 2691 c-132 -57 -264 -145 -356 -238 -51 -51 -65 -72 -58 -83 7 -12 16 -7 45 27 20 24 73 67 118 96 96 63 264 150 276 142 12 -7 34 22 26 35 -4 6 12 19 39 31 25 11 48 24 51 29 12 20 -33 8 -141 -39z"></path><path d="M1565 2411 c-11 -5 -54 -10 -96 -10 -66 -1 -81 -5 -122 -31 -45 -28 -66 -54 -54 -66 3 -4 24 9 47 27 40 32 46 34 139 38 53 2 133 4 179 4 79 1 82 2 65 18 -21 21 -127 34 -158 20z"></path><path d="M3114 2108 c3 -24 9 -58 12 -77 l7 -34 -39 27 c-55 37 -62 23 -40 -77 10 -45 31 -174 46 -287 42 -295 41 -306 -31 -249 -51 40 -65 26 -38 -36 10 -24 29 -96 41 -161 18 -102 21 -155 21 -364 0 -135 -5 -276 -9 -315 l-9 -70 -35 -3 c-19 -2 -63 4 -98 12 -34 8 -62 10 -62 5 0 -5 -7 -9 -15 -9 -8 0 -15 -6 -15 -14 0 -23 93 -38 175 -29 l70 8 14 85 c8 54 14 183 15 355 1 252 -1 277 -22 368 -13 54 -22 101 -19 103 3 3 14 0 26 -8 38 -24 46 0 45 140 -1 129 -17 245 -55 405 -12 48 -19 90 -16 93 3 3 17 -2 32 -12 24 -16 27 -16 42 -1 15 14 15 24 4 83 -13 74 -26 104 -43 104 -7 0 -8 -15 -4 -42z"></path><path d="M650 1686 c0 -9 40 -126 57 -166 11 -25 21 -67 22 -94 4 -90 37 -119 37 -33 0 43 5 60 29 91 27 36 32 38 69 33 74 -10 99 -70 101 -242 1 -60 5 -123 10 -140 16 -63 94 -140 117 -117 9 9 7 16 -4 29 -46 51 -83 181 -73 253 9 66 51 160 72 160 9 0 38 -16 64 -35 l49 -35 0 27 c0 27 -47 133 -59 133 -4 0 -32 -22 -63 -50 -31 -27 -58 -50 -61 -50 -15 0 -38 90 -36 142 3 68 -6 84 -22 40 -8 -23 -17 -32 -33 -32 -38 0 -38 12 1 49 32 29 35 35 20 39 -12 2 -41 -16 -77 -48 l-59 -51 -28 17 c-15 10 -42 32 -60 51 -18 18 -41 33 -52 33 -12 0 -21 -2 -21 -4z"></path><path d="M670 975 c0 -8 -9 -15 -19 -15 -24 0 -59 -47 -67 -89 -5 -25 -12 -31 -31 -31 -34 0 -93 29 -93 46 0 19 -26 18 -34 -2 -8 -21 -7 -113 1 -144 7 -23 8 -21 14 15 3 22 8 33 11 25 29 -84 38 -128 38 -189 0 -85 34 -271 47 -258 3 3 -3 64 -13 135 -9 71 -14 137 -10 148 7 17 12 14 47 -24 42 -48 78 -61 167 -62 l52 0 0 37 c0 35 0 36 -20 18 -19 -17 -22 -17 -86 1 -71 21 -100 47 -143 131 -32 64 -29 77 22 81 42 3 67 21 67 51 1 9 11 29 24 45 l23 28 49 -21 c27 -12 64 -36 82 -53 40 -40 41 -25 1 35 -50 76 -129 132 -129 92z"></path><path d="M1190 445 c0 -39 -52 -71 -294 -180 -172 -77 -203 -101 -118 -93 84 8 372 162 469 250 20 19 23 19 45 4 23 -17 68 -22 68 -8 0 18 -67 45 -117 47 -48 1 -53 -1 -53 -20z"></path></g></g><g fill="rgb(107,81,60)" style="transform: none;"><g><path d="M325 2368 c-80 -94 -140 -261 -155 -434 -14 -160 9 -398 42 -441 12 -15 39 -4 76 30 l22 20 0 -27 c0 -39 16 -24 23 21 3 21 8 46 12 56 12 29 -19 20 -67 -19 l-43 -37 -8 54 c-5 30 -6 137 -4 239 4 157 8 199 30 280 36 138 66 211 99 242 27 25 38 58 19 58 -5 0 -26 -19 -46 -42z"></path><path d="M2335 1782 c-12 -9 -35 -38 -53 -63 -37 -55 -57 -65 -88 -44 -31 20 -31 20 -39 -22 -10 -53 -36 -101 -103 -184 -68 -86 -154 -166 -197 -184 -37 -16 -157 -38 -210 -39 -22 0 -78 13 -125 28 -167 56 -291 134 -340 214 -30 50 -40 52 -40 9 0 -64 87 -150 215 -214 128 -64 391 -107 413 -67 12 21 74 33 138 27 l54 -6 73 74 c87 89 157 213 157 278 0 23 3 41 6 41 12 0 54 -51 74 -90 11 -22 20 -59 20 -85 0 -65 16 -48 23 26 5 44 14 69 32 90 28 34 65 144 65 195 0 31 -3 34 -27 34 -16 -1 -37 -8 -48 -18z"></path><path d="M2867 1403 c-4 -3 -7 -25 -7 -47 0 -30 -11 -58 -40 -106 -21 -36 -47 -81 -56 -100 -78 -161 -104 -236 -104 -301 0 -70 133 -165 265 -190 97 -18 117 9 23 31 -29 7 -68 20 -87 30 -34 17 -35 17 -12 29 13 8 20 18 17 27 -3 8 10 31 33 54 39 41 103 153 115 203 26 109 36 -148 11 -267 -14 -65 -13 -88 1 -73 32 32 44 276 20 413 -8 44 -14 87 -14 95 2 31 -2 49 -12 49 -5 0 -10 -8 -10 -19 0 -10 -9 -30 -20 -44 -26 -32 -25 -40 2 -32 20 7 21 5 15 -37 -7 -54 -39 -140 -68 -188 -19 -31 -23 -33 -29 -16 -4 13 -9 16 -14 8 -4 -7 -16 -17 -28 -23 -17 -9 -19 -8 -14 9 5 14 0 25 -15 35 -26 19 -43 96 -30 143 10 36 6 45 -15 37 -8 -3 -14 0 -14 6 0 12 9 21 84 89 l36 33 10 -26 c6 -15 10 -44 10 -66 0 -29 4 -39 16 -39 15 0 16 11 12 88 -3 56 -12 104 -25 132 -21 47 -45 74 -56 63z"></path><path d="M1010 925 c0 -8 -7 -15 -16 -15 -66 0 129 -105 290 -155 110 -35 264 -65 333 -65 21 0 58 6 83 14 37 11 46 18 48 39 l3 25 -70 -24 -70 -24 -100 20 c-55 11 -112 25 -126 30 -15 6 -37 10 -50 10 -24 0 -149 62 -256 126 -64 39 -69 40 -69 19z"></path><path d="M787 768 c-35 -19 -37 -23 -31 -52 3 -17 12 -46 20 -65 13 -30 12 -35 -9 -61 -25 -33 -32 -34 -113 -19 -38 8 -69 21 -86 37 -52 48 -28 7 35 -63 l64 -69 78 -3 c42 -1 79 -4 82 -7 7 -7 -68 -53 -167 -104 -93 -47 -63 -48 37 -1 60 28 205 130 230 160 9 12 7 32 -12 94 -30 102 -63 175 -78 174 -7 0 -29 -10 -50 -21z"></path></g></g><g fill="rgb(90,68,59)" style="transform: none;"><g><path d="M905 3468 c-24 -13 -109 -99 -129 -130 -11 -18 -13 -47 -9 -137 l6 -115 59 -63 c32 -34 58 -71 58 -81 0 -11 11 -34 25 -53 13 -19 46 -74 72 -122 26 -49 58 -107 70 -129 49 -90 88 -112 198 -112 45 0 90 5 102 12 28 16 91 111 104 157 12 44 24 45 39 1 14 -44 85 -92 146 -102 64 -9 142 30 183 93 17 26 31 52 31 60 0 7 4 13 10 13 28 0 390 -154 513 -218 121 -63 131 -83 132 -249 0 -110 2 -124 23 -152 28 -38 28 -71 1 -105 -24 -31 -40 -32 -81 -8 -28 16 -30 16 -43 -1 -7 -10 -20 -47 -29 -83 -17 -66 -61 -165 -98 -216 -19 -28 -19 -28 0 -28 11 0 37 16 58 35 21 19 44 35 51 35 7 0 13 10 13 23 0 35 28 159 38 169 14 14 41 -3 93 -59 25 -26 54 -55 64 -63 17 -14 18 -13 12 16 -3 17 -1 36 5 42 18 18 11 103 -12 134 -20 27 -28 78 -12 78 17 0 128 -97 140 -123 7 -14 16 -49 19 -77 3 -27 10 -47 14 -44 15 9 10 77 -9 116 -24 52 -128 157 -179 180 -50 22 -59 45 -43 104 17 61 8 169 -18 220 -12 23 -38 55 -59 72 -88 69 -331 170 -496 207 -42 9 -79 20 -81 24 -10 16 17 52 48 65 33 14 48 12 218 -23 246 -51 302 -62 373 -71 33 -4 86 -18 117 -29 64 -25 168 -105 168 -130 0 -9 18 -35 41 -56 22 -22 55 -60 71 -85 17 -25 43 -58 58 -75 15 -16 31 -43 34 -60 12 -50 100 -244 114 -249 43 -17 -57 243 -123 322 -18 20 -45 62 -61 91 -42 79 -195 231 -264 263 -158 73 -345 119 -556 138 -71 7 -132 14 -136 17 -16 9 -8 35 8 29 13 -5 15 -1 11 20 -3 18 10 62 40 133 51 117 83 221 83 264 0 36 -16 67 -35 67 -12 0 -13 -10 -8 -45 4 -32 1 -51 -10 -69 -9 -13 -26 -61 -37 -107 -12 -46 -24 -87 -27 -92 -3 -5 -17 12 -32 38 -17 32 -40 55 -69 71 -49 28 -52 28 -52 12 0 -7 15 -25 33 -39 18 -14 45 -49 60 -77 l27 -50 -16 -76 c-15 -66 -19 -75 -38 -73 -17 2 -30 -16 -71 -100 -51 -104 -89 -154 -137 -179 -33 -17 -109 -5 -139 22 -40 36 -89 120 -89 153 0 17 -4 31 -10 31 -5 0 -10 -12 -10 -27 0 -14 -6 -34 -13 -42 -8 -9 -19 -36 -26 -61 -15 -52 -70 -124 -111 -145 -41 -21 -98 -18 -150 9 -41 21 -50 33 -107 143 l-62 120 32 54 c23 39 49 65 94 94 34 22 62 44 62 49 1 5 9 15 19 23 16 13 15 14 -8 8 -14 -3 -42 -9 -63 -12 -30 -4 -48 -18 -87 -61 -27 -30 -52 -68 -55 -83 -9 -40 -20 -36 -39 14 -37 97 -11 141 129 214 55 29 117 55 137 58 21 4 41 12 44 17 14 23 -129 -1 -191 -32 -76 -38 -175 -124 -175 -153 0 -18 -8 -13 -46 28 l-46 50 6 83 c4 53 2 90 -5 103 -8 15 -8 28 1 47 11 24 82 91 135 128 l20 13 -20 0 c-11 0 -29 -5 -40 -11z"></path><path d="M845 2569 c-107 -69 -157 -110 -215 -180 -63 -76 -75 -127 -55 -234 17 -86 19 -146 7 -161 -5 -5 -14 -34 -21 -65 -8 -39 -21 -65 -41 -84 -80 -76 -99 -239 -44 -369 16 -37 48 -89 71 -115 22 -26 56 -78 74 -116 25 -55 54 -91 128 -165 105 -105 227 -193 281 -204 27 -5 32 -4 22 6 -7 7 -12 20 -12 29 0 10 -15 26 -32 38 -142 87 -291 225 -334 307 -16 31 -55 84 -87 117 -62 66 -84 116 -94 217 -7 72 12 162 41 193 13 14 26 31 30 38 4 8 13 25 21 39 14 24 15 23 15 -31 0 -68 39 -153 80 -174 15 -8 35 -25 44 -39 9 -14 28 -29 42 -32 22 -6 24 -10 18 -38 -3 -17 -5 -29 -3 -26 2 3 20 23 39 44 32 36 33 38 11 33 -67 -16 -201 148 -201 246 0 12 -7 35 -15 50 -11 22 -12 38 -5 70 14 62 12 136 -6 217 -23 102 -12 133 79 222 39 38 113 101 164 140 51 38 93 71 93 74 0 10 -20 0 -95 -47z"></path><path d="M2692 1758 c-17 -47 -164 -284 -195 -312 -12 -11 -37 -41 -54 -66 -107 -155 -453 -463 -662 -590 -29 -18 -64 -44 -77 -57 l-23 -23 27 0 c36 0 127 44 233 112 181 118 375 307 461 451 22 37 49 72 58 77 18 10 132 150 182 224 16 23 28 50 28 60 0 11 9 39 21 62 11 24 19 56 17 71 -3 28 -4 27 -16 -9z"></path><path d="M323 1578 c-6 -7 -16 -74 -23 -148 -12 -141 -3 -320 21 -389 14 -39 53 -52 74 -25 13 18 14 17 26 -11 17 -44 15 -92 -9 -155 -42 -111 -54 -330 -27 -483 17 -96 42 -166 81 -228 l26 -42 66 7 c74 8 283 74 289 92 6 18 -79 6 -191 -27 -109 -32 -148 -36 -164 -16 -32 39 -72 268 -72 414 0 59 32 278 56 387 5 20 3 27 -4 22 -15 -9 -23 7 -31 62 -8 58 -32 68 -56 23 -31 -62 -40 -40 -57 139 -8 91 -9 161 -1 255 6 72 9 131 8 133 -1 1 -7 -3 -12 -10z"></path><path d="M2454 657 c-12 -6 -46 -31 -75 -53 -100 -77 -256 -148 -391 -180 -87 -20 -98 -36 -57 -81 20 -21 21 -23 5 -29 -55 -21 -316 25 -510 90 -115 39 -126 41 -126 26 0 -30 222 -109 389 -139 160 -29 233 -26 286 13 20 14 20 15 -5 41 -21 22 -22 28 -10 35 8 5 30 10 48 10 91 0 293 94 383 178 l58 54 34 -26 c43 -33 136 -75 266 -120 80 -28 118 -36 169 -35 l67 0 -40 18 c-22 10 -95 37 -163 60 -188 64 -297 113 -296 134 2 20 -4 21 -32 4z"></path></g></g><g fill="rgb(65,44,41)" style="transform: none;"><g><path d="M1927 2163 c-25 -29 -29 -64 -17 -169 12 -114 39 -181 76 -190 54 -14 74 32 75 170 1 109 -17 178 -52 196 -28 15 -64 12 -82 -7z"></path><path d="M1033 2073 c-23 -34 -31 -202 -13 -271 21 -84 69 -107 110 -54 21 25 22 35 18 152 -3 91 -9 134 -21 156 -27 51 -67 59 -94 17z"></path></g></g></svg>