<svg class="img-fluid" xmlns="http://www.w3.org/2000/svg" width="332" height="367" viewBox="0 0 3320 3670"><g fill="rgb(252,250,248)" style="transform: none;"><g><path d="M1180 3396 c-25 -18 -61 -50 -79 -70 -26 -26 -43 -36 -66 -36 -59 0 -66 -30 -40 -159 9 -40 13 -76 10 -79 -3 -3 -80 -8 -171 -10 l-166 -5 -47 -37 c-37 -29 -58 -38 -101 -42 -42 -4 -59 -11 -77 -32 -13 -15 -23 -33 -23 -40 0 -11 -60 -28 -178 -51 -17 -4 -57 -27 -88 -52 l-56 -46 4 -77 c3 -75 2 -78 -31 -115 -31 -36 -33 -42 -29 -96 6 -80 24 -99 97 -99 53 0 262 41 306 61 11 4 41 10 67 12 32 2 55 11 71 25 13 12 36 22 53 22 16 0 45 11 64 23 31 21 110 43 110 32 0 -3 -24 -40 -53 -82 -30 -43 -69 -105 -88 -138 l-34 -60 2 -196 c2 -237 13 -316 46 -345 23 -19 24 -27 24 -130 0 -139 15 -218 57 -296 25 -47 39 -64 57 -66 20 -3 30 -18 57 -83 34 -79 34 -80 23 -162 -17 -126 20 -422 65 -524 10 -21 18 -40 18 -43 1 -3 6 -12 11 -20 6 -8 15 -24 20 -35 6 -11 15 -20 20 -20 6 0 15 -3 20 -6 16 -9 161 18 250 47 112 37 260 114 323 168 62 53 66 54 217 26 137 -25 210 -25 311 0 43 10 90 20 104 22 22 3 25 9 28 46 3 35 7 42 24 42 43 0 172 74 240 138 l68 64 42 -24 c24 -14 59 -31 78 -38 19 -7 54 -21 77 -32 59 -26 300 -46 318 -27 22 24 85 195 105 286 38 176 44 276 26 401 -9 62 -28 145 -42 185 -15 39 -30 104 -35 142 -10 79 -27 131 -75 227 -19 37 -34 71 -34 75 0 5 10 13 23 18 17 8 23 19 25 55 3 49 -10 67 -250 383 -46 60 -85 114 -87 120 -7 23 -34 47 -52 47 -10 0 -71 21 -136 46 -211 82 -383 138 -526 169 -64 14 -78 21 -82 39 -2 11 -9 88 -15 170 -6 82 -15 155 -21 162 -14 17 -104 37 -137 31 -17 -4 -45 3 -77 19 -82 39 -365 104 -455 104 -58 0 -70 -4 -110 -34z m305 -86 c28 -10 77 -21 109 -24 65 -7 146 -38 146 -56 0 -7 21 -10 58 -9 31 1 67 -1 78 -5 24 -7 24 -8 40 -259 4 -53 9 -99 13 -101 4 -3 60 -16 126 -31 153 -34 302 -82 485 -155 80 -32 153 -61 163 -64 9 -3 21 -14 24 -23 4 -10 76 -110 160 -223 l154 -205 -41 -3 c-37 -3 -40 -5 -40 -32 0 -17 21 -67 46 -112 74 -135 104 -211 104 -265 0 -29 10 -74 24 -109 59 -145 80 -291 60 -423 -18 -124 -39 -200 -82 -304 l-37 -89 -72 6 c-112 10 -248 60 -322 117 -13 11 -39 19 -58 19 -30 0 -47 -11 -110 -70 -82 -77 -208 -147 -281 -157 -41 -5 -42 -7 -42 -43 l0 -37 -72 -22 c-86 -25 -101 -25 -204 -7 -44 8 -122 20 -175 27 l-97 12 -68 -57 c-120 -99 -438 -236 -482 -207 -20 13 -72 141 -86 211 -31 158 -39 279 -22 360 21 98 20 118 -4 158 -12 19 -32 62 -46 97 -23 57 -29 64 -56 67 -28 3 -34 10 -62 78 -30 74 -31 77 -29 237 l2 162 -27 3 c-23 3 -28 9 -39 58 -7 30 -13 123 -15 205 l-3 150 32 56 c89 158 226 330 337 425 41 35 47 45 53 92 l6 52 -36 0 c-27 0 -69 -20 -169 -79 -73 -43 -144 -91 -157 -105 -17 -18 -35 -26 -58 -26 -18 0 -33 -3 -33 -8 0 -16 -47 -35 -84 -33 -34 2 -43 -3 -68 -33 -24 -30 -33 -34 -48 -26 -10 6 -35 10 -55 10 -28 0 -38 -5 -42 -20 -3 -12 -14 -20 -27 -20 -11 0 -63 -11 -114 -24 -75 -18 -96 -20 -109 -10 -16 11 -16 15 -3 39 8 14 27 34 42 43 33 19 36 46 12 109 -17 43 -17 44 7 70 42 45 110 83 150 83 21 0 61 5 89 12 44 10 53 17 65 44 16 39 41 54 91 54 28 0 50 10 91 42 l55 42 141 -2 c78 -1 160 2 182 6 40 7 40 8 40 52 0 25 -4 56 -8 70 -7 24 -7 24 4 3 9 -18 21 -23 50 -23 37 0 38 1 75 78 20 42 39 71 41 65 3 -7 20 -13 38 -13 41 0 49 18 40 95 l-7 55 53 -16 c30 -9 77 -24 104 -34z"></path></g></g><g fill="rgb(253,227,207)" style="transform: none;"><g><path d="M1301 3320 c1 -39 -1 -73 -4 -77 -4 -3 -7 7 -8 23 0 16 -4 38 -8 49 -7 17 -13 12 -46 -39 -20 -32 -48 -83 -61 -112 -13 -30 -27 -54 -30 -54 -4 0 -13 8 -20 18 -12 15 -13 12 -14 -23 0 -34 8 -51 48 -99 41 -51 68 -72 144 -108 93 -44 398 85 452 191 11 21 46 141 46 157 0 2 -7 4 -15 4 -8 0 -15 5 -15 11 0 17 -82 48 -146 55 -32 4 -105 22 -160 40 -56 19 -116 34 -133 34 l-32 0 2 -70z"></path><path d="M455 2842 c-16 -14 -87 -30 -132 -31 -49 0 -90 -19 -144 -68 -33 -30 -39 -42 -39 -74 0 -22 6 -55 14 -73 13 -32 13 -34 -10 -46 -37 -21 -55 -56 -52 -103 l3 -42 49 -3 c27 -2 89 6 138 17 49 12 104 21 121 21 24 0 28 3 17 10 -24 15 2 35 28 21 42 -22 79 -13 111 26 18 21 31 31 31 23 0 -10 7 -6 20 10 18 22 20 34 14 100 -7 87 -22 126 -65 181 -24 31 -37 39 -63 39 -18 0 -36 -4 -41 -8z"></path><path d="M1309 2723 c-177 -125 -336 -271 -380 -348 -33 -58 -36 -92 -13 -184 15 -58 15 -83 5 -196 -6 -72 -11 -147 -11 -167 0 -35 2 -38 29 -38 24 0 37 -10 75 -64 25 -35 68 -84 97 -110 42 -37 58 -46 89 -46 37 0 60 17 73 53 6 17 8 17 44 -2 48 -23 233 -37 310 -22 40 8 64 7 105 -5 117 -32 121 -32 176 23 48 48 105 77 243 124 35 12 36 12 62 123 15 61 29 129 33 151 10 62 29 85 69 85 28 0 35 4 35 19 0 11 4 23 10 26 6 3 10 1 10 -4 0 -15 70 -14 74 2 3 6 7 24 10 40 6 23 9 26 25 18 10 -6 24 -24 31 -41 10 -25 18 -30 46 -30 l34 0 0 70 0 70 -72 77 c-40 43 -115 117 -165 166 -85 82 -100 92 -175 119 -88 31 -426 116 -567 142 -46 9 -112 16 -146 16 -62 0 -65 -1 -156 -67z m378 -264 c15 -5 65 -35 110 -66 100 -68 132 -117 107 -164 -14 -27 -42 -49 -62 -49 -6 0 -13 18 -17 40 -6 38 -9 40 -43 40 -21 0 -44 -8 -56 -19 -18 -17 -27 -18 -71 -10 -27 6 -106 9 -174 7 -94 -2 -126 1 -129 10 -14 44 81 145 181 192 66 32 108 37 154 19z"></path></g></g><g fill="rgb(247,190,173)" style="transform: none;"><g><path d="M1513 2475 c-73 -33 -72 -56 10 -157 43 -53 103 -92 170 -110 40 -10 48 -10 65 5 24 22 32 21 32 -3 0 -17 7 -20 53 -20 71 0 101 17 105 58 6 61 -30 113 -121 175 -45 30 -95 61 -110 66 -51 20 -147 13 -204 -14z"></path><path d="M2328 2176 c-11 -41 -14 -44 -38 -39 -35 6 -65 -30 -74 -89 -3 -24 -18 -93 -33 -154 -26 -111 -27 -111 -62 -123 -135 -46 -195 -76 -240 -121 l-47 -47 -39 15 c-40 14 -61 15 -287 12 -119 -1 -143 5 -210 52 -14 10 -21 9 -37 -6 -12 -11 -21 -24 -21 -31 0 -7 -9 -20 -19 -30 -19 -16 -21 -16 -49 3 -41 30 -102 98 -150 170 -46 66 -55 72 -71 45 -9 -15 -11 -12 -11 17 -1 33 -1 34 -15 16 -36 -48 4 -177 78 -254 50 -53 139 -94 195 -90 39 3 48 7 50 25 3 21 4 21 70 -9 63 -29 71 -30 142 -23 154 16 220 12 284 -18 89 -41 106 -38 179 36 53 55 155 127 180 127 4 0 7 -16 7 -35 0 -34 1 -35 39 -35 37 0 40 2 74 68 33 62 107 294 107 334 0 15 8 18 44 18 43 0 44 1 50 38 16 98 18 131 7 148 -10 18 -10 18 -11 -2 0 -34 -11 -35 -37 -3 -14 16 -29 29 -34 29 -5 0 -14 -20 -21 -44z"></path><path d="M2960 1296 c0 -7 -18 -41 -40 -74 -44 -65 -112 -118 -166 -128 -31 -6 -34 -9 -34 -43 0 -33 5 -40 40 -60 97 -54 214 -77 240 -46 8 10 18 77 26 168 18 216 21 197 -26 197 -27 0 -40 -4 -40 -14z"></path><path d="M1020 718 c0 -18 13 -76 29 -128 l28 -95 39 -3 c33 -2 51 5 119 51 72 48 80 57 83 89 3 34 2 35 -40 41 -24 3 -78 22 -121 41 -43 20 -91 36 -108 36 -26 0 -29 -3 -29 -32z"></path></g></g><g fill="rgb(238,205,135)" style="transform: none;"><g><path d="M1788 3253 c-23 -4 -28 -11 -37 -54 -6 -28 -18 -63 -26 -78 -34 -68 -182 -156 -312 -188 -62 -16 -66 -16 -79 1 -7 10 -18 15 -24 11 -17 -11 -78 34 -122 88 -48 61 -74 111 -83 158 -6 35 -35 57 -65 51 -22 -4 -12 -84 22 -182 14 -41 33 -100 43 -130 10 -30 24 -66 32 -79 14 -22 13 -26 -28 -67 -24 -24 -37 -44 -30 -44 8 0 -15 -27 -51 -59 -35 -32 -97 -97 -137 -144 -74 -86 -197 -273 -208 -315 -7 -29 3 -408 12 -444 5 -18 14 -28 26 -28 11 0 19 -5 19 -11 0 -5 4 -8 8 -5 4 2 8 -68 8 -157 0 -158 0 -164 30 -237 28 -68 34 -75 62 -78 27 -3 33 -10 53 -60 12 -31 33 -76 46 -99 14 -23 22 -47 18 -53 -10 -16 43 -100 63 -100 38 0 271 -128 316 -172 l44 -45 -64 -62 c-67 -65 -192 -153 -208 -148 -5 2 -22 46 -37 97 -33 110 -32 103 -19 95 18 -11 11 41 -8 58 -10 10 -35 17 -55 17 -35 0 -37 -2 -37 -31 0 -16 5 -63 11 -102 25 -170 67 -283 107 -293 53 -14 426 131 510 199 47 37 53 45 50 75 -3 26 -1 31 11 26 9 -3 52 -17 96 -32 73 -23 95 -25 255 -25 251 -1 233 -4 228 47 l-5 44 40 5 c72 10 198 81 281 158 l77 72 28 -20 c89 -66 216 -111 344 -120 51 -3 87 -10 87 -17 0 -24 30 25 63 104 40 95 70 212 87 339 17 125 -8 300 -62 434 -11 29 -21 77 -22 107 -3 60 -35 142 -109 275 l-44 80 43 3 c79 6 72 19 -155 320 -66 89 -121 165 -121 170 0 5 -11 19 -25 32 -14 13 -25 18 -25 12 0 -6 -47 9 -105 33 -108 46 -304 106 -510 158 -66 16 -125 34 -132 39 -6 5 -14 52 -17 106 -17 263 -15 250 -48 261 -31 11 -58 12 -110 4z m-303 -477 c50 -13 117 -29 150 -36 89 -18 450 -116 527 -143 58 -21 81 -37 160 -114 51 -49 126 -123 166 -166 66 -71 72 -80 72 -119 0 -24 -4 -38 -8 -31 -4 6 -6 -44 -4 -112 4 -148 -19 -346 -54 -455 -24 -76 -25 -78 -157 -206 -150 -147 -351 -289 -522 -371 -87 -42 -108 -48 -160 -47 -74 1 -182 36 -330 109 -210 102 -271 152 -349 285 -75 127 -99 199 -100 300 -1 80 1 90 38 164 38 76 39 83 44 201 3 93 0 139 -12 188 -16 64 -16 68 4 106 27 54 68 99 179 198 51 46 106 100 121 121 15 20 48 59 74 86 25 28 46 53 46 58 0 12 18 10 115 -16z m1457 -1216 c36 0 37 0 48 -55 6 -30 10 -93 8 -140 -2 -47 0 -86 3 -88 3 -1 2 -40 -3 -87 -5 -47 -11 -112 -13 -145 -7 -82 -19 -92 -86 -70 -72 24 -124 50 -148 76 -11 12 -45 32 -76 45 -31 12 -74 35 -96 50 -48 33 -99 100 -99 130 0 20 6 21 93 27 130 8 131 8 122 76 -14 105 -10 146 18 193 l26 45 83 -28 c46 -16 100 -29 120 -29z"></path><path d="M851 3003 l-155 -4 -51 -39 c-39 -30 -61 -40 -89 -40 -84 0 -103 -53 -40 -112 51 -47 77 -103 78 -168 1 -30 -3 -61 -7 -67 -15 -22 1 -63 24 -63 23 0 99 39 99 50 0 4 12 5 26 2 19 -3 34 4 62 31 20 19 72 56 116 82 43 26 95 64 116 84 34 33 38 42 43 106 4 39 3 86 -1 105 -9 40 10 38 -221 33z"></path></g></g><g fill="rgb(182,152,111)" style="transform: none;"><g><path d="M2323 1932 c2 -82 -2 -112 -23 -176 l-25 -77 -42 3 c-38 3 -43 0 -59 -29 -25 -48 -35 -40 -19 14 8 26 13 49 11 50 -2 2 -34 -7 -71 -21 -91 -33 -165 -86 -231 -165 -42 -51 -54 -73 -54 -101 l-1 -35 -20 28 c-12 15 -44 39 -72 54 -48 24 -58 25 -149 20 -102 -6 -157 5 -223 45 -16 10 -49 18 -71 18 -38 0 -42 -3 -47 -29 -5 -23 -12 -29 -44 -34 -109 -18 -241 135 -251 291 -4 60 -5 62 -32 62 -36 0 -40 -16 -40 -151 0 -84 5 -123 25 -189 14 -46 25 -90 25 -97 0 -24 83 -156 122 -193 20 -19 58 -46 85 -60 26 -13 91 -50 145 -81 106 -63 215 -107 326 -134 92 -22 121 -15 285 65 141 69 290 172 329 227 24 33 27 48 28 115 l0 78 67 55 c37 30 72 55 79 55 7 0 16 10 20 23 3 12 33 69 65 127 62 112 76 173 44 200 -8 7 -15 18 -15 24 0 6 -10 23 -23 38 -12 15 -30 39 -40 53 -15 20 -26 25 -62 25 l-44 0 2 -98z"></path><path d="M2978 1641 c4 -45 2 -51 -14 -51 -31 0 -121 27 -169 50 -52 25 -79 20 -100 -20 -17 -33 -38 -202 -30 -240 4 -20 0 -29 -22 -42 -23 -13 -45 -15 -111 -11 l-82 6 0 -52 c0 -47 4 -56 42 -97 67 -73 130 -104 210 -104 61 0 71 3 103 32 62 54 94 145 63 176 -9 9 -5 13 18 18 16 3 45 19 64 35 35 29 35 31 38 119 3 65 8 90 17 90 10 0 10 13 -3 63 -19 79 -31 92 -24 28z"></path><path d="M961 1033 c-6 -21 -11 -82 -11 -135 0 -91 1 -98 20 -98 11 0 20 -6 20 -14 0 -8 14 -28 30 -44 17 -17 30 -29 30 -26 0 2 35 -12 77 -32 103 -46 153 -54 182 -25 13 13 21 34 21 54 0 28 -5 36 -35 50 -30 14 -37 25 -52 78 -17 57 -21 63 -68 86 -27 14 -61 33 -74 42 -14 9 -33 15 -42 13 -12 -2 -26 12 -44 42 -15 26 -31 46 -35 46 -5 0 -14 -17 -19 -37z"></path></g></g><g fill="rgb(161,133,105)" style="transform: none;"><g><path d="M1031 3178 c4 -35 15 -83 24 -107 11 -32 12 -48 5 -55 -7 -7 -74 -11 -184 -11 l-173 0 -55 -42 c-42 -33 -64 -43 -92 -43 -50 0 -75 -15 -91 -54 -12 -28 -21 -34 -67 -43 -29 -6 -68 -11 -86 -12 -44 -2 -84 -23 -138 -73 -49 -46 -52 -57 -25 -127 l18 -49 -23 -13 c-54 -28 -77 -117 -39 -145 26 -19 47 -18 163 11 56 14 116 25 134 25 25 0 29 3 18 10 -22 14 -100 12 -190 -6 -44 -9 -87 -14 -95 -10 -41 15 6 90 84 131 l46 25 -40 -3 -40 -2 -9 49 -10 49 45 40 c58 51 95 67 131 56 47 -13 99 -50 109 -77 7 -18 13 -22 21 -14 18 18 0 59 -34 81 -18 11 -26 21 -18 21 8 0 29 7 45 16 29 15 31 15 59 -18 63 -73 86 -180 52 -234 -10 -16 -28 -39 -38 -51 l-20 -21 -62 42 c-33 23 -76 48 -93 55 -45 18 -41 38 10 61 38 18 40 20 14 20 -38 0 -77 -27 -77 -55 0 -19 16 -32 77 -66 63 -34 74 -43 58 -49 -19 -7 -19 -7 2 -18 43 -23 79 -15 112 25 22 26 31 32 31 20 0 -9 5 -17 11 -17 16 0 109 52 109 60 0 4 12 5 26 2 19 -3 34 4 62 31 32 30 282 187 299 187 3 0 -2 -9 -12 -20 -14 -15 -15 -20 -4 -20 8 0 -6 -17 -30 -38 -26 -23 -40 -41 -34 -45 15 -9 207 178 198 193 -4 6 -13 9 -19 7 -7 -3 -18 3 -24 14 -16 25 -52 121 -52 137 0 18 -84 232 -91 232 -3 0 -2 -28 2 -62z m4 -209 c9 -13 8 -114 0 -140 -8 -24 -292 -252 -305 -244 -5 3 -7 20 -4 38 5 31 5 31 -11 12 -9 -11 -19 -32 -21 -46 -4 -17 -16 -29 -36 -37 -37 -14 -52 -7 -38 17 5 10 8 49 6 87 -3 80 -26 132 -81 183 -36 34 -37 35 -15 43 29 11 92 -7 115 -32 10 -11 22 -20 28 -20 11 0 -19 50 -40 67 -12 9 -7 16 30 42 44 30 47 30 188 34 79 1 152 4 161 5 9 1 20 -3 23 -9z"></path><path d="M1090 3183 c0 -21 33 -109 47 -123 9 -9 4 12 -12 54 -25 70 -35 88 -35 69z"></path><path d="M2300 2033 c0 -47 -68 -271 -103 -337 -42 -81 -43 -84 -20 -63 26 23 30 22 58 -10 l23 -28 7 28 c4 15 14 27 24 27 30 0 66 137 66 252 0 97 6 113 33 86 9 -9 12 -5 12 19 0 25 -5 32 -27 37 -16 3 -38 8 -50 12 -20 6 -23 3 -23 -23z"></path><path d="M2363 1586 c-4 -7 -14 -15 -21 -17 -7 -3 -43 -29 -80 -58 l-67 -54 3 -70 c4 -57 1 -76 -17 -108 l-22 -39 27 0 c18 0 44 15 80 48 29 26 72 61 96 78 42 29 43 32 41 80 -4 82 -14 154 -23 154 -5 0 -13 -6 -17 -14z"></path></g></g><g fill="rgb(147,114,83)" style="transform: none;"><g><path d="M1008 2441 c-85 -92 -93 -115 -79 -236 6 -55 11 -121 11 -146 0 -52 -31 -164 -54 -194 -11 -14 -15 -44 -15 -100 1 -117 17 -142 20 -30 l2 90 7 -65 c17 -168 139 -305 267 -299 27 1 54 0 60 -4 10 -7 33 33 33 58 0 20 19 19 55 -3 68 -42 132 -55 231 -48 83 6 97 5 135 -15 24 -12 70 -48 102 -81 77 -79 93 -74 66 18 -11 37 -10 44 7 66 10 14 43 56 71 94 29 38 76 84 103 103 28 19 48 36 46 39 -12 11 -118 -60 -178 -120 l-68 -67 -57 26 c-71 33 -184 42 -284 23 -67 -13 -70 -12 -134 15 -36 15 -75 39 -86 53 -18 23 -21 24 -35 10 -8 -8 -16 -28 -18 -44 -4 -39 -24 -41 -93 -5 -71 35 -120 88 -158 166 -23 50 -26 66 -21 114 18 157 18 299 2 364 -16 65 -16 67 5 109 12 23 46 67 75 98 30 31 54 60 54 63 0 18 -23 2 -72 -52z"></path><path d="M2442 2258 c-11 -14 -52 -171 -52 -200 0 -16 -5 -18 -35 -12 l-34 6 47 -49 c54 -55 86 -100 118 -161 3 -7 -21 -61 -54 -120 -80 -144 -90 -178 -68 -237 18 -47 15 -115 -4 -85 -7 12 -13 11 -32 -6 -13 -12 -31 -26 -41 -31 -10 -5 -57 -48 -105 -95 -99 -96 -209 -174 -303 -213 -35 -15 -93 -42 -129 -60 -94 -48 -100 -48 -177 -20 -81 29 -93 30 -93 11 0 -9 31 -21 90 -36 112 -28 145 -21 303 59 174 87 352 216 499 359 168 165 170 170 173 467 2 173 5 216 19 242 17 34 20 91 6 133 -7 22 -8 20 -9 -15 l-2 -40 -17 32 c-9 18 -33 44 -52 58 -40 29 -35 28 -48 13z"></path><path d="M2990 1590 c0 -5 -7 -10 -15 -10 -8 0 -15 -6 -15 -12 -5 -175 -4 -168 -40 -196 -19 -15 -52 -32 -74 -37 -49 -13 -57 -36 -22 -66 24 -21 24 -23 9 -53 -8 -17 -29 -46 -46 -63 l-31 -33 35 0 c89 0 163 49 190 125 28 77 31 28 7 -138 -12 -91 -5 -113 12 -35 17 80 30 212 30 319 0 99 -16 209 -31 209 -5 0 -9 -4 -9 -10z"></path><path d="M1115 948 c45 -35 85 -80 79 -90 -3 -5 -1 -14 4 -21 5 -7 15 -29 22 -50 8 -27 21 -43 45 -54 28 -13 32 -19 25 -34 -6 -10 -19 -21 -30 -24 -11 -3 -20 -13 -20 -21 0 -10 14 -14 55 -14 46 0 59 4 88 30 19 17 40 30 46 30 6 0 11 4 11 9 0 5 8 11 18 13 12 2 2 15 -38 45 -30 23 -60 51 -67 62 -7 10 -65 45 -130 77 -140 69 -147 72 -108 42z"></path></g></g><g fill="rgb(128,100,92)" style="transform: none;"><g><path d="M1306 3291 c2 -46 13 -129 24 -184 l20 -100 -21 -34 c-11 -18 -24 -33 -29 -33 -5 0 -28 15 -51 33 -53 40 -123 140 -142 204 -10 33 -15 40 -16 24 -1 -13 7 -48 16 -78 21 -67 104 -162 168 -193 38 -18 45 -26 45 -51 0 -16 5 -37 11 -47 9 -14 2 -26 -37 -67 -25 -27 -70 -81 -99 -120 -29 -38 -75 -92 -103 -119 -83 -80 -48 -73 46 10 139 121 288 224 327 224 77 0 536 -107 685 -159 84 -30 87 -32 222 -167 76 -75 138 -133 138 -128 0 20 -131 171 -192 222 -62 53 -100 70 -338 157 -76 28 -489 131 -606 151 -15 3 -23 13 -26 33 -4 28 -3 29 53 35 79 8 141 33 232 95 107 72 153 147 137 226 -6 28 -7 26 -18 -23 -7 -29 -19 -66 -27 -81 -34 -67 -181 -156 -311 -188 -79 -20 -94 -11 -68 38 16 32 16 40 -5 184 -29 197 -42 248 -35 136z"></path><path d="M1916 3205 c-11 -56 -8 -236 3 -274 6 -19 10 -36 8 -37 -1 -1 -27 2 -57 7 -60 8 -156 12 -149 5 4 -4 160 -46 374 -101 110 -28 386 -106 517 -146 l96 -29 30 -53 c17 -28 93 -137 171 -240 l141 -188 -46 7 c-46 7 -47 6 -41 -18 4 -14 27 -61 51 -105 49 -86 106 -221 106 -249 0 -16 -2 -15 -22 4 -13 11 -36 24 -52 28 l-29 7 6 -43 c3 -23 11 -48 17 -54 10 -8 11 -2 6 27 -8 41 -1 45 30 19 29 -23 45 -56 90 -192 39 -115 39 -116 39 -275 0 -143 -3 -170 -27 -256 -15 -53 -40 -130 -55 -170 l-29 -74 -59 2 c-40 1 -92 13 -158 37 -125 45 -199 85 -277 148 -34 27 -64 48 -66 45 -2 -2 12 -23 32 -46 35 -41 36 -42 18 -62 -55 -61 -351 -225 -386 -213 -26 8 -34 -21 -14 -51 15 -23 15 -26 1 -31 -9 -4 -86 -4 -173 -1 -134 4 -169 8 -242 32 -82 26 -256 75 -266 75 -3 0 -2 -4 1 -10 9 -15 -19 -12 -41 5 -10 8 -32 15 -48 15 -23 0 -26 -3 -17 -14 8 -10 8 -16 -3 -25 -11 -9 -15 -9 -19 1 -3 9 -10 5 -24 -11 -15 -18 -31 -25 -59 -27 -22 0 -49 -4 -61 -8 -31 -10 -138 50 -191 107 l-23 24 29 6 c16 3 32 13 35 21 5 12 -3 13 -49 9 l-54 -6 0 60 c0 33 -3 81 -6 107 -8 55 3 58 35 11 45 -66 32 -28 -26 77 -32 57 -71 137 -88 178 -23 57 -31 68 -35 51 -5 -22 -5 -22 -26 -3 -13 12 -26 44 -34 83 -17 85 -28 378 -15 383 6 2 5 9 -3 17 -10 11 -17 11 -31 2 -16 -10 -20 -8 -26 15 -3 15 -9 113 -12 218 -4 145 -2 197 7 215 49 91 196 297 258 361 42 43 72 81 69 85 -9 9 -36 -16 -134 -126 -82 -91 -141 -175 -206 -290 l-32 -56 2 -170 c3 -236 23 -329 66 -312 10 4 13 -27 13 -157 -1 -158 0 -163 30 -236 28 -68 34 -75 62 -78 27 -3 33 -10 53 -60 12 -31 32 -75 45 -97 22 -39 22 -41 6 -115 -27 -133 10 -424 70 -550 17 -36 36 -69 42 -73 17 -12 119 2 194 27 115 39 273 122 342 179 l65 54 65 -9 c36 -5 103 -16 150 -24 111 -18 184 -18 251 3 30 9 68 15 86 14 42 -2 50 15 24 50 -11 15 -21 30 -21 32 0 3 19 7 42 10 73 10 199 80 282 158 l77 72 28 -20 c89 -66 216 -111 344 -120 51 -3 87 -10 87 -17 0 -24 30 25 63 104 40 95 70 212 87 339 17 125 -8 300 -62 434 -11 29 -21 77 -22 107 -3 60 -35 142 -109 275 l-44 80 44 3 c80 6 80 6 -144 304 -73 98 -133 181 -133 186 0 5 -11 19 -25 32 -14 13 -25 19 -25 13 0 -6 -58 13 -129 42 -166 69 -345 126 -496 160 -66 14 -123 30 -127 33 -3 4 -11 83 -17 176 -7 94 -13 171 -15 173 -2 2 -7 -12 -10 -32z m-893 -2463 c10 -10 14 -21 11 -25 -16 -16 48 -212 73 -221 18 -7 195 102 265 164 26 22 50 40 55 40 18 -1 174 -68 175 -76 3 -15 -73 -62 -171 -105 -110 -48 -342 -129 -353 -123 -17 11 -58 174 -83 327 -6 41 3 47 28 19z m216 -97 l54 -11 -49 -35 c-82 -59 -125 -82 -133 -73 -4 5 -18 45 -31 89 -12 44 -25 86 -28 93 -2 7 26 -2 64 -19 38 -18 93 -37 123 -44z"></path><path d="M1503 2471 c-143 -68 -235 -210 -173 -266 19 -17 26 -18 66 -7 59 16 173 15 254 -2 66 -14 85 -11 110 18 20 25 28 19 35 -23 7 -44 27 -53 83 -39 38 10 72 58 72 102 0 61 -35 109 -123 169 -102 69 -123 77 -200 77 -48 0 -76 -7 -124 -29z m245 -20 c84 -43 172 -127 179 -172 5 -34 4 -36 -35 -47 -54 -16 -79 -15 -91 5 -8 15 -13 15 -33 5 -44 -24 -159 33 -219 109 -35 44 -62 90 -56 95 16 16 84 33 135 34 50 0 74 -6 120 -29z"></path><path d="M2561 2220 c-1 -32 -10 -74 -22 -100 -19 -41 -21 -64 -23 -262 -1 -206 3 -243 23 -222 30 30 52 456 31 589 l-7 50 -2 -55z"></path><path d="M1960 2074 c-118 -13 -210 -32 -224 -45 -16 -15 69 -86 131 -109 73 -27 140 -40 176 -33 29 6 29 6 -20 34 -26 16 -81 41 -121 55 -40 15 -75 30 -77 34 -3 4 19 11 48 14 104 14 213 46 196 59 -2 2 -51 -2 -109 -9z"></path><path d="M1105 2033 c-11 -2 -27 -7 -35 -10 -22 -8 76 -33 134 -33 l48 0 -53 -57 c-56 -62 -89 -110 -89 -131 0 -18 78 39 156 114 71 68 81 98 38 114 -25 10 -160 12 -199 3z"></path><path d="M889 1870 c-40 -63 -52 -117 -47 -217 7 -116 31 -189 104 -313 75 -128 120 -167 305 -263 147 -77 243 -113 270 -101 20 9 16 13 -37 33 -32 12 -99 46 -149 75 -49 30 -126 73 -170 96 -107 58 -132 76 -165 122 -28 38 -35 57 -85 233 -27 97 -35 258 -14 296 5 11 9 30 7 42 -3 21 -3 21 -19 -3z"></path><path d="M2717 1648 c-50 -56 -61 -88 -62 -168 0 -41 4 -87 8 -101 11 -34 -2 -39 -120 -46 l-93 -6 0 -51 c0 -42 6 -60 30 -93 35 -47 101 -94 169 -120 25 -9 73 -34 105 -55 81 -52 169 -78 210 -62 22 9 20 27 -2 20 -31 -10 -212 62 -212 85 0 4 15 10 34 13 54 10 122 63 166 128 40 60 47 99 8 45 -21 -29 -91 -69 -142 -81 -16 -4 -40 -16 -54 -26 -50 -40 -136 -14 -222 66 -45 42 -79 98 -67 110 3 3 22 1 44 -5 21 -6 60 -11 86 -11 58 0 103 35 93 74 -8 34 12 191 30 229 l16 34 42 -22 c50 -28 118 -40 143 -26 10 6 16 11 13 11 -3 0 -41 13 -85 28 -61 21 -80 31 -79 45 3 28 -29 20 -59 -15z"></path></g></g></svg>