<svg class="img-fluid" 
 xmlns="http://www.w3.org/2000/svg" width="332" height="367" viewBox="0 0 3320 3670"><g 
 fill="rgb(252,252,252)" style="transform: none;"><g><path 
 d="M1660 2911 c-63 -10 -102 -24 -139 -51 -50 -35 -77 -35 -108 -2 -33 36 -106 58 -161 48 -20 -4 -100 -11 -177 -16 -77 -5 -180 -16 -230 -24 -66 -10 -106 -12 -150 -4 -33 5 -82 6 -110 3 -71 -10 -234 -65 -262 -89 -26 -23 -62 -161 -70 -273 l-5 -62 51 -36 c28 -20 51 -40 51 -44 0 -5 -9 -16 -20 -26 -11 -10 -20 -29 -20 -42 0 -13 -13 -51 -30 -84 -37 -76 -70 -181 -70 -226 0 -21 -9 -47 -25 -67 -14 -18 -35 -51 -48 -73 -12 -23 -39 -71 -59 -107 -33 -58 -38 -75 -38 -129 1 -67 11 -92 69 -168 35 -45 49 -57 143 -120 117 -79 141 -91 243 -116 79 -20 101 -31 113 -58 10 -21 75 -78 203 -177 161 -124 325 -199 487 -223 251 -36 489 -38 637 -5 63 14 213 81 285 128 115 73 131 86 223 170 146 135 159 145 168 130 5 -7 9 -20 9 -28 0 -15 9 -29 57 -89 20 -26 25 -27 74 -21 51 7 52 6 65 -25 7 -17 16 -44 20 -61 10 -42 22 -54 58 -54 20 0 36 -7 44 -20 17 -28 92 -28 116 -1 44 49 163 297 191 399 10 34 22 65 26 68 16 9 10 231 -7 287 -47 154 -118 262 -190 287 -16 6 -38 24 -47 39 -15 25 -16 37 -6 81 6 28 8 71 5 95 -14 92 -86 248 -133 286 -8 7 -30 37 -49 66 -25 39 -34 65 -34 96 0 30 -9 55 -30 87 -16 25 -30 52 -30 61 0 17 -73 89 -89 89 -6 0 -22 5 -38 12 -15 6 -30 12 -33 13 -3 1 -18 8 -35 15 -19 8 -103 16 -225 21 -107 4 -242 15 -300 24 -129 19 -297 27 -370 16z m298 -85 c97 -14 246 -27 330 -31 124 -4 167 -10 232 -31 84 -26 143 -67 156 -107 4 -12 17 -35 30 -50 19 -23 24 -40 24 -84 0 -47 4 -60 30 -90 17 -18 30 -38 30 -44 0 -5 18 -28 40 -51 44 -46 113 -194 113 -243 0 -16 -4 -64 -8 -105 -6 -64 -5 -78 9 -89 9 -7 16 -20 16 -27 0 -8 18 -21 40 -30 94 -38 188 -200 198 -341 4 -59 0 -88 -22 -157 -31 -100 -111 -283 -151 -346 -27 -42 -29 -43 -38 -23 -7 16 -20 23 -45 25 -29 2 -37 8 -46 33 -6 17 -19 45 -29 62 -17 31 -20 33 -76 33 -57 0 -60 1 -81 35 -11 19 -27 62 -34 97 -12 59 -14 63 -42 66 -26 3 -46 -13 -164 -130 -229 -226 -443 -357 -650 -399 -95 -19 -117 -20 -230 -10 -194 16 -354 47 -439 84 -141 61 -425 268 -477 347 -22 32 -31 38 -73 43 -149 18 -411 194 -470 315 -15 33 -15 35 18 95 18 34 63 106 98 160 60 90 65 103 60 139 -5 40 10 98 51 188 11 25 28 64 38 88 10 24 28 52 41 62 16 13 23 28 23 53 0 31 -7 41 -66 88 -74 59 -73 52 -37 182 20 73 50 95 177 131 80 24 95 25 155 15 67 -11 86 -9 246 16 131 21 365 36 387 24 10 -5 21 -21 24 -34 6 -25 8 -25 109 -25 59 0 107 4 110 10 3 6 15 10 26 10 10 0 19 6 19 14 0 19 89 52 148 55 13 0 103 -10 200 -23z"></path></g></g><g 
 fill="rgb(253,219,198)" style="transform: none;"><g><path 
 d="M1685 2874 c-57 -14 -105 -37 -105 -50 0 -9 -5 -12 -11 -9 -6 4 -21 -3 -35 -16 -21 -20 -24 -31 -24 -100 0 -68 4 -85 33 -140 27 -54 38 -65 69 -74 20 -5 50 -22 66 -37 32 -28 109 -48 187 -48 l41 0 1 148 c1 103 6 162 17 197 21 66 21 111 0 119 -22 8 -214 16 -239 10z"></path><path 
 d="M1156 2853 c-84 -4 -93 -9 -122 -63 -23 -45 -24 -219 -2 -300 l15 -55 45 -3 c31 -2 67 6 124 29 143 56 171 106 159 279 -8 115 -13 121 -92 118 -26 -1 -83 -4 -127 -5z"></path><path 
 d="M2463 1916 c-26 -36 -39 -46 -70 -51 -105 -16 -108 -17 -111 -58 -3 -36 -2 -38 45 -59 38 -17 74 -23 166 -26 l117 -4 0 31 c0 18 -6 44 -14 59 -8 15 -20 55 -26 90 -12 60 -13 62 -44 62 -27 0 -38 -8 -63 -44z"></path></g></g><g 
 fill="rgb(239,206,137)" style="transform: none;"><g><path 
 d="M2038 2809 c-12 -7 -18 -22 -18 -49 0 -22 3 -40 8 -40 12 0 7 -161 -8 -227 -14 -61 -14 -61 -52 -65 -24 -2 -43 1 -50 9 -13 16 -35 17 -40 2 -3 -9 -21 -9 -72 0 -51 9 -76 19 -99 41 -17 16 -45 31 -63 35 -25 4 -40 17 -64 55 l-32 50 -57 0 c-72 0 -153 -28 -194 -68 -39 -37 -162 -87 -237 -96 -30 -4 -63 -10 -72 -12 -12 -4 -18 0 -18 11 0 9 -9 29 -19 44 -11 14 -27 53 -36 84 -16 55 -16 61 0 105 9 26 19 64 22 85 l5 37 -123 -1 c-128 -1 -156 -6 -249 -44 -30 -13 -76 -31 -102 -40 -51 -18 -104 -69 -114 -111 -10 -39 1 -156 17 -184 8 -13 25 -34 39 -46 l25 -22 -26 -20 c-14 -11 -33 -40 -43 -64 -10 -24 -32 -74 -49 -113 -20 -45 -32 -90 -34 -125 -4 -82 -4 -83 -70 -183 -33 -50 -79 -126 -101 -167 l-41 -75 23 -50 c35 -75 99 -141 207 -212 109 -72 199 -112 270 -120 42 -5 51 -11 73 -43 29 -44 189 -175 313 -256 184 -121 333 -160 653 -171 229 -7 302 5 455 82 154 76 279 169 430 319 71 71 133 130 137 130 9 1 78 96 78 107 0 4 11 20 25 35 14 15 28 38 31 51 4 14 14 23 26 23 24 0 59 76 66 143 2 26 9 50 13 53 5 3 9 22 9 43 0 21 3 66 6 100 7 59 8 61 35 61 18 0 29 6 32 18 16 56 29 158 24 190 -9 66 -75 206 -117 250 -22 23 -40 45 -40 50 0 24 -43 62 -70 62 -28 0 -28 1 -19 29 6 16 9 49 7 72 -3 40 -6 44 -32 47 -15 2 -41 -2 -57 -8 -24 -11 -33 -10 -56 6 -16 10 -53 21 -83 25 -91 12 -156 36 -212 77 -104 78 -210 111 -260 81z m-1395 -656 c23 2 57 10 74 18 31 12 34 12 63 -16 24 -23 30 -37 30 -70 l0 -42 -97 -45 c-54 -25 -123 -51 -153 -57 -30 -6 -90 -23 -133 -37 -43 -14 -81 -24 -83 -21 -3 3 22 34 55 70 58 61 61 67 61 115 0 30 5 54 14 61 8 6 19 25 26 40 l11 29 45 -25 c34 -19 54 -24 87 -20z m1647 7 c0 -20 5 -21 88 -18 l87 3 19 -39 c10 -21 21 -69 24 -107 2 -38 8 -69 12 -69 4 0 13 -28 20 -62 6 -35 18 -75 26 -90 l15 -28 -64 0 c-34 0 -86 6 -114 13 -63 17 -183 84 -262 149 -54 43 -61 53 -61 84 0 26 7 41 26 57 14 12 43 36 63 53 38 33 101 74 114 74 4 0 7 -9 7 -20z"></path></g></g><g 
 fill="rgb(228,186,115)" style="transform: none;"><g><path 
 d="M1902 2838 c0 -18 -5 -69 -11 -113 -7 -44 -10 -134 -9 -200 l3 -120 73 -3 72 -3 0 30 c0 17 7 56 15 88 20 73 30 233 15 233 -19 0 -10 20 14 31 20 9 34 7 83 -16 32 -15 82 -45 111 -67 56 -41 121 -65 212 -77 34 -4 71 -17 97 -35 l41 -27 41 21 41 21 10 -23 c8 -21 9 -19 9 12 1 117 -42 165 -186 208 -85 25 -116 29 -238 31 -119 2 -293 19 -372 36 -19 4 -22 1 -21 -27z"></path><path 
 d="M1387 2793 l-37 -4 1 -82 c1 -45 -2 -102 -6 -126 -6 -36 -5 -42 6 -35 25 16 83 34 126 40 34 5 44 3 49 -10 3 -9 11 -16 16 -16 7 0 8 21 4 58 -4 31 -6 84 -6 117 l1 60 -58 1 c-32 0 -75 -1 -96 -3z"></path></g></g><g 
 fill="rgb(182,151,110)" style="transform: none;"><g><path 
 d="M1007 2840 c-37 -4 -72 -11 -77 -16 -5 -5 -17 -38 -26 -74 -25 -97 -16 -211 21 -285 l29 -57 65 7 c35 4 70 9 78 12 19 7 16 30 -5 35 -41 11 -61 232 -27 299 20 38 39 59 54 59 6 0 11 7 11 15 0 16 -10 17 -123 5z"></path><path 
 d="M500 2794 c-123 -36 -153 -59 -173 -131 -33 -123 -41 -172 -29 -186 22 -27 132 -108 132 -98 0 5 -4 13 -10 16 -16 10 -12 25 7 25 13 0 11 6 -10 28 -36 37 -47 114 -24 159 22 41 68 79 114 93 21 6 63 22 93 35 30 12 74 29 98 36 55 16 54 35 -4 43 -74 10 -103 7 -194 -20z"></path><path 
 d="M452 2417 c-7 -8 -10 -21 -7 -30 4 -9 -3 -22 -17 -32 l-23 -16 24 3 c19 2 27 12 33 36 11 42 6 59 -10 39z"></path><path 
 d="M497 2242 c-54 -59 -75 -193 -38 -234 18 -18 28 -20 104 -16 68 3 96 10 150 36 36 18 70 32 76 32 6 0 18 11 27 24 8 14 22 26 30 28 20 4 -14 58 -61 93 l-36 28 -58 -27 -58 -28 -41 21 c-23 12 -48 30 -54 41 -16 25 -21 25 -41 2z"></path><path 
 d="M2200 2183 c-93 -61 -114 -115 -60 -154 16 -12 32 -34 35 -49 3 -14 19 -43 36 -63 38 -46 79 -50 120 -11 l26 25 6 -30 c6 -27 11 -31 39 -31 50 0 95 32 107 77 17 59 13 153 -7 193 l-17 35 -83 1 c-49 0 -87 5 -94 12 -17 17 -80 15 -108 -5z"></path><path 
 d="M2960 1633 c0 -38 -5 -75 -10 -83 -7 -11 -10 -11 -10 -2 0 9 -12 12 -37 10 -34 -3 -38 -6 -41 -34 -3 -30 -5 -32 -61 -38 -36 -4 -65 -13 -74 -24 -55 -61 -83 -226 -53 -304 10 -24 27 -53 39 -65 23 -26 57 -30 57 -8 0 9 9 15 24 15 29 0 56 -41 82 -124 20 -62 29 -68 46 -31 15 33 21 32 41 -10 9 -19 23 -35 31 -35 8 0 31 26 52 57 113 170 209 513 178 631 -8 27 -58 31 -68 5 -5 -13 -14 -4 -40 38 -33 56 -50 65 -123 68 l-33 1 0 -67z"></path></g></g><g 
 fill="rgb(137,114,101)" style="transform: none;"><g><path 
 d="M1685 2873 c-42 -9 -105 -35 -105 -44 0 -12 0 -12 46 5 59 20 137 29 202 21 85 -10 86 -12 67 -79 -12 -41 -17 -101 -18 -202 l-2 -145 -55 6 c-30 3 -77 8 -105 11 l-50 5 24 -21 c21 -18 36 -21 108 -19 52 1 88 -3 97 -10 8 -7 34 -12 58 -11 120 2 341 -22 448 -48 105 -26 115 -30 113 -50 -3 -26 18 -29 37 -7 7 8 18 15 24 15 6 0 42 16 78 35 52 28 71 44 85 74 l18 37 47 -60 c55 -70 63 -83 121 -186 l42 -75 -16 -65 c-10 -36 -20 -78 -24 -94 -6 -27 -7 -28 -25 -11 -20 18 -50 95 -50 129 0 12 -5 28 -11 36 -8 11 -9 -1 -3 -45 14 -121 16 -162 15 -245 -2 -56 -7 -88 -15 -95 -7 -6 -13 -29 -12 -55 0 -26 -9 -65 -22 -94 -19 -42 -24 -47 -37 -36 -9 7 -14 18 -12 24 7 20 -138 424 -160 446 -3 3 -2 -17 2 -45 9 -63 47 -178 91 -274 37 -81 42 -100 19 -81 -22 18 -18 5 10 -40 14 -22 25 -45 25 -52 0 -20 -38 -73 -52 -74 -7 0 -20 -2 -28 -2 -9 -1 -24 -16 -34 -33 -19 -33 -11 -33 27 -1 76 66 -59 -126 -166 -235 -39 -40 -67 -76 -63 -80 4 -4 52 38 106 94 54 56 101 99 104 96 3 -4 6 -16 6 -28 0 -45 31 -123 66 -163 40 -47 53 -52 61 -22 3 11 14 20 24 20 11 0 19 5 19 10 0 14 -43 13 -57 -1 -13 -13 -24 4 -48 75 -11 32 -14 62 -9 94 11 79 63 180 85 166 5 -3 9 2 9 10 0 9 4 16 8 16 14 0 59 90 82 165 16 55 20 83 14 133 -6 60 -6 62 17 62 13 0 33 7 43 15 11 8 30 15 42 15 31 0 39 16 12 23 -12 4 -19 9 -15 13 4 4 -2 18 -14 30 -20 22 -21 26 -9 89 7 36 10 83 7 103 -9 66 -75 206 -117 250 -22 23 -40 46 -40 51 0 6 -13 26 -30 44 -25 29 -29 41 -27 85 2 39 -3 57 -20 79 -13 15 -29 42 -37 58 -22 51 -71 83 -174 115 -101 31 -122 35 -122 22 0 -4 33 -19 73 -31 115 -37 166 -67 183 -106 8 -19 14 -42 14 -51 0 -10 7 -26 17 -36 14 -15 14 -24 5 -57 -7 -21 -12 -58 -12 -83 0 -46 -13 -68 -40 -68 -9 0 -25 -9 -35 -20 -10 -11 -26 -20 -35 -20 -9 0 -21 -5 -26 -10 -7 -7 -33 1 -80 25 -78 39 -169 55 -334 58 -55 1 -100 4 -100 7 0 3 6 26 14 51 13 41 20 277 9 265 -7 -7 -53 -215 -60 -268 l-6 -48 -43 0 -44 0 0 98 c1 103 15 300 22 308 3 2 42 -3 88 -12 90 -17 281 -26 345 -16 36 5 38 6 15 13 -14 4 -70 8 -125 8 -55 1 -176 13 -270 26 -158 23 -252 29 -300 18z"></path><path 
 d="M1550 2805 c0 -8 5 -15 10 -15 6 0 10 7 10 15 0 8 -4 15 -10 15 -5 0 -10 -7 -10 -15z"></path><path 
 d="M365 1310 c10 -16 158 -71 205 -77 43 -5 52 -10 74 -43 29 -44 189 -175 313 -256 175 -115 305 -151 623 -176 145 -11 162 -10 264 10 159 32 297 101 479 240 92 70 58 61 -48 -13 -114 -79 -295 -168 -385 -189 -77 -18 -196 -20 -415 -5 -311 20 -435 75 -732 322 -51 43 -93 82 -93 87 0 6 26 10 58 10 31 0 64 5 72 10 10 7 -19 10 -91 10 -113 0 -180 15 -239 52 -34 21 -95 34 -85 18z"></path></g></g><g 
 fill="rgb(149,115,82)" style="transform: none;"><g><path 
 d="M786 2115 c-9 -14 -21 -25 -27 -25 -6 0 -39 -14 -74 -31 -36 -17 -88 -33 -120 -36 -49 -5 -58 -3 -76 16 -11 11 -24 21 -29 21 -16 0 -30 -37 -30 -82 0 -66 8 -72 79 -65 139 15 309 75 355 126 19 21 19 21 -2 21 -23 0 -30 16 -10 22 7 3 9 14 4 31 -9 36 -47 37 -70 2z"></path><path 
 d="M2098 2075 c-10 -13 -18 -42 -18 -64 0 -43 30 -87 128 -187 38 -40 47 -44 89 -44 42 0 45 1 28 13 -24 18 -10 26 66 37 70 10 88 27 89 82 l0 37 -37 -24 c-20 -14 -39 -23 -42 -20 -3 3 -4 21 -3 40 1 18 -2 36 -8 40 -12 7 -51 -15 -91 -52 l-26 -24 -31 37 c-17 21 -34 50 -37 64 -3 15 -19 37 -36 49 -16 12 -27 26 -24 32 13 21 -31 7 -47 -16z"></path><path 
 d="M2925 1876 c-13 -10 -25 -11 -37 -5 -25 13 -29 0 -28 -93 2 -106 -38 -227 -90 -276 -27 -25 -17 -57 21 -60 16 -1 29 2 29 8 0 20 19 9 37 -20 9 -16 21 -30 25 -30 4 0 8 27 8 59 0 72 15 87 30 31 6 -22 15 -40 21 -40 21 0 49 84 49 151 l0 66 32 -6 c26 -5 39 -18 66 -63 19 -32 36 -75 39 -98 5 -36 23 -58 23 -27 0 6 11 35 23 62 l24 50 6 -47 c4 -27 2 -58 -3 -70 -5 -13 -23 -77 -41 -142 -17 -66 -36 -131 -44 -145 -7 -15 -23 -60 -35 -101 -13 -41 -29 -87 -37 -102 -7 -16 -10 -28 -6 -28 21 0 133 245 173 378 19 61 22 90 18 175 -4 87 -9 113 -37 179 -64 152 -194 247 -266 194z"></path><path 
 d="M1556 1698 c-22 -31 -20 -60 8 -101 l25 -36 -36 -7 c-97 -18 -262 15 -315 63 -11 10 -18 11 -18 5 0 -19 101 -80 153 -93 59 -14 219 -8 241 10 14 12 13 17 -6 54 -11 23 -21 61 -22 84 -1 48 -8 53 -30 21z"></path></g></g><g 
 fill="rgb(122,100,92)" style="transform: none;"><g><path 
 d="M1115 2849 c-66 -5 -163 -16 -215 -25 -52 -9 -122 -15 -155 -13 -122 6 -195 3 -206 -8 -8 -8 40 -13 180 -18 l190 -8 -15 -29 c-37 -71 -23 -209 28 -280 l19 -28 -38 0 c-21 0 -65 7 -98 15 -147 35 -364 -2 -358 -62 2 -14 -9 -30 -30 -46 -18 -14 -41 -45 -51 -69 -10 -23 -27 -63 -38 -88 -25 -55 -78 -204 -78 -218 0 -6 6 -12 14 -14 9 -2 -7 -34 -53 -104 -36 -55 -83 -132 -103 -170 l-37 -70 23 -49 c31 -65 95 -136 167 -186 32 -21 61 -39 65 -39 4 0 -34 38 -82 84 -52 48 -101 105 -117 135 l-28 50 69 113 c148 241 165 266 213 314 40 39 49 44 49 28 0 -11 -19 -38 -41 -59 -52 -50 -99 -122 -92 -141 8 -22 80 -17 160 10 39 13 98 30 130 36 105 21 346 150 280 150 -10 0 -17 -4 -17 -9 0 -16 -220 -84 -342 -105 -34 -6 -38 -5 -44 19 -4 16 0 34 11 51 13 20 14 28 5 34 -15 9 -6 85 17 142 l15 38 34 -30 c34 -29 73 -45 94 -38 6 2 -13 17 -42 34 -29 16 -58 40 -64 52 l-11 22 -20 -23 c-11 -12 -28 -35 -36 -52 -17 -33 -157 -175 -157 -160 0 6 13 51 30 100 16 50 32 103 35 118 3 17 31 53 66 88 l61 60 107 21 106 20 95 -21 c91 -21 99 -21 200 -7 131 20 263 64 312 106 58 48 71 80 66 166 l-3 74 35 5 c19 3 48 8 63 10 l28 5 -6 -53 c-12 -95 37 -207 105 -242 49 -25 54 -17 15 26 -76 84 -110 214 -67 257 9 9 16 25 14 35 -4 20 -13 22 -30 5 -18 -18 -162 -19 -162 -1 0 7 -9 22 -20 33 -22 22 -41 23 -245 9z m189 -23 c32 -13 33 -15 39 -91 8 -94 -4 -143 -47 -183 -31 -30 -171 -92 -206 -92 -10 0 -22 -4 -25 -10 -3 -5 -24 -10 -45 -10 -37 0 -40 3 -65 54 -35 72 -42 144 -21 226 9 36 22 70 29 77 14 13 77 20 93 11 5 -4 16 -3 24 3 8 5 47 9 87 9 39 0 75 5 78 10 8 13 19 13 59 -4z"></path><path 
 d="M2232 2200 c-30 -16 -71 -45 -92 -64 -21 -19 -48 -39 -59 -45 -19 -11 -28 -30 -35 -75 -1 -10 -8 -21 -15 -26 -19 -11 0 -41 61 -93 160 -136 341 -204 438 -163 31 13 30 13 -50 19 -59 4 -96 12 -134 31 -29 14 -58 26 -63 26 -10 0 -34 26 -128 138 -50 58 -52 67 -29 93 8 9 16 24 18 32 3 23 26 46 72 73 l42 25 37 -21 c30 -17 43 -19 64 -11 14 5 42 9 61 8 29 -2 38 -8 53 -37 35 -68 -1 -199 -71 -257 -26 -22 -26 -22 -5 -23 40 0 72 19 100 61 l28 42 16 -69 c17 -75 43 -133 52 -117 4 5 -7 61 -23 123 -17 62 -30 129 -30 150 0 46 -26 134 -43 149 -16 13 -123 18 -154 7 -21 -7 -22 -5 -17 23 6 28 4 31 -17 31 -13 0 -48 -14 -77 -30z"></path><path 
 d="M2035 1460 c-27 -43 178 -109 337 -110 88 0 205 22 250 47 17 10 39 22 49 28 25 13 25 38 0 30 -114 -36 -327 -53 -441 -36 -99 15 -170 33 -170 43 0 12 -18 10 -25 -2z"></path></g></g></svg>