<svg id="svg" version="1.1" xmlns="http://www.w3.org/2000/svg" xmlns:xlink="http://www.w3.org/1999/xlink" width="400" height="284.9407783417936" viewBox="0, 0, 400,284.9407783417936"><g id="svgg"><path id="path0" d="M255.692 18.396 C 254.312 19.146,253.649 20.615,253.854 22.469 C 253.954 23.361,254.152 25.182,254.295 26.515 C 254.439 27.847,254.694 29.629,254.862 30.474 C 255.030 31.318,255.167 32.658,255.167 33.450 C 255.167 34.243,255.293 35.604,255.446 36.476 C 255.879 38.938,256.349 42.645,256.607 45.617 C 256.829 48.165,257.109 50.212,258.133 56.758 C 259.988 68.618,266.816 68.780,269.266 57.021 C 270.547 50.871,271.269 49.323,272.855 49.323 C 275.390 49.323,277.084 53.461,279.553 65.693 C 281.237 74.030,282.678 76.335,285.478 75.165 C 287.710 74.233,288.306 72.091,287.396 68.276 C 287.060 66.868,286.528 64.369,286.214 62.723 C 284.354 52.996,282.722 48.634,279.814 45.622 C 275.301 40.948,270.848 40.218,267.569 43.615 C 266.942 44.265,265.993 45.068,265.460 45.399 L 264.490 46.001 263.963 45.349 C 263.606 44.908,263.433 44.226,263.429 43.233 C 263.425 42.427,263.292 41.254,263.133 40.627 C 262.841 39.478,262.534 36.916,262.017 31.309 C 261.863 29.634,261.609 27.709,261.452 27.033 C 261.296 26.356,261.165 25.160,261.160 24.376 C 261.135 20.128,258.271 16.996,255.692 18.396 M367.047 19.943 C 361.349 21.383,359.758 23.403,362.309 25.954 C 363.848 27.493,364.778 27.593,369.197 26.692 C 376.245 25.254,378.621 26.005,379.669 30.001 C 380.894 34.672,379.938 36.039,370.980 42.437 C 368.692 44.072,363.312 49.608,362.783 50.873 C 362.297 52.036,362.233 54.918,362.667 56.076 C 364.750 61.628,369.937 60.507,369.705 54.554 C 369.613 52.188,370.179 51.525,376.080 47.097 C 384.911 40.470,386.657 38.164,386.837 32.889 C 387.228 21.401,379.994 16.669,367.047 19.943 M120.400 21.946 C 114.075 23.267,109.237 26.466,107.149 30.706 C 105.169 34.729,106.345 37.379,114.754 47.840 C 118.517 52.521,118.571 54.063,115.076 57.005 C 108.980 62.136,104.822 68.138,104.792 71.846 C 104.750 77.274,112.929 85.088,119.743 86.129 C 126.641 87.183,135.791 83.244,142.480 76.339 C 145.672 73.045,145.688 72.996,145.688 66.448 C 145.688 59.110,145.154 57.695,140.676 53.158 C 137.696 50.139,137.695 50.118,140.513 46.235 C 142.626 43.323,142.965 42.053,142.780 37.738 C 142.593 33.353,142.013 32.228,137.636 27.756 C 131.996 21.994,127.471 20.469,120.400 21.946 M128.685 29.374 C 134.147 31.061,137.543 38.009,135.021 42.338 C 131.455 48.461,125.544 50.528,122.562 46.694 C 122.040 46.023,120.944 44.704,120.126 43.763 C 113.170 35.757,112.367 32.480,116.885 30.537 C 121.681 28.473,124.779 28.168,128.685 29.374 M332.078 35.633 C 327.346 36.480,324.448 39.161,324.448 42.691 C 324.448 46.476,327.962 50.370,334.373 53.689 C 340.543 56.883,340.447 57.537,333.270 61.172 C 327.363 64.164,325.561 66.009,326.449 68.153 C 327.318 70.251,329.356 70.687,332.026 69.344 C 332.954 68.877,334.700 68.085,335.906 67.585 C 341.387 65.311,347.256 59.478,347.256 56.306 C 347.256 53.582,343.735 50.140,338.916 48.153 C 334.934 46.511,333.001 45.129,333.001 43.925 C 333.001 42.565,333.766 42.373,339.843 42.206 C 344.585 42.075,345.515 41.976,346.167 41.534 C 348.505 39.947,348.304 37.378,345.734 35.998 C 344.710 35.448,334.620 35.178,332.078 35.633 M296.446 38.942 C 291.790 40.375,289.447 45.237,290.503 51.277 C 291.701 58.135,291.976 58.720,295.655 62.266 C 299.285 65.766,300.177 66.138,304.964 66.141 C 313.169 66.147,319.436 62.865,317.794 59.422 C 316.692 57.110,315.293 56.929,309.907 58.402 C 305.110 59.713,302.140 59.546,301.737 57.941 C 301.530 57.117,301.746 56.893,304.806 54.741 C 307.879 52.579,314.139 46.273,314.484 44.990 C 315.101 42.701,313.701 40.164,311.190 39.021 C 309.674 38.330,298.627 38.271,296.446 38.942 M172.333 39.305 C 169.941 40.764,168.525 51.480,169.634 59.729 C 169.823 61.140,170.077 63.450,170.199 64.861 C 170.519 68.596,171.854 76.381,172.382 77.595 C 173.865 81.001,177.260 81.513,178.676 78.544 C 179.183 77.480,179.201 77.748,178.186 71.418 C 177.342 66.156,177.049 64.002,177.049 63.061 C 177.049 62.483,176.857 61.004,176.621 59.775 C 176.036 56.717,176.052 49.694,176.651 46.816 C 177.777 41.406,175.470 37.392,172.333 39.305 M195.573 42.103 C 195.185 42.366,194.369 43.023,193.759 43.564 C 192.704 44.499,192.581 44.536,191.193 44.336 C 186.309 43.631,185.887 44.486,185.887 55.107 C 185.887 64.619,186.157 66.393,187.883 68.244 C 190.199 70.727,194.151 68.198,194.157 64.229 C 194.160 61.832,196.691 51.578,197.501 50.677 C 198.475 49.595,199.832 50.636,202.178 54.266 C 205.315 59.120,205.982 62.806,204.845 69.002 C 204.070 73.229,204.693 75.583,206.861 76.616 C 210.362 78.286,212.255 73.431,212.058 63.293 L 211.949 57.733 210.356 54.597 C 207.907 49.778,202.036 42.793,199.683 41.898 C 198.541 41.464,196.355 41.573,195.573 42.103 M237.634 43.391 C 229.679 44.590,226.190 46.292,222.362 50.840 C 217.002 57.208,219.703 67.036,227.940 71.137 L 229.651 71.989 236.208 71.989 C 243.282 71.989,244.449 71.768,246.232 70.093 C 248.845 67.638,246.622 64.476,242.538 64.838 C 232.332 65.742,229.143 65.074,227.487 61.686 C 224.812 56.214,229.165 51.441,237.716 50.470 C 243.402 49.824,245.618 45.632,241.425 43.451 C 240.584 43.013,240.183 43.007,237.634 43.391 M303.473 45.710 C 304.509 46.467,302.042 49.000,299.355 49.937 C 296.961 50.771,296.582 46.954,298.931 45.662 C 299.737 45.219,302.846 45.251,303.473 45.710 M134.353 57.132 C 137.791 58.777,138.849 60.966,138.839 66.413 C 138.829 71.692,138.289 72.362,130.392 76.887 C 123.396 80.896,114.845 79.055,112.336 73.000 C 110.947 69.646,116.921 62.945,125.303 58.453 C 130.256 55.798,131.259 55.652,134.353 57.132 M365.399 69.412 C 363.798 70.895,363.799 72.433,365.400 73.839 C 368.248 76.339,371.758 72.383,369.129 69.636 C 367.993 68.450,366.531 68.362,365.399 69.412 M19.244 73.766 C 17.397 74.226,16.498 75.698,15.835 79.353 C 15.409 81.703,14.257 85.547,9.923 99.073 C 6.901 108.505,6.760 109.750,8.520 111.509 C 10.101 113.090,11.580 112.946,13.176 111.057 C 14.060 110.009,22.158 84.669,23.217 79.635 C 23.800 76.864,22.552 73.842,20.826 73.842 C 20.687 73.842,20.403 73.793,20.194 73.733 C 19.986 73.673,19.558 73.688,19.244 73.766 M319.743 88.432 C 317.179 89.492,315.587 89.798,313.479 89.636 C 310.975 89.445,310.117 89.912,308.935 92.112 C 308.469 92.979,306.714 95.096,304.933 96.939 C 300.617 101.406,297.123 108.240,296.076 114.259 C 295.300 118.719,295.135 118.944,292.805 118.701 C 290.725 118.484,289.200 119.678,287.921 122.528 C 286.757 125.120,286.580 125.100,283.773 122.072 C 279.694 117.671,277.657 117.911,274.179 123.204 C 272.270 126.108,270.995 125.499,269.675 121.054 C 268.132 115.857,265.015 114.722,262.998 118.623 C 261.448 121.619,264.082 128.316,268.506 132.633 C 272.304 136.338,273.917 136.353,277.351 132.715 C 279.847 130.071,279.477 130.022,282.735 133.428 C 286.712 137.585,288.207 137.812,291.058 134.692 C 292.596 133.010,293.418 131.184,293.944 128.282 C 294.678 124.238,295.649 123.937,297.586 127.156 C 302.021 134.529,315.702 137.855,324.091 133.600 C 328.717 131.254,334.321 124.322,336.259 118.549 C 338.695 111.292,335.552 101.768,328.932 96.347 C 325.558 93.584,325.588 93.623,325.587 91.993 C 325.584 88.541,323.118 87.038,319.743 88.432 M24.661 91.101 C 21.238 92.838,22.142 96.025,26.777 98.557 C 27.809 99.120,29.936 100.320,31.504 101.222 C 33.072 102.124,35.740 103.513,37.433 104.309 C 39.126 105.104,41.691 106.449,43.135 107.297 C 44.578 108.145,47.876 109.898,50.463 111.192 C 53.051 112.487,55.873 113.998,56.736 114.550 C 57.598 115.103,60.613 116.716,63.435 118.134 C 66.258 119.553,69.268 121.158,70.123 121.701 C 70.979 122.243,73.288 123.448,75.255 124.377 C 77.222 125.307,79.986 126.745,81.397 127.574 C 82.808 128.403,86.042 130.122,88.583 131.393 C 91.125 132.664,94.049 134.222,95.083 134.854 C 96.116 135.487,99.105 137.094,101.724 138.425 C 112.991 144.152,114.079 144.826,115.092 146.708 C 116.677 149.653,117.351 150.056,120.299 149.823 L 122.781 149.627 127.748 152.113 C 130.480 153.481,133.396 155.035,134.228 155.567 C 135.060 156.099,138.316 157.824,141.465 159.400 C 144.613 160.975,147.673 162.570,148.265 162.944 C 148.857 163.318,151.823 164.872,154.856 166.397 C 157.889 167.923,161.180 169.664,162.169 170.266 C 163.158 170.868,166.799 172.778,170.260 174.510 C 173.721 176.242,177.081 178.000,177.727 178.418 C 178.908 179.180,186.026 182.882,202.718 191.413 C 207.663 193.941,212.090 196.282,212.554 196.617 C 214.330 197.895,278.577 229.692,282.822 231.394 C 283.841 231.802,285.316 232.462,286.101 232.860 C 289.234 234.450,300.061 238.835,306.344 241.058 C 308.696 241.891,313.053 243.428,316.027 244.475 C 324.601 247.493,324.462 246.885,318.849 256.736 C 318.223 257.833,317.092 259.822,316.335 261.155 C 314.814 263.832,312.403 267.471,310.889 269.374 C 309.581 271.018,309.520 272.654,310.719 273.938 C 313.621 277.044,317.211 273.626,324.448 260.870 C 325.027 259.850,326.209 257.798,327.077 256.308 C 327.944 254.818,328.989 252.932,329.399 252.117 C 329.809 251.301,330.622 250.275,331.204 249.836 C 334.019 247.714,334.426 247.124,334.426 245.158 C 334.426 243.264,336.249 239.157,339.315 234.145 C 341.697 230.251,341.886 228.633,340.162 226.909 C 337.961 224.708,335.680 226.069,333.014 231.175 C 327.805 241.151,327.653 241.271,322.655 239.313 C 321.210 238.747,317.655 237.474,314.754 236.484 C 307.868 234.134,301.623 231.839,298.076 230.356 C 296.507 229.700,294.605 228.917,293.847 228.615 C 293.089 228.314,291.742 227.701,290.853 227.254 C 289.964 226.806,288.109 225.974,286.729 225.404 C 279.793 222.539,276.835 220.658,276.835 219.112 C 276.835 218.115,280.286 207.662,281.679 204.438 C 282.966 201.462,282.560 199.619,280.393 198.591 C 277.580 197.256,275.301 200.265,272.312 209.266 C 270.223 215.557,269.781 216.393,268.548 216.393 C 267.755 216.393,213.117 189.338,210.131 187.466 C 209.577 187.119,207.952 186.232,206.520 185.494 C 203.303 183.838,202.841 183.371,202.961 181.896 C 202.980 181.661,204.278 179.741,205.845 177.631 C 209.237 173.065,209.489 172.084,207.726 170.321 C 205.581 168.176,203.965 169.087,199.561 174.926 C 195.778 179.942,195.554 180.051,192.587 178.332 C 191.646 177.787,187.813 175.791,184.069 173.897 C 180.325 172.003,176.733 170.113,176.087 169.697 C 175.440 169.281,171.832 167.347,168.068 165.400 C 164.305 163.452,158.595 160.497,155.378 158.834 C 152.162 157.170,149.147 155.536,148.679 155.202 C 148.210 154.868,145.709 153.539,143.122 152.249 C 140.535 150.958,137.391 149.287,136.137 148.536 C 134.882 147.784,132.471 146.496,130.778 145.673 C 125.936 143.319,125.870 143.099,128.614 138.530 C 133.307 130.715,134.301 127.402,132.494 125.594 C 130.117 123.218,128.013 124.694,124.836 130.968 C 121.563 137.430,120.452 138.845,118.653 138.845 C 117.748 138.845,110.828 135.533,107.056 133.294 C 105.802 132.550,102.723 130.913,100.214 129.656 C 97.705 128.400,94.733 126.816,93.609 126.135 C 92.485 125.455,89.983 124.127,88.049 123.184 C 86.115 122.242,83.507 120.879,82.252 120.156 C 80.998 119.433,78.304 118.002,76.265 116.977 C 70.411 114.032,70.085 113.588,71.793 110.890 C 75.066 105.722,75.405 104.220,73.690 102.504 C 71.647 100.461,69.681 101.512,66.389 106.405 C 63.708 110.390,62.364 110.325,55.406 105.874 C 54.512 105.302,51.912 103.934,49.627 102.833 C 47.343 101.733,44.793 100.401,43.961 99.875 C 43.128 99.348,39.664 97.503,36.263 95.774 C 32.861 94.045,29.265 92.188,28.272 91.647 C 26.240 90.541,25.874 90.485,24.661 91.101 M353.474 92.470 C 347.942 94.030,348.052 99.501,353.615 99.501 C 356.993 99.501,357.388 100.357,355.628 103.856 C 354.091 106.910,352.570 109.013,350.901 110.390 C 345.621 114.748,344.958 117.327,348.792 118.593 C 352.531 119.827,362.832 108.314,364.375 101.175 C 365.583 95.590,359.536 90.760,353.474 92.470 M230.329 93.584 C 227.794 94.472,226.603 95.445,225.260 97.728 C 224.640 98.782,223.217 100.542,222.099 101.639 C 214.067 109.523,211.790 118.769,215.781 127.298 C 218.393 132.878,226.727 140.912,232.359 143.276 C 241.533 147.128,256.442 138.207,256.440 128.867 C 256.436 113.942,243.766 93.609,234.113 93.036 C 232.650 92.949,231.785 93.075,230.329 93.584 M321.084 99.699 C 325.963 101.736,327.350 103.273,329.160 108.647 C 330.701 113.225,330.493 114.814,327.598 120.571 C 323.811 128.102,316.946 130.280,307.793 126.856 C 301.376 124.454,300.981 117.023,306.687 106.006 C 310.486 98.668,314.454 96.930,321.084 99.699 M236.493 101.291 C 243.056 104.585,251.284 124.868,248.594 131.121 C 246.827 135.229,239.588 138.150,234.742 136.711 C 231.453 135.734,226.597 131.605,224.025 127.598 C 218.903 119.617,220.092 113.190,228.301 104.490 C 232.402 100.145,233.418 99.748,236.493 101.291 M373.329 106.196 C 372.064 107.537,371.925 108.412,372.626 110.608 C 373.533 113.446,372.857 114.669,369.066 117.053 C 361.748 121.657,359.198 125.889,361.588 129.466 C 363.504 132.334,365.874 131.704,367.632 127.861 C 368.594 125.757,369.239 125.092,371.912 123.450 C 373.919 122.216,379.046 116.999,379.681 115.543 C 382.017 110.196,376.799 102.517,373.329 106.196 M346.517 127.160 C 344.389 128.524,344.278 130.654,346.255 132.163 C 347.821 133.357,350.176 132.842,351.147 131.093 C 352.621 128.438,349.139 125.480,346.517 127.160 M357.017 138.274 C 355.056 139.470,354.796 141.487,356.400 143.056 C 357.867 144.489,359.401 144.444,360.998 142.921 C 363.586 140.453,360.106 136.391,357.017 138.274 " stroke="none" fill="#090909" fill-rule="evenodd"></path></g></svg>