<svg id="svg" version="1.1" xmlns="http://www.w3.org/2000/svg" xmlns:xlink="http://www.w3.org/1999/xlink" width="400" height="461.1111111111111" viewBox="0, 0, 400,461.1111111111111"><g id="svgg"><path id="path0" d="M276.530 41.784 C 274.732 42.566,274.115 43.792,273.903 47.000 C 273.398 54.658,250.987 84.994,232.922 102.474 C 228.235 107.010,227.892 106.991,220.800 101.825 C 216.789 98.902,208.802 94.633,205.400 93.592 C 204.520 93.322,200.739 92.989,196.998 92.850 L 190.196 92.598 184.398 89.687 C 175.000 84.969,169.105 84.253,155.607 86.188 C 142.611 88.051,139.522 90.688,141.604 98.144 C 143.586 105.245,143.438 105.515,136.131 108.046 C 130.129 110.126,131.516 110.717,115.678 99.340 C 110.571 95.672,100.953 91.355,93.800 89.522 C 90.373 88.644,72.172 87.984,68.124 88.591 C 65.685 88.956,64.189 90.430,63.830 92.821 C 63.683 93.799,62.818 96.084,61.908 97.899 L 60.254 101.197 60.745 116.299 C 61.482 138.970,62.391 144.393,68.089 160.152 C 72.312 171.830,73.346 173.998,84.320 194.191 C 89.914 204.484,89.736 205.058,80.593 206.208 C 71.938 207.297,69.434 208.285,67.567 211.346 C 65.914 214.058,66.436 215.295,71.383 220.400 C 77.407 226.616,80.406 231.285,79.649 233.265 C 79.109 234.677,78.352 235.210,71.200 239.203 C 59.530 245.718,57.663 247.529,55.947 254.000 C 54.144 260.797,54.210 260.931,61.737 265.695 C 74.721 273.912,74.789 274.014,69.574 277.540 C 62.207 282.520,60.200 285.573,62.595 288.157 C 63.726 289.378,73.736 294.266,80.908 297.100 C 88.843 300.235,89.514 301.337,86.141 305.687 C 85.166 306.945,83.946 308.925,83.431 310.087 C 81.870 313.607,80.879 314.171,75.188 314.787 C 67.189 315.651,65.200 316.568,65.200 319.387 C 65.200 322.536,68.804 323.083,79.503 321.561 C 90.205 320.038,93.135 320.777,97.192 326.022 C 98.712 327.986,100.888 330.145,102.869 331.653 C 107.268 335.001,107.438 335.483,106.125 340.892 C 104.084 349.300,107.058 353.423,114.600 352.640 C 124.200 351.643,124.226 351.650,125.615 355.884 C 129.261 367.000,137.516 378.711,144.215 382.273 C 147.444 383.989,148.476 385.148,148.483 387.067 C 148.504 393.042,151.317 393.672,161.600 390.004 C 172.870 385.984,182.570 378.498,190.806 367.462 C 198.506 357.144,197.939 357.335,205.679 362.452 C 211.245 366.133,212.892 366.432,215.613 364.257 C 216.596 363.472,218.660 362.072,220.200 361.147 C 226.849 357.153,231.622 350.110,235.208 339.000 C 237.289 332.554,238.055 331.787,243.400 330.791 C 244.720 330.545,247.240 329.924,249.000 329.410 C 250.760 328.897,253.905 328.094,255.989 327.625 C 262.673 326.122,263.568 323.367,258.482 319.949 C 253.799 316.801,254.098 314.719,259.650 311.801 C 263.883 309.577,265.239 309.678,271.818 312.706 C 285.816 319.148,294.800 320.136,294.800 315.236 C 294.800 313.265,293.081 312.236,287.722 310.996 C 280.813 309.398,279.981 308.832,279.001 305.068 C 277.804 300.473,276.254 297.749,274.071 296.406 C 270.016 293.911,270.315 293.644,287.481 284.435 C 307.478 273.707,310.348 270.265,303.921 264.714 C 296.249 258.088,296.415 257.468,306.618 254.668 C 314.668 252.459,315.552 252.098,316.432 250.654 C 317.908 248.234,317.001 246.323,313.546 244.573 C 310.873 243.218,309.009 241.461,304.370 235.926 C 297.987 228.307,298.031 228.692,302.444 219.400 C 305.876 212.174,306.931 209.552,310.043 200.521 C 312.387 193.718,312.518 192.004,310.812 190.411 C 308.458 188.212,305.278 188.087,299.837 189.979 C 293.696 192.114,292.670 190.416,294.402 180.989 C 294.991 177.785,295.137 175.817,294.951 173.592 C 294.710 170.706,294.769 170.400,296.176 167.201 C 302.972 151.743,304.583 99.544,298.851 80.485 C 298.209 78.348,297.372 75.520,296.992 74.200 C 296.167 71.333,291.773 62.655,287.390 55.235 L 284.221 49.869 284.011 46.102 C 283.737 41.211,281.206 39.750,276.530 41.784 M280.783 59.182 C 282.883 61.430,288.985 72.632,290.163 76.400 C 296.037 95.196,296.788 116.256,292.758 149.199 C 291.169 162.183,290.978 162.931,288.137 167.224 C 286.623 169.511,286.342 171.003,287.039 173.054 C 288.077 176.110,286.322 177.995,285.134 175.100 C 284.067 172.502,279.433 163.695,276.872 159.400 C 268.232 144.910,260.922 134.592,254.727 128.143 C 249.956 123.177,249.979 123.339,253.224 117.192 C 256.666 110.672,261.367 100.953,262.217 98.600 C 262.615 97.500,263.739 94.800,264.715 92.600 C 265.691 90.400,267.279 86.456,268.243 83.836 C 269.207 81.216,270.530 77.886,271.182 76.436 C 273.165 72.028,276.296 63.503,276.590 61.712 C 277.154 58.265,278.928 57.196,280.783 59.182 M258.400 88.352 C 258.400 94.677,246.381 117.162,234.903 132.310 C 226.627 143.231,225.518 145.520,227.462 147.669 C 229.547 149.972,231.618 148.445,238.051 139.860 C 244.593 131.131,245.502 130.485,248.574 132.384 C 252.332 134.706,267.505 156.749,274.592 170.182 C 276.553 173.897,277.124 175.401,278.962 181.683 C 279.687 184.161,280.605 185.122,283.443 186.378 C 287.261 188.067,286.803 192.843,282.608 195.070 C 274.941 199.141,278.981 203.602,288.017 201.042 C 301.781 197.142,302.156 197.089,302.626 198.959 C 302.998 200.444,300.614 207.579,297.591 214.024 C 290.772 228.563,290.980 231.496,299.544 241.581 C 304.434 247.340,304.112 247.850,293.400 251.311 C 290.320 252.307,287.214 253.243,286.499 253.393 C 280.982 254.544,281.416 262.000,287.000 262.000 C 289.515 262.000,296.128 266.578,296.657 268.686 C 297.235 270.986,296.659 271.412,283.400 278.492 C 234.231 304.746,230.314 306.348,209.941 308.540 C 205.636 309.003,204.414 309.301,201.741 310.537 C 195.468 313.437,175.016 314.508,157.600 312.847 C 155.290 312.627,151.150 312.244,148.400 311.996 C 144.493 311.644,142.394 311.210,138.800 310.011 C 136.270 309.167,132.400 307.993,130.200 307.402 C 115.251 303.389,104.450 299.903,95.807 296.303 C 93.163 295.202,88.930 293.452,86.400 292.414 C 72.030 286.520,71.005 285.258,77.600 281.579 C 88.698 275.387,88.505 274.801,71.815 264.029 C 61.284 257.232,60.803 256.613,63.469 253.296 C 65.862 250.320,80.442 241.747,85.492 240.346 C 90.478 238.963,91.190 237.326,88.852 232.623 C 87.332 229.565,82.325 221.745,79.571 218.129 C 77.117 214.906,78.234 213.881,85.200 212.960 C 93.293 211.891,94.971 211.560,96.233 210.779 C 98.089 209.632,98.604 208.116,97.996 205.583 C 97.324 202.780,97.646 199.845,98.935 197.030 C 100.299 194.049,100.738 194.391,101.277 198.855 C 102.300 207.312,107.924 207.659,108.765 199.317 C 109.199 195.014,110.362 193.200,112.689 193.200 C 114.993 193.200,115.046 193.494,115.326 207.834 C 115.929 238.602,118.542 245.151,131.745 248.974 C 140.060 251.381,143.390 249.890,147.094 242.096 L 148.855 238.392 150.626 224.296 C 155.089 188.775,153.726 183.796,138.609 180.416 C 123.615 177.064,118.440 177.366,108.904 182.148 C 103.229 184.994,102.800 185.018,102.801 182.500 C 102.802 177.062,111.481 152.378,115.025 147.732 C 116.688 145.551,117.721 145.876,119.377 149.100 C 126.118 162.221,127.435 163.316,134.700 161.844 C 142.554 160.253,147.687 157.011,161.510 144.910 C 167.435 139.723,168.400 138.479,168.400 136.026 C 168.400 133.127,169.020 132.595,173.584 131.570 C 180.815 129.947,188.444 125.303,189.592 121.825 C 190.732 118.369,187.210 116.306,183.956 118.524 C 183.210 119.033,181.669 120.120,180.530 120.940 C 175.729 124.400,165.100 126.217,161.264 124.233 C 156.910 121.981,163.056 114.818,175.661 107.455 C 192.637 97.538,202.747 97.400,215.758 106.908 C 222.267 111.665,222.484 112.669,217.674 115.752 C 213.550 118.396,212.267 120.582,213.700 122.525 C 217.047 127.062,229.121 118.231,246.409 98.600 C 255.097 88.735,258.400 85.912,258.400 88.352 M173.920 93.006 C 181.004 94.676,180.842 96.262,173.149 100.575 L 168.200 103.349 162.600 103.649 C 151.183 104.260,150.757 104.127,149.417 99.516 C 148.120 95.058,149.175 94.400,160.400 92.664 C 163.121 92.243,171.593 92.457,173.920 93.006 M92.600 96.663 C 100.771 98.016,105.535 100.429,117.481 109.264 C 124.684 114.591,125.178 115.622,122.535 119.800 C 120.459 123.081,119.469 123.003,114.800 119.195 C 108.951 114.424,98.978 108.258,87.650 102.410 C 83.590 100.315,80.077 98.290,79.843 97.911 C 78.491 95.719,83.774 95.202,92.600 96.663 M75.949 104.620 C 88.000 108.647,109.213 122.203,114.390 129.186 C 117.104 132.848,117.066 133.550,114.002 136.383 C 110.019 140.065,101.787 158.604,97.832 172.800 C 92.296 192.670,91.857 193.015,86.024 182.082 C 72.958 157.592,69.243 145.319,68.385 123.800 C 67.496 101.517,67.399 101.763,75.949 104.620 M154.778 112.778 C 155.672 113.672,155.545 114.376,153.813 118.097 C 152.331 121.282,151.618 127.957,152.600 129.456 C 153.419 130.705,155.107 131.420,158.090 131.779 C 163.838 132.472,163.204 133.925,153.557 142.171 C 136.240 156.974,132.126 157.901,127.130 148.129 C 123.961 141.928,123.654 136.817,126.006 129.400 C 129.160 119.452,134.949 114.557,145.623 112.814 C 147.260 112.547,148.870 112.275,149.200 112.210 C 151.396 111.780,154.050 112.050,154.778 112.778 M217.600 167.727 C 211.422 169.167,192.351 177.736,189.485 180.358 C 187.997 181.720,187.316 184.309,186.793 190.600 C 186.555 193.460,186.181 196.970,185.962 198.400 C 183.561 214.059,186.590 233.681,192.342 239.734 C 197.780 245.456,215.602 245.913,221.337 240.477 C 226.971 235.136,227.276 211.037,221.982 189.361 C 219.933 180.970,220.452 180.397,229.000 181.615 C 237.863 182.877,241.762 185.928,243.553 193.000 C 245.526 200.792,251.513 200.170,250.629 192.264 C 250.477 190.909,250.224 187.715,250.066 185.166 C 249.707 179.383,249.571 179.163,244.076 175.519 C 233.994 168.834,224.648 166.083,217.600 167.727 M211.854 183.783 C 215.344 186.227,218.811 208.405,218.319 225.130 C 217.999 236.018,216.911 237.103,206.747 236.663 C 200.394 236.388,199.182 236.104,197.500 234.500 C 193.883 231.049,191.625 216.781,192.769 204.600 C 193.017 201.960,193.412 197.644,193.647 195.009 C 194.186 188.956,194.548 188.246,197.852 186.748 C 204.703 183.641,210.039 182.511,211.854 183.783 M139.992 189.236 C 146.009 190.526,146.592 195.181,143.819 219.786 C 141.451 240.793,140.681 242.728,134.850 242.311 C 125.287 241.627,122.710 233.884,122.633 205.600 C 122.592 190.967,122.760 190.444,127.887 189.237 C 130.061 188.725,137.606 188.724,139.992 189.236 M157.491 232.132 C 153.613 233.336,150.799 237.640,151.563 241.200 C 153.625 250.816,163.806 250.833,166.393 241.226 C 167.920 235.555,162.920 230.446,157.491 232.132 M149.862 278.331 C 148.286 280.073,148.940 281.921,152.300 285.217 C 157.687 290.502,161.762 291.852,167.357 290.204 C 170.288 289.341,171.838 289.537,175.623 291.252 C 182.185 294.223,190.765 291.502,195.145 285.060 C 199.039 279.333,194.453 276.700,188.800 281.417 C 183.796 285.591,181.085 286.096,176.000 283.800 C 172.491 282.216,169.948 282.000,166.636 283.004 C 162.855 284.151,161.565 283.845,158.200 281.000 C 154.153 277.579,151.354 276.683,149.862 278.331 M261.367 300.526 C 262.945 301.680,262.198 302.418,256.898 304.944 C 253.593 306.519,246.518 311.469,245.009 313.262 C 243.655 314.872,243.719 316.493,245.232 318.850 C 246.755 321.224,246.640 321.980,244.600 323.000 C 242.518 324.041,234.822 324.077,230.675 323.065 C 222.860 321.158,219.352 325.444,225.986 328.793 C 230.158 330.899,230.305 331.628,228.002 338.743 C 225.169 347.497,221.653 352.262,215.887 355.167 C 211.133 357.561,208.162 356.666,200.345 350.485 C 193.885 345.377,191.710 345.775,191.203 352.161 C 190.728 358.147,181.071 369.764,170.026 377.638 C 162.045 383.328,159.660 383.781,154.600 380.568 C 152.840 379.451,150.326 377.921,149.013 377.168 C 146.127 375.513,141.188 370.729,140.037 368.472 C 138.537 365.532,138.989 364.400,141.663 364.400 C 143.129 364.400,145.201 362.483,145.198 361.131 C 145.194 359.784,144.413 358.471,141.445 354.826 C 138.700 351.453,137.501 349.430,137.043 347.400 C 135.929 342.459,133.947 341.927,123.727 343.828 C 116.559 345.160,115.122 345.216,114.001 344.201 C 112.053 342.438,113.627 338.975,117.275 337.000 C 120.305 335.360,120.800 334.880,120.800 333.584 C 120.800 331.043,119.701 330.279,114.824 329.428 C 108.016 328.239,104.698 325.269,104.400 320.096 C 104.161 315.956,103.305 315.039,99.280 314.609 C 95.084 314.162,94.316 313.952,93.355 312.992 C 91.799 311.435,92.094 310.142,94.547 307.766 C 97.681 304.730,97.802 304.730,107.194 307.798 C 111.641 309.251,118.677 311.415,122.829 312.608 C 126.980 313.801,131.427 315.307,132.710 315.954 C 135.946 317.588,138.678 318.283,143.800 318.776 C 146.220 319.009,151.080 319.514,154.600 319.898 C 172.545 321.855,204.846 320.116,212.436 316.784 C 213.980 316.107,216.808 315.282,218.721 314.951 C 226.035 313.688,236.573 310.369,241.902 307.650 C 242.797 307.193,244.850 306.287,246.465 305.637 C 248.079 304.986,251.560 303.451,254.200 302.227 C 259.234 299.891,260.188 299.665,261.367 300.526 M302.047 340.652 C 300.127 341.997,300.082 342.527,300.237 362.200 C 300.602 408.478,300.871 411.333,304.868 411.333 C 307.581 411.333,308.763 407.968,308.274 401.632 C 307.709 394.306,309.227 393.230,316.213 396.005 C 319.909 397.473,321.316 397.520,322.618 396.218 C 324.606 394.231,323.497 392.464,318.642 389.880 C 313.024 386.890,312.994 386.572,317.586 378.823 C 321.415 372.363,322.067 370.418,320.920 368.875 C 319.135 366.474,316.308 367.717,313.565 372.111 C 308.554 380.135,307.969 378.866,307.591 359.162 C 307.278 342.832,307.118 341.592,305.187 340.593 C 303.725 339.837,303.196 339.847,302.047 340.652 M269.800 344.831 C 268.700 345.268,266.480 345.984,264.867 346.423 C 257.082 348.542,250.762 354.135,246.589 362.600 C 242.129 371.646,242.955 386.788,248.410 395.970 C 251.150 400.582,250.985 401.735,246.854 406.869 C 242.821 411.882,242.330 414.539,245.249 415.557 C 247.513 416.346,249.077 415.368,252.648 410.928 C 257.063 405.439,257.271 405.358,263.275 406.797 C 282.284 411.354,302.010 389.518,296.065 370.499 C 294.189 364.499,289.365 357.369,282.413 350.325 C 276.169 343.998,274.134 343.111,269.800 344.831 M274.600 353.547 C 277.520 354.878,284.299 362.944,287.298 368.657 C 291.119 375.934,290.016 386.422,284.892 391.546 C 278.979 397.459,273.821 400.185,268.529 400.194 C 262.208 400.204,261.145 398.467,263.976 392.752 C 267.474 385.690,263.241 382.595,258.435 388.700 C 255.738 392.126,253.495 391.371,252.179 386.595 C 251.162 382.902,250.912 372.145,251.766 368.800 C 254.354 358.662,267.118 350.137,274.600 353.547 M344.697 369.634 C 343.687 370.222,342.648 372.502,341.615 376.400 C 339.863 383.007,338.569 383.669,335.313 379.624 C 332.723 376.405,330.458 375.233,328.571 376.133 C 325.683 377.510,326.388 380.111,331.468 386.820 C 337.180 394.365,337.053 393.929,335.195 399.614 C 330.847 412.921,326.097 415.792,298.567 421.756 C 289.222 423.781,287.600 424.614,287.600 427.388 C 287.600 429.371,289.371 430.491,292.200 430.294 C 294.262 430.151,311.497 426.324,313.483 425.568 C 314.098 425.334,316.580 424.610,319.000 423.959 C 332.289 420.385,337.171 415.267,342.622 399.200 C 344.592 393.393,349.600 374.145,349.600 372.380 C 349.600 369.931,346.841 368.385,344.697 369.634 " stroke="none" fill="#1e1e1e" fill-rule="evenodd"></path></g></svg>