<svg id="svg" version="1.1" xmlns="http://www.w3.org/2000/svg" xmlns:xlink="http://www.w3.org/1999/xlink" width="400" height="409.5238095238095" viewBox="0, 0, 400,409.5238095238095"><g id="svgg"><path id="path0" d="M276.600 56.669 C 265.504 59.110,263.199 70.950,270.578 87.600 C 271.309 89.250,272.920 92.940,274.158 95.800 C 277.322 103.111,278.988 106.514,281.211 110.207 C 285.853 117.918,291.822 131.062,291.416 132.678 C 290.619 135.855,279.566 128.587,262.355 113.571 C 255.713 107.775,239.479 95.993,227.400 88.201 C 224.760 86.498,220.195 83.505,217.256 81.550 C 205.993 74.058,201.212 72.837,196.697 76.297 C 193.711 78.587,192.826 82.057,194.366 85.448 C 196.371 89.863,207.620 104.930,214.359 112.227 C 217.739 115.887,223.637 122.643,226.264 125.865 C 227.549 127.441,230.407 130.771,232.616 133.265 C 234.824 135.759,237.973 139.420,239.612 141.400 C 241.251 143.380,243.494 146.007,244.596 147.237 C 245.698 148.467,249.210 152.684,252.400 156.609 C 255.590 160.533,259.204 164.926,260.432 166.372 C 264.448 171.102,275.716 185.257,280.992 192.200 C 283.834 195.940,287.895 201.160,290.016 203.800 C 292.136 206.440,295.634 211.030,297.788 214.000 C 299.943 216.970,303.453 221.740,305.589 224.600 C 307.724 227.460,312.253 233.580,315.653 238.200 C 321.092 245.592,323.501 248.943,330.210 258.454 C 331.085 259.693,335.398 265.723,339.795 271.854 C 350.500 286.778,354.012 293.200,351.470 293.200 C 350.395 293.200,344.414 289.344,341.200 286.578 C 339.990 285.536,336.480 282.638,333.400 280.137 C 330.320 277.636,326.810 274.772,325.600 273.773 C 320.225 269.335,312.819 263.148,309.458 260.290 C 304.939 256.447,292.097 245.772,288.419 242.800 C 285.040 240.071,279.164 235.081,275.200 231.576 C 273.550 230.117,270.220 227.336,267.800 225.397 C 265.380 223.457,262.384 220.937,261.142 219.795 C 259.900 218.654,257.470 216.577,255.742 215.180 C 254.014 213.782,250.800 211.031,248.600 209.065 C 246.400 207.099,243.250 204.459,241.600 203.197 C 239.950 201.935,238.240 200.497,237.800 200.001 C 237.360 199.506,235.650 198.000,234.000 196.656 C 232.350 195.311,228.210 191.772,224.800 188.791 C 221.390 185.809,217.520 182.544,216.200 181.534 C 214.880 180.524,213.440 179.289,213.000 178.789 C 212.560 178.290,210.220 176.192,207.800 174.127 C 205.380 172.062,201.420 168.659,199.000 166.564 C 196.580 164.470,192.530 161.017,190.000 158.891 C 187.470 156.764,184.037 153.759,182.371 152.212 C 180.705 150.666,177.645 147.934,175.571 146.142 C 173.497 144.350,170.360 141.607,168.600 140.045 C 166.840 138.484,162.975 135.090,160.011 132.503 C 157.047 129.916,153.447 126.567,152.011 125.060 C 150.575 123.552,147.960 121.150,146.200 119.720 C 143.224 117.303,133.404 108.227,122.446 97.765 C 119.890 95.326,116.180 92.000,114.200 90.375 C 112.220 88.750,109.336 86.246,107.791 84.810 C 105.253 82.452,98.088 76.200,91.818 70.874 C 84.398 64.570,78.192 63.972,76.404 69.387 C 75.084 73.387,75.660 74.059,108.812 107.199 C 124.989 123.370,139.182 137.770,140.353 139.200 C 141.524 140.630,146.469 145.849,151.341 150.798 C 156.214 155.746,160.902 160.696,161.760 161.798 C 162.618 162.899,166.049 166.590,169.384 170.000 C 172.720 173.410,176.455 177.460,177.686 179.000 C 178.916 180.540,181.576 183.420,183.595 185.400 C 185.615 187.380,188.095 190.080,189.106 191.400 C 190.118 192.720,192.860 195.780,195.199 198.200 C 197.539 200.620,200.641 204.040,202.093 205.800 C 203.544 207.560,205.576 209.810,206.608 210.800 C 207.640 211.790,209.764 214.130,211.328 216.000 C 212.891 217.870,215.617 220.930,217.385 222.801 C 220.353 225.941,221.808 227.622,229.842 237.200 C 231.411 239.070,233.279 241.140,233.994 241.800 C 234.709 242.460,236.563 244.530,238.115 246.400 C 239.667 248.270,242.211 251.150,243.769 252.800 C 245.327 254.450,247.725 257.150,249.098 258.800 C 253.071 263.575,255.758 266.675,260.193 271.600 C 266.717 278.844,271.262 284.014,273.204 286.400 C 275.493 289.213,279.404 293.776,282.804 297.600 C 285.907 301.090,291.717 307.864,297.400 314.618 C 299.600 317.232,302.300 320.368,303.401 321.586 C 304.501 322.804,306.118 324.700,306.994 325.800 C 307.870 326.900,309.683 329.060,311.024 330.600 C 315.566 335.817,319.995 342.011,319.999 343.150 C 320.005 345.585,306.301 336.009,291.971 323.567 C 290.557 322.339,288.140 320.462,286.600 319.396 C 285.060 318.329,282.630 316.441,281.200 315.199 C 279.770 313.958,276.530 311.269,274.000 309.224 C 271.470 307.179,267.169 303.682,264.442 301.453 C 261.715 299.224,255.933 294.520,251.593 291.000 C 247.254 287.480,241.835 283.078,239.551 281.218 C 237.268 279.359,232.700 275.677,229.400 273.038 C 226.100 270.398,222.500 267.403,221.400 266.381 C 220.300 265.359,217.690 263.212,215.600 261.610 C 213.510 260.009,210.900 257.833,209.800 256.777 C 208.700 255.720,206.055 253.448,203.923 251.728 C 201.790 250.008,197.830 246.813,195.123 244.629 C 192.415 242.445,188.940 239.563,187.400 238.224 C 185.860 236.886,183.700 235.058,182.600 234.162 C 165.952 220.612,160.516 216.204,158.000 214.215 C 156.350 212.910,153.650 210.648,152.000 209.187 C 150.350 207.725,146.780 204.746,144.066 202.565 C 141.353 200.384,137.753 197.474,136.066 196.098 C 134.380 194.722,131.920 192.747,130.600 191.709 C 129.280 190.671,126.113 188.107,123.563 186.011 C 121.013 183.915,116.449 180.220,113.420 177.800 C 93.789 162.112,88.150 157.631,82.210 153.000 C 78.542 150.140,73.169 145.944,70.270 143.675 C 55.865 132.400,50.330 130.655,46.261 136.105 C 43.653 139.598,46.963 145.303,59.000 158.062 C 75.369 175.413,78.875 179.178,79.987 180.600 C 80.675 181.480,88.115 189.130,96.519 197.600 C 104.924 206.070,112.782 214.170,113.983 215.600 C 115.183 217.030,124.827 226.930,135.414 237.600 C 146.001 248.270,156.021 258.620,157.681 260.600 C 167.496 272.310,173.291 275.095,176.509 269.647 C 178.192 266.797,177.383 265.338,169.830 257.600 C 166.716 254.410,163.275 250.720,162.184 249.400 C 161.093 248.080,152.572 239.350,143.250 230.000 C 133.927 220.650,125.409 211.830,124.321 210.400 C 123.233 208.970,118.891 204.233,114.672 199.873 C 105.381 190.273,103.669 188.000,105.729 188.000 C 106.998 188.000,111.818 191.464,121.156 199.085 C 122.830 200.451,125.910 202.816,128.000 204.340 C 130.090 205.863,133.060 208.228,134.600 209.594 C 136.140 210.960,139.560 213.761,142.200 215.818 C 144.840 217.875,148.350 220.753,150.000 222.213 C 151.650 223.673,154.350 225.886,156.000 227.132 C 157.650 228.377,160.277 230.476,161.839 231.798 C 167.023 236.185,179.361 246.384,186.000 251.771 C 196.497 260.289,200.533 263.606,205.045 267.425 C 207.660 269.639,211.060 272.429,212.600 273.624 C 216.010 276.271,223.591 282.549,229.000 287.203 C 231.200 289.097,234.620 291.892,236.600 293.414 C 238.580 294.937,244.227 299.517,249.150 303.591 C 254.072 307.666,260.192 312.681,262.750 314.736 C 270.642 321.077,277.510 326.632,284.600 332.406 C 291.951 338.393,298.840 343.863,303.600 347.494 C 305.250 348.752,308.310 351.145,310.400 352.810 C 326.891 365.948,333.171 370.430,339.589 373.642 C 345.595 376.649,349.810 375.924,351.942 371.519 C 354.457 366.324,351.643 361.113,336.923 343.707 C 332.962 339.022,322.069 325.901,319.266 322.437 C 318.092 320.987,316.022 318.612,314.666 317.160 C 311.274 313.528,305.289 306.694,302.965 303.800 C 301.001 301.355,298.494 298.436,286.128 284.199 C 284.407 282.219,281.920 279.339,280.600 277.799 C 279.280 276.260,277.120 273.819,275.800 272.376 C 274.480 270.932,271.510 267.521,269.200 264.795 C 265.321 260.219,261.600 255.993,254.256 247.823 C 252.685 246.075,250.528 243.555,249.462 242.223 C 247.277 239.492,240.617 232.006,235.777 226.840 C 234.004 224.948,231.761 222.410,230.792 221.200 C 229.823 219.990,227.853 217.740,226.414 216.200 C 224.975 214.660,222.309 211.561,220.490 209.314 C 218.671 207.067,216.534 204.732,215.740 204.127 C 214.945 203.521,213.290 201.580,212.060 199.813 C 210.830 198.046,208.399 195.160,206.658 193.400 C 203.214 189.919,201.200 187.388,201.200 186.540 C 201.200 185.564,203.103 185.972,204.745 187.300 C 211.203 192.524,222.222 201.569,224.242 203.303 C 225.585 204.456,227.979 206.480,229.562 207.800 C 231.145 209.120,234.096 211.604,236.120 213.321 C 238.144 215.037,241.060 217.458,242.600 218.700 C 244.140 219.941,246.570 221.996,248.000 223.265 C 252.542 227.296,256.090 230.323,260.000 233.500 C 262.090 235.199,266.590 239.005,270.000 241.959 C 278.992 249.747,280.793 251.273,282.800 252.802 C 283.790 253.556,286.130 255.537,288.000 257.204 C 289.870 258.870,292.750 261.305,294.400 262.613 C 296.050 263.922,298.767 266.164,300.438 267.596 C 302.109 269.028,305.336 271.640,307.609 273.400 C 309.883 275.160,313.286 277.974,315.172 279.654 C 321.897 285.645,345.572 304.727,357.623 313.871 C 363.952 318.673,368.523 319.827,372.683 317.673 C 378.491 314.665,377.859 307.179,370.922 296.800 C 369.378 294.490,366.553 290.260,364.645 287.400 C 359.648 279.911,354.054 271.834,348.967 264.762 C 346.528 261.373,343.807 257.520,342.919 256.200 C 342.031 254.880,340.156 252.251,338.752 250.358 C 331.390 240.432,328.411 236.330,326.586 233.606 C 324.266 230.143,317.991 221.503,313.846 216.065 C 312.281 214.011,309.740 210.642,308.200 208.577 C 302.117 200.422,300.060 197.744,296.600 193.469 C 294.620 191.023,291.650 187.269,290.000 185.127 C 282.922 175.936,265.400 154.321,257.645 145.214 C 255.310 142.472,252.320 138.948,251.000 137.384 C 249.680 135.819,247.340 133.101,245.800 131.345 C 244.260 129.588,241.200 126.009,239.000 123.392 C 236.800 120.775,233.290 116.826,231.200 114.617 C 224.956 108.016,220.690 101.610,221.999 100.800 C 223.416 99.925,231.552 104.722,244.493 114.061 C 248.585 117.014,251.262 119.175,262.889 128.906 C 275.537 139.494,293.883 151.869,298.350 152.827 C 309.230 155.160,311.753 142.374,303.447 127.000 C 302.734 125.680,301.181 122.530,299.997 120.000 C 298.812 117.470,296.860 113.780,295.658 111.800 C 291.080 104.256,283.347 87.758,280.123 78.654 C 276.257 67.739,282.303 66.894,301.231 75.706 C 307.224 78.496,312.795 82.473,317.674 87.445 C 322.260 92.117,322.752 92.713,329.951 102.305 C 339.704 115.300,343.038 117.562,346.972 113.853 C 350.060 110.940,349.062 108.319,340.769 97.580 C 330.447 84.212,320.281 73.291,315.000 69.898 C 302.557 61.901,283.171 55.223,276.600 56.669 " stroke="none" fill="#1d1d1d" fill-rule="evenodd"></path></g></svg>