<svg id="svg" version="1.1" xmlns="http://www.w3.org/2000/svg" xmlns:xlink="http://www.w3.org/1999/xlink" width="400" height="337.1794871794872" viewBox="0, 0, 400,337.1794871794872"><g id="svgg"><path id="path0" d="M214.671 12.042 C 213.848 12.364,211.518 12.669,208.695 12.823 C 200.932 13.248,193.150 18.202,189.911 24.780 L 188.870 26.896 188.870 33.979 C 188.870 39.661,188.978 41.354,189.414 42.538 C 190.360 45.103,190.434 50.437,189.563 53.304 C 188.714 56.098,188.804 56.797,190.310 59.156 C 191.748 61.407,192.003 65.436,190.945 69.184 C 190.495 70.778,190.189 73.060,190.092 75.548 C 190.001 77.886,189.734 79.963,189.421 80.776 C 187.401 86.006,190.673 93.086,195.110 93.086 C 199.445 93.086,202.625 87.193,203.027 78.415 C 203.195 74.760,203.454 72.542,203.830 71.543 C 204.182 70.606,204.384 69.043,204.384 67.261 C 204.384 64.783,204.479 64.346,205.198 63.510 L 206.011 62.563 212.365 62.371 C 216.631 62.243,219.051 62.029,219.730 61.720 C 220.369 61.430,222.679 61.190,226.001 61.067 C 231.982 60.846,232.926 60.471,235.286 57.381 C 237.457 54.538,235.556 50.096,231.510 48.557 C 229.714 47.874,217.554 48.154,215.252 48.932 C 213.485 49.528,212.534 49.617,208.917 49.522 C 203.459 49.378,203.035 49.043,203.035 44.868 C 203.035 43.166,202.796 41.454,202.365 40.081 C 201.591 37.610,201.449 32.743,202.089 30.607 C 203.024 27.486,207.137 25.644,213.226 25.618 C 215.361 25.608,217.214 25.416,218.044 25.117 C 219.667 24.532,221.208 24.489,222.491 24.994 C 223.013 25.199,224.623 25.504,226.069 25.672 C 228.795 25.988,232.460 27.539,235.641 29.722 C 239.536 32.396,244.724 30.629,246.211 26.121 C 247.614 21.872,237.127 13.355,229.966 12.925 C 228.417 12.833,226.277 12.466,225.209 12.112 C 222.716 11.284,216.712 11.244,214.671 12.042 M254.657 31.078 C 250.062 34.604,249.988 37.751,254.416 41.291 C 259.109 45.043,267.270 38.406,263.694 33.746 C 260.740 29.896,257.459 28.927,254.657 31.078 M302.527 40.113 C 300.663 40.680,295.151 44.167,292.917 46.193 C 288.984 49.760,286.126 50.784,283.841 49.445 C 281.247 47.926,280.007 48.126,277.560 50.460 C 274.944 52.956,274.621 53.953,275.471 56.917 C 276.976 62.165,277.357 64.104,277.580 67.622 C 277.709 69.663,278.024 71.788,278.280 72.344 C 278.635 73.116,278.786 76.087,278.917 84.879 L 279.089 96.402 280.110 97.853 C 283.618 102.841,289.275 102.215,291.409 96.603 C 292.127 94.715,291.816 71.497,291.044 69.277 C 289.741 65.532,291.096 62.848,295.920 59.628 C 297.051 58.872,298.432 57.832,298.988 57.315 C 299.545 56.799,301.366 55.594,303.035 54.639 C 308.925 51.267,311.154 47.786,309.470 44.587 C 308.793 43.302,305.915 40.579,304.784 40.154 C 303.722 39.755,303.704 39.755,302.527 40.113 M85.329 45.772 C 82.304 46.891,80.406 50.082,80.158 54.469 C 80.053 56.324,79.723 58.524,79.424 59.359 C 79.097 60.274,78.778 62.753,78.621 65.599 C 78.478 68.196,78.178 70.661,77.956 71.076 C 77.733 71.492,77.464 73.086,77.357 74.618 C 77.251 76.150,76.876 78.368,76.524 79.546 C 76.173 80.725,75.882 82.015,75.877 82.413 C 75.873 82.811,75.479 84.047,75.002 85.160 C 74.525 86.273,73.639 88.474,73.033 90.051 C 70.244 97.305,60.755 113.891,58.176 116.020 C 57.839 116.298,56.930 117.513,56.155 118.718 C 55.381 119.924,54.470 121.138,54.132 121.417 C 53.793 121.695,52.854 122.909,52.045 124.115 C 50.662 126.176,49.649 127.544,45.548 132.884 C 42.845 136.404,40.742 139.240,39.238 141.396 C 38.467 142.501,37.460 143.808,37.000 144.300 C 35.869 145.508,30.510 153.567,28.829 156.586 C 28.083 157.926,27.002 159.705,26.427 160.540 C 23.459 164.846,17.482 178.105,16.695 182.125 C 16.568 182.774,16.161 184.327,15.790 185.576 C 13.916 191.883,15.223 201.784,18.902 209.158 C 20.501 212.361,31.886 224.338,35.919 227.058 C 37.032 227.809,38.398 228.841,38.954 229.352 C 41.231 231.440,46.150 234.369,54.057 238.342 C 64.716 243.698,65.545 243.843,68.792 240.924 C 74.207 236.055,71.693 232.359,58.400 225.641 C 42.385 217.548,34.844 211.314,30.484 202.563 L 28.162 197.903 28.162 193.639 C 28.163 189.401,28.173 189.349,29.818 184.654 C 33.551 174.006,45.435 153.055,52.776 144.182 C 53.543 143.255,54.538 141.889,54.986 141.147 C 55.434 140.405,56.352 139.191,57.026 138.449 C 57.701 137.707,58.679 136.417,59.200 135.582 C 59.721 134.747,60.932 133.229,61.891 132.209 C 62.850 131.189,64.136 129.595,64.750 128.668 C 65.363 127.740,66.285 126.526,66.798 125.970 C 67.311 125.413,68.830 123.288,70.173 121.248 C 71.517 119.207,73.258 116.779,74.044 115.852 C 74.829 114.924,76.150 112.951,76.979 111.467 C 77.808 109.983,79.050 107.858,79.739 106.745 C 82.953 101.549,88.555 87.677,90.382 80.389 C 90.917 78.255,91.544 78.281,93.528 80.520 C 94.474 81.588,97.928 85.118,101.202 88.364 C 104.724 91.856,107.672 95.093,108.419 96.290 C 109.114 97.403,110.100 98.769,110.610 99.325 C 111.121 99.882,112.041 101.096,112.655 102.024 C 113.270 102.951,114.346 104.342,115.046 105.115 C 115.746 105.888,116.801 107.481,117.389 108.656 C 117.978 109.831,118.971 111.512,119.597 112.391 C 121.087 114.483,128.595 129.499,129.443 132.084 C 129.806 133.188,130.507 134.890,131.002 135.866 C 131.497 136.843,132.054 138.506,132.241 139.563 C 132.428 140.619,132.839 142.243,133.154 143.170 C 133.981 145.604,133.983 156.905,133.157 159.359 C 132.845 160.287,132.413 161.938,132.198 163.030 C 131.720 165.444,125.231 178.369,123.655 180.046 C 121.097 182.766,120.710 182.746,110.785 179.391 C 99.886 175.706,97.651 175.608,94.376 178.671 C 90.845 181.974,90.839 183.956,94.352 187.242 C 95.964 188.750,104.918 192.243,107.172 192.243 C 107.529 192.243,111.677 193.531,116.389 195.105 C 121.102 196.680,125.263 197.970,125.636 197.972 C 126.009 197.974,129.081 198.887,132.463 200.000 C 135.845 201.113,138.932 202.024,139.324 202.024 C 140.290 202.024,166.969 210.961,168.928 211.941 C 169.786 212.370,172.462 213.371,174.874 214.165 C 177.285 214.958,179.814 215.887,180.494 216.228 C 181.174 216.569,183.602 217.479,185.890 218.251 C 188.178 219.022,190.734 219.991,191.568 220.404 C 192.403 220.817,193.921 221.424,194.941 221.753 C 195.961 222.083,197.403 222.658,198.145 223.032 C 198.887 223.406,200.632 224.128,202.024 224.637 C 204.734 225.628,208.095 226.979,213.025 229.057 C 214.716 229.771,216.272 230.354,216.481 230.354 C 216.691 230.354,218.191 230.944,219.814 231.665 C 221.437 232.387,223.373 233.167,224.115 233.399 C 224.857 233.632,227.513 234.841,230.017 236.087 C 232.521 237.333,235.405 238.623,236.425 238.954 C 237.445 239.285,239.570 240.196,241.147 240.978 C 242.723 241.761,244.848 242.671,245.868 243.002 C 246.889 243.332,248.938 244.209,250.422 244.952 C 251.906 245.694,254.106 246.639,255.312 247.053 C 256.518 247.467,259.338 248.659,261.580 249.704 C 263.821 250.748,265.835 251.602,266.055 251.602 C 266.883 251.602,273.174 254.995,273.510 255.623 C 274.073 256.674,273.976 256.871,271.653 259.402 C 269.522 261.725,254.287 291.194,253.494 294.528 C 253.184 295.832,252.116 296.796,250.980 296.796 C 249.903 296.796,243.738 293.730,241.253 291.959 C 240.360 291.322,238.187 290.083,236.425 289.205 C 234.663 288.328,232.538 287.114,231.703 286.509 C 230.868 285.904,228.744 284.691,226.981 283.813 C 225.219 282.935,223.060 281.706,222.184 281.082 C 221.307 280.457,218.576 278.940,216.113 277.710 C 213.651 276.480,210.778 274.893,209.730 274.182 C 208.681 273.471,206.405 272.181,204.671 271.314 C 202.937 270.447,200.835 269.255,200.000 268.665 C 199.165 268.075,197.420 267.007,196.121 266.293 C 194.823 265.578,193.078 264.502,192.243 263.902 C 191.408 263.302,188.524 261.713,185.835 260.371 C 183.145 259.029,180.261 257.436,179.427 256.830 C 178.592 256.225,176.315 254.933,174.368 253.960 C 172.420 252.988,170.295 251.774,169.646 251.264 C 168.997 250.754,166.265 249.238,163.575 247.895 C 160.885 246.551,158.002 244.958,157.167 244.354 C 156.332 243.749,154.966 242.915,154.132 242.498 C 153.297 242.082,151.768 241.170,150.734 240.471 C 149.701 239.772,147.197 238.323,145.170 237.251 C 143.142 236.179,140.801 234.813,139.966 234.217 C 139.132 233.620,136.888 232.351,134.980 231.397 C 133.072 230.443,130.796 229.152,129.921 228.528 C 129.046 227.905,126.889 226.677,125.126 225.799 C 123.364 224.921,121.239 223.709,120.405 223.104 C 119.570 222.500,118.052 221.589,117.032 221.079 C 116.012 220.570,114.494 219.659,113.659 219.054 C 112.825 218.450,110.700 217.237,108.938 216.359 C 107.175 215.482,105.051 214.280,104.216 213.690 C 103.381 213.099,101.560 212.003,100.169 211.253 C 91.758 206.723,89.383 204.168,91.260 201.668 C 93.180 199.111,93.128 197.536,91.045 195.169 C 88.804 192.624,87.919 192.245,83.519 191.950 C 75.658 191.423,74.434 187.891,78.768 178.246 C 79.268 177.133,80.034 175.186,80.469 173.918 C 80.904 172.651,81.859 170.737,82.591 169.665 C 83.322 168.593,84.328 166.912,84.826 165.930 C 86.427 162.771,90.407 157.243,91.690 156.398 C 94.203 154.741,94.772 154.469,95.720 154.469 C 96.980 154.469,97.646 155.242,98.486 157.683 C 98.862 158.776,99.604 160.662,100.136 161.875 C 100.667 163.088,101.385 164.758,101.731 165.586 C 103.162 169.011,107.823 172.591,110.045 171.972 C 115.488 170.455,116.564 164.679,112.803 157.160 C 110.740 153.036,109.950 149.537,109.948 144.519 C 109.945 138.910,109.696 137.842,107.918 135.822 C 105.134 132.659,102.944 132.314,100.282 134.617 C 99.451 135.337,96.012 137.757,92.640 139.996 C 86.055 144.368,80.073 149.736,77.828 153.288 C 77.242 154.216,76.053 155.809,75.186 156.830 C 74.130 158.071,72.241 161.417,69.472 166.948 C 60.778 184.318,60.669 191.111,68.944 200.014 C 70.378 201.557,71.184 202.775,71.625 204.062 C 72.967 207.985,83.972 217.392,91.737 221.252 C 92.572 221.668,93.938 222.501,94.772 223.104 C 95.607 223.707,97.125 224.616,98.145 225.125 C 99.165 225.633,100.683 226.531,101.518 227.120 C 102.352 227.710,104.098 228.783,105.396 229.504 C 106.695 230.226,108.755 231.461,109.975 232.250 C 111.194 233.038,113.074 234.073,114.152 234.550 C 115.231 235.027,117.202 236.159,118.534 237.067 C 119.865 237.974,122.386 239.433,124.136 240.309 C 125.887 241.185,128.002 242.397,128.836 243.002 C 129.671 243.607,131.796 244.823,133.558 245.705 C 135.320 246.587,137.597 247.873,138.617 248.564 C 139.637 249.255,141.155 250.164,141.990 250.582 C 142.825 251.001,144.364 251.924,145.411 252.632 C 146.459 253.340,148.583 254.557,150.133 255.335 C 151.683 256.114,154.165 257.543,155.649 258.510 C 157.133 259.477,159.941 261.026,161.889 261.953 C 163.836 262.880,166.452 264.342,167.702 265.203 C 168.952 266.064,171.499 267.534,173.363 268.469 C 175.227 269.404,177.467 270.680,178.342 271.303 C 179.217 271.926,181.374 273.154,183.137 274.030 C 184.899 274.907,187.056 276.134,187.930 276.757 C 188.804 277.379,190.928 278.594,192.651 279.455 C 194.374 280.316,196.499 281.530,197.373 282.153 C 198.247 282.776,200.372 283.993,202.095 284.858 C 203.818 285.723,206.442 287.222,207.926 288.189 C 209.410 289.156,212.218 290.706,214.165 291.633 C 216.113 292.559,218.729 294.022,219.979 294.883 C 221.228 295.744,223.776 297.213,225.639 298.149 C 227.503 299.084,229.744 300.359,230.619 300.983 C 231.493 301.606,233.651 302.834,235.413 303.712 C 237.175 304.590,239.300 305.803,240.135 306.408 C 241.948 307.721,246.055 309.817,248.398 310.624 C 249.325 310.944,250.835 311.681,251.752 312.264 C 256.877 315.515,262.664 310.058,266.512 298.347 C 267.260 296.071,281.563 267.308,282.965 265.261 C 283.473 264.519,284.277 263.144,284.751 262.205 C 285.286 261.146,286.341 259.898,287.528 258.921 C 294.377 253.282,292.253 247.425,282.157 244.111 C 281.047 243.746,278.838 242.795,277.249 241.997 C 275.660 241.199,273.599 240.320,272.671 240.045 C 271.742 239.769,268.860 238.484,266.267 237.189 C 263.673 235.894,260.717 234.564,259.696 234.234 C 258.676 233.904,257.159 233.296,256.324 232.884 C 255.489 232.471,253.971 231.864,252.951 231.533 C 251.931 231.203,249.199 229.989,246.880 228.836 C 244.562 227.683,241.830 226.469,240.809 226.139 C 239.789 225.808,237.611 224.866,235.968 224.046 C 234.325 223.226,231.821 222.130,230.403 221.610 C 228.985 221.091,226.459 220.044,224.789 219.284 C 221.562 217.816,217.297 216.069,213.153 214.517 C 210.642 213.576,207.787 212.436,204.553 211.081 C 203.626 210.693,201.956 210.010,200.843 209.564 C 199.730 209.117,198.061 208.432,197.133 208.041 C 196.206 207.650,193.019 206.468,190.051 205.414 C 187.083 204.360,184.199 203.260,183.642 202.971 C 183.086 202.681,180.051 201.599,176.897 200.565 C 173.744 199.531,170.150 198.226,168.912 197.664 C 167.674 197.103,166.004 196.546,165.202 196.427 C 164.400 196.308,162.454 195.640,160.877 194.942 C 159.300 194.245,156.492 193.264,154.637 192.762 C 141.924 189.323,136.256 186.990,136.257 185.199 C 136.257 184.365,138.166 180.515,139.439 178.781 C 140.919 176.765,145.025 168.433,145.025 167.446 C 145.025 167.026,145.367 165.641,145.784 164.369 C 146.954 160.806,146.940 143.618,145.764 139.292 C 141.479 123.523,130.811 102.761,122.453 93.924 C 121.568 92.988,120.423 91.544,119.909 90.715 C 119.395 89.886,115.826 86.020,111.977 82.125 C 108.128 78.229,104.718 74.531,104.400 73.906 C 104.081 73.281,102.949 71.834,101.885 70.690 C 99.809 68.459,96.365 63.441,95.960 62.057 C 95.824 61.594,95.144 59.924,94.448 58.347 C 93.574 56.368,93.118 54.767,92.976 53.176 C 92.574 48.700,88.383 44.642,85.329 45.772 M323.440 47.786 C 317.581 50.568,308.371 62.655,307.210 69.084 C 307.021 70.135,306.649 71.645,306.384 72.440 C 305.490 75.123,305.734 81.331,306.864 84.675 C 308.420 89.278,309.098 90.293,313.785 95.043 C 320.469 101.816,323.817 103.092,329.902 101.185 C 331.078 100.816,332.608 100.513,333.301 100.510 C 338.139 100.494,350.839 94.037,356.096 88.922 C 360.086 85.040,360.205 83.235,356.684 79.990 C 353.499 77.054,350.508 77.260,345.735 80.743 C 340.731 84.395,327.313 89.257,324.832 88.318 C 322.878 87.577,321.121 85.092,320.040 81.539 C 318.804 77.474,319.056 77.083,323.978 75.425 C 325.815 74.806,327.942 73.981,328.705 73.592 C 329.467 73.203,331.819 72.327,333.932 71.646 C 341.920 69.071,349.416 62.474,349.406 58.028 C 349.399 54.668,345.837 49.868,341.886 47.893 L 339.859 46.880 332.577 46.893 C 325.437 46.905,325.259 46.922,323.440 47.786 M254.040 48.943 C 252.294 49.807,250.033 52.351,249.578 53.963 C 249.110 55.621,249.137 83.086,249.608 84.783 C 251.220 90.587,258.424 92.353,262.608 87.970 C 265.195 85.260,265.336 84.178,263.491 81.190 L 262.226 79.142 262.139 66.805 C 262.038 52.418,262.174 53.393,259.934 51.012 C 257.333 48.248,256.228 47.860,254.040 48.943 " stroke="none" fill="#090909" fill-rule="evenodd"></path></g></svg>