<svg id="svg" version="1.1" xmlns="http://www.w3.org/2000/svg" xmlns:xlink="http://www.w3.org/1999/xlink" width="400" height="211.08545034642032" viewBox="0, 0, 400,211.08545034642032"><g id="svgg"><path id="path0" d="M116.895 15.311 C 115.618 15.591,114.123 15.824,113.573 15.830 C 113.023 15.835,111.931 15.931,111.144 16.043 C 110.358 16.154,108.955 16.355,108.025 16.488 C 107.096 16.622,105.433 16.821,104.329 16.931 C 103.226 17.040,101.563 17.213,100.634 17.315 C 99.704 17.417,98.374 17.558,97.677 17.629 C 96.289 17.771,92.375 18.270,90.123 18.592 C 89.337 18.704,88.272 18.796,87.757 18.796 C 87.242 18.796,86.365 18.890,85.808 19.004 C 85.250 19.118,83.701 19.316,82.365 19.443 C 69.863 20.632,61.063 20.439,58.869 18.928 C 56.805 17.506,54.910 18.595,54.910 21.204 C 54.910 22.297,54.599 22.928,53.459 24.141 C 52.892 24.744,51.585 26.286,50.554 27.567 C 49.524 28.848,48.300 30.369,47.835 30.946 C 46.289 32.868,39.626 39.512,37.698 41.055 C 34.206 43.850,33.889 44.079,26.360 49.216 C 23.023 51.493,22.173 52.300,22.179 53.184 C 22.191 54.702,22.639 56.634,23.245 57.783 C 23.966 59.147,23.950 58.690,23.454 63.569 C 23.331 64.789,23.139 66.214,23.028 66.737 C 22.745 68.076,22.759 84.360,23.045 85.428 C 23.169 85.892,23.356 88.411,23.461 91.024 C 23.841 100.485,23.986 103.172,24.133 103.407 C 24.308 103.690,24.656 108.471,25.309 119.587 C 25.430 121.649,25.599 123.449,25.684 123.587 C 25.769 123.725,25.921 125.317,26.021 127.125 C 26.679 138.997,26.712 139.143,29.254 141.466 C 31.095 143.149,30.732 143.110,39.742 142.599 C 41.796 142.483,43.602 142.309,43.755 142.213 C 43.908 142.116,45.602 141.971,47.518 141.889 C 54.135 141.606,58.255 141.334,58.532 141.163 C 58.684 141.069,60.284 140.919,62.087 140.829 C 63.889 140.739,66.982 140.587,68.960 140.491 C 70.938 140.395,72.666 140.247,72.802 140.164 C 72.937 140.080,74.740 139.910,76.809 139.785 C 78.878 139.660,81.568 139.480,82.788 139.386 C 84.007 139.292,86.308 139.119,87.901 139.002 C 89.494 138.885,90.893 138.730,91.010 138.657 C 91.127 138.585,92.343 138.434,93.711 138.322 C 102.275 137.623,108.527 136.697,113.567 135.380 C 116.034 134.736,116.847 134.351,121.265 131.742 C 123.210 130.592,123.548 130.675,124.002 132.415 C 124.649 134.897,126.401 135.742,127.740 134.218 C 128.614 133.222,128.659 132.826,128.528 127.244 C 128.466 124.572,128.342 118.965,128.252 114.784 C 128.157 110.360,128.000 107.048,127.878 106.864 C 127.754 106.678,127.600 103.267,127.505 98.627 C 127.123 79.829,127.023 76.542,126.825 76.241 C 126.711 76.067,126.539 73.025,126.442 69.483 C 126.078 56.070,125.582 44.737,125.344 44.352 C 125.250 44.199,125.093 42.498,124.995 40.570 C 124.751 35.759,124.472 32.274,124.190 30.517 C 123.495 26.198,123.284 24.962,122.906 22.978 C 122.423 20.443,122.546 19.761,123.634 18.931 C 125.063 17.841,125.086 16.362,123.688 15.367 C 122.710 14.670,119.931 14.647,116.895 15.311 M117.280 20.961 C 117.769 21.454,117.798 21.573,118.771 27.138 C 119.720 32.571,119.942 34.660,120.343 41.935 C 120.439 43.685,120.596 45.243,120.692 45.398 C 120.871 45.688,121.134 51.196,121.394 60.084 C 121.475 62.872,121.634 65.296,121.746 65.470 C 121.859 65.644,122.032 68.685,122.131 72.228 C 122.577 88.097,122.696 92.666,122.853 99.894 C 122.950 104.382,123.108 107.735,123.231 107.920 C 123.354 108.104,123.511 111.452,123.606 115.945 C 123.696 120.185,123.791 124.101,123.816 124.648 C 123.873 125.877,123.686 126.071,122.256 126.268 C 121.472 126.376,120.497 126.775,119.113 127.554 C 115.018 129.859,114.465 130.110,112.116 130.734 C 108.516 131.690,102.062 132.750,96.727 133.262 C 95.739 133.357,93.854 133.538,92.538 133.664 C 91.222 133.790,90.054 133.949,89.943 134.018 C 89.719 134.156,84.447 134.560,75.453 135.128 C 73.568 135.247,71.906 135.419,71.758 135.510 C 71.611 135.601,69.827 135.750,67.794 135.843 C 59.327 136.226,57.315 136.355,57.024 136.536 C 56.855 136.640,55.098 136.804,53.121 136.900 C 44.036 137.343,42.954 137.411,42.712 137.561 C 42.496 137.695,36.463 138.103,33.423 138.189 C 31.468 138.245,31.329 137.604,30.659 125.439 C 30.566 123.750,30.413 122.243,30.319 122.090 C 30.162 121.836,30.067 120.555,29.571 111.932 C 29.203 105.549,28.925 101.952,28.782 101.722 C 28.637 101.489,28.549 99.902,28.099 89.440 C 27.990 86.885,27.806 84.319,27.690 83.738 C 27.348 82.018,27.401 69.403,27.760 66.992 C 27.928 65.864,28.170 64.134,28.299 63.147 C 28.876 58.696,28.104 58.939,36.642 60.517 C 38.237 60.812,42.309 61.412,45.829 61.871 C 46.700 61.985,48.506 62.232,49.842 62.421 C 53.310 62.910,61.874 62.795,62.881 62.245 C 64.378 61.427,64.682 59.939,63.579 58.834 L 62.928 58.184 57.388 58.042 C 54.341 57.964,51.420 57.802,50.898 57.682 C 50.375 57.561,49.520 57.459,48.997 57.455 C 48.065 57.447,46.389 57.195,36.271 55.541 C 29.058 54.362,28.155 53.626,31.312 51.502 C 33.262 50.189,37.223 47.245,39.388 45.500 C 42.261 43.182,51.769 33.427,54.001 30.506 C 55.669 28.323,56.209 29.118,57.457 35.586 C 57.706 36.881,58.954 41.461,59.759 44.034 C 60.085 45.079,60.990 47.978,61.768 50.475 C 63.822 57.064,64.199 57.740,65.815 57.740 C 67.705 57.740,68.497 55.547,67.570 52.884 C 67.331 52.198,66.771 50.306,66.326 48.680 C 65.881 47.054,65.330 45.295,65.101 44.772 C 63.893 42.012,60.616 28.510,60.613 26.281 C 60.611 24.827,60.365 24.873,68.549 24.817 C 72.605 24.789,77.064 24.666,78.458 24.543 C 85.161 23.953,86.047 23.864,86.402 23.752 C 86.753 23.640,88.727 23.427,93.031 23.034 C 93.960 22.950,95.623 22.765,96.727 22.624 C 97.830 22.482,99.541 22.274,100.528 22.161 C 101.515 22.048,102.966 21.862,103.753 21.749 C 104.539 21.635,105.565 21.542,106.032 21.542 C 106.500 21.542,107.805 21.403,108.932 21.234 C 110.060 21.065,111.552 20.841,112.249 20.737 C 114.846 20.348,116.757 20.433,117.280 20.961 M317.584 21.029 C 317.518 21.095,316.297 21.232,314.873 21.332 C 309.358 21.719,305.945 24.862,304.441 30.939 C 303.884 33.185,303.751 33.468,302.850 34.319 C 301.421 35.669,301.295 36.450,302.270 37.924 L 302.957 38.961 302.962 41.920 C 302.977 50.582,304.801 54.953,307.806 53.527 C 309.258 52.838,309.486 51.741,308.640 49.497 C 308.040 47.906,307.551 43.182,307.808 41.467 C 308.059 39.790,308.350 39.628,311.147 39.613 C 314.915 39.591,316.541 37.851,314.533 35.990 C 313.984 35.482,313.580 35.343,311.214 34.851 C 308.928 34.375,308.624 33.660,309.511 30.853 C 310.564 27.517,312.212 26.251,315.757 26.054 C 321.033 25.761,323.419 24.260,322.015 22.118 C 321.405 21.187,318.211 20.402,317.584 21.029 M149.490 24.763 C 148.630 25.488,148.284 26.382,147.603 29.637 C 147.259 31.283,146.883 32.979,146.769 33.406 C 145.523 38.050,144.882 47.087,145.602 49.853 C 147.203 56.001,152.625 60.964,157.275 60.539 C 159.811 60.307,164.813 58.266,165.842 57.043 C 166.890 55.798,166.264 54.141,164.552 53.628 C 163.704 53.374,163.300 53.482,159.768 54.910 C 155.312 56.712,151.949 54.485,150.355 48.677 C 149.495 45.540,150.060 40.424,152.360 30.517 C 153.488 25.664,151.988 22.658,149.490 24.763 M219.223 26.426 C 216.470 27.514,214.756 36.224,214.761 49.102 C 214.764 57.503,215.306 59.768,217.312 59.768 C 218.828 59.768,219.638 58.091,219.640 54.949 C 219.641 52.886,219.845 52.165,220.428 52.165 C 221.045 52.165,225.310 54.827,228.434 57.163 C 230.650 58.820,232.147 58.830,233.157 57.193 C 233.974 55.870,233.600 55.331,229.943 52.559 C 226.339 49.828,226.309 49.628,229.290 48.245 C 233.111 46.471,233.947 45.150,232.405 43.318 C 231.514 42.259,230.797 42.267,228.383 43.364 C 223.890 45.406,220.596 46.093,219.958 45.120 C 219.238 44.021,219.815 37.517,221.030 33.039 C 222.158 28.881,222.193 28.113,221.296 27.172 C 220.486 26.321,219.963 26.133,219.223 26.426 M253.326 34.931 C 251.548 35.713,250.177 37.952,248.174 43.350 C 246.936 46.687,246.878 47.227,247.658 48.154 C 249.538 50.388,251.250 48.983,253.226 43.585 C 254.280 40.706,254.974 39.990,255.812 40.919 C 256.322 41.484,256.672 43.188,256.529 44.416 C 256.291 46.464,255.777 49.731,255.449 51.281 C 254.566 55.449,256.396 58.179,258.679 56.100 C 259.643 55.222,259.680 55.088,260.964 47.651 C 261.523 44.413,261.306 40.769,260.451 39.034 C 258.776 35.632,255.726 33.876,253.326 34.931 M323.108 35.569 C 321.357 36.171,318.273 38.839,317.311 40.585 C 316.521 42.017,316.269 46.225,316.877 47.818 C 318.713 52.625,326.632 53.464,331.102 49.325 C 332.574 47.962,332.960 47.928,333.161 49.144 C 334.230 55.623,334.933 57.233,336.692 57.233 C 338.571 57.233,339.235 55.197,338.539 51.561 C 337.695 47.147,338.311 45.711,341.544 44.561 C 344.957 43.348,346.049 41.782,344.592 40.192 C 343.941 39.482,343.774 39.413,342.533 39.340 C 340.519 39.223,340.359 39.157,339.844 38.241 C 338.025 35.004,335.556 36.318,334.557 41.055 C 333.822 44.541,333.421 44.612,331.916 41.519 C 330.842 39.312,329.059 37.415,327.622 36.949 C 327.182 36.807,326.364 36.461,325.805 36.181 C 324.148 35.350,323.905 35.295,323.108 35.569 M238.715 36.737 C 237.374 37.555,237.219 38.739,238.310 39.831 C 239.294 40.815,240.437 40.840,241.378 39.899 C 243.172 38.105,240.899 35.405,238.715 36.737 M175.060 38.938 C 169.779 40.826,168.930 49.414,173.579 53.919 C 180.738 60.854,192.225 56.859,189.839 48.263 C 189.561 47.265,188.102 45.166,186.460 43.405 C 185.808 42.705,185.201 41.895,185.113 41.605 C 184.325 39.030,183.560 38.656,179.092 38.662 C 176.974 38.665,175.551 38.763,175.060 38.938 M276.420 40.858 C 266.600 42.896,264.000 45.278,265.787 50.600 C 267.402 55.412,271.162 57.968,274.552 56.560 L 275.665 56.097 276.041 56.562 C 278.384 59.455,275.615 74.128,272.493 75.363 C 270.196 76.272,262.815 76.626,260.824 75.924 C 257.426 74.725,256.050 78.340,259.118 80.407 C 260.791 81.535,272.340 80.973,274.929 79.638 C 279.810 77.122,282.401 67.002,281.206 55.121 C 281.051 53.580,280.510 49.459,280.228 47.671 C 279.946 45.889,280.205 45.398,281.794 44.695 C 284.142 43.657,284.875 41.960,283.548 40.634 C 282.597 39.683,281.995 39.702,276.420 40.858 M202.429 40.347 C 201.964 40.456,200.478 40.489,199.126 40.420 C 195.515 40.235,194.668 40.521,192.595 42.624 C 189.897 45.362,189.858 46.358,192.298 50.284 C 197.725 59.018,201.858 59.825,208.157 53.383 C 210.881 50.597,211.300 49.773,211.297 47.202 C 211.291 42.208,207.381 39.185,202.429 40.347 M325.476 41.270 C 327.463 42.102,328.484 45.089,327.191 46.289 C 325.005 48.317,321.225 47.313,321.225 44.704 C 321.225 41.838,323.140 40.291,325.476 41.270 M81.455 42.374 C 81.160 42.669,73.651 42.999,70.532 42.853 C 67.240 42.700,65.591 45.072,67.832 46.737 C 69.043 47.636,73.353 48.204,75.290 47.720 C 75.755 47.604,77.703 47.408,79.620 47.285 C 83.233 47.054,87.506 46.738,87.585 46.697 C 89.664 45.622,89.544 43.286,87.367 42.463 C 86.732 42.223,81.682 42.147,81.455 42.374 M240.196 42.854 C 238.366 43.985,237.804 46.233,237.804 52.410 C 237.804 57.726,237.922 58.243,239.310 59.007 C 240.009 59.391,240.070 59.392,240.812 59.040 C 242.213 58.375,242.450 57.516,242.451 53.101 C 242.453 50.050,242.535 48.972,242.874 47.558 C 243.752 43.895,242.389 41.500,240.196 42.854 M178.965 43.498 C 179.291 43.622,179.705 44.107,180.029 44.746 C 180.617 45.907,181.236 46.414,182.753 46.977 C 184.361 47.574,185.677 50.269,184.923 51.420 C 183.490 53.607,177.101 52.236,175.882 49.480 C 174.377 46.077,176.240 42.462,178.965 43.498 M205.809 45.494 C 207.218 46.903,206.379 49.497,203.907 51.369 C 201.391 53.276,199.851 53.126,198.228 50.816 C 195.031 46.265,195.195 45.263,199.126 45.352 C 200.362 45.380,201.705 45.318,202.112 45.215 C 203.668 44.820,205.255 44.940,205.809 45.494 M274.853 46.794 C 275.035 46.976,275.231 47.333,275.288 47.586 C 276.312 52.109,276.094 53.025,274.089 52.616 C 271.771 52.143,270.532 50.869,270.476 48.900 C 270.431 47.295,273.754 45.696,274.853 46.794 M101.690 68.458 C 101.109 68.565,99.636 68.838,98.416 69.066 C 97.196 69.294,94.813 69.714,93.119 70.001 C 91.425 70.287,89.620 70.614,89.106 70.728 C 88.295 70.908,86.027 71.275,81.204 72.007 C 80.507 72.113,79.129 72.301,78.141 72.426 C 77.154 72.550,75.634 72.755,74.762 72.882 C 72.953 73.144,70.263 73.413,66.699 73.686 C 65.342 73.790,64.140 73.932,64.027 74.001 C 63.839 74.117,61.603 74.288,53.960 74.769 C 45.165 75.324,44.473 75.500,44.045 77.297 C 43.598 79.169,45.245 79.907,49.502 79.740 C 55.281 79.515,64.759 78.848,65.089 78.644 C 65.208 78.570,66.506 78.428,67.974 78.327 C 71.553 78.082,74.390 77.799,77.191 77.408 C 78.469 77.230,80.227 76.994,81.098 76.884 C 82.547 76.702,90.045 75.449,94.403 74.661 C 95.391 74.482,97.899 74.046,99.977 73.691 C 102.056 73.336,104.123 72.898,104.572 72.719 C 106.354 72.006,106.990 70.285,105.861 69.231 C 104.728 68.174,103.991 68.038,101.690 68.458 M172.360 82.804 C 172.084 82.915,170.896 83.245,169.720 83.539 C 160.510 85.837,155.561 89.059,152.706 94.615 C 148.802 102.208,151.411 116.204,157.945 122.727 C 162.218 126.992,165.153 127.129,175.799 123.558 C 181.161 121.759,182.557 120.536,181.297 118.736 C 180.288 117.297,179.569 117.333,174.168 119.093 C 163.130 122.692,160.801 121.884,157.883 113.443 C 156.612 109.767,156.566 109.820,160.988 109.820 C 169.357 109.820,173.834 107.829,171.665 105.072 C 170.728 103.881,170.190 103.828,166.476 104.561 C 163.520 105.144,162.910 105.202,161.035 105.070 C 159.873 104.989,158.312 104.896,157.566 104.863 C 155.503 104.773,155.044 103.035,156.085 99.257 C 157.654 93.563,161.085 90.731,168.743 88.810 C 174.215 87.437,175.622 86.704,176.049 85.002 C 176.435 83.467,174.132 82.095,172.360 82.804 M361.035 83.210 C 360.686 83.299,359.932 83.383,359.359 83.396 C 356.177 83.473,354.685 86.411,357.044 87.957 C 357.571 88.302,357.819 88.311,360.275 88.066 C 366.076 87.487,366.320 87.518,366.947 88.910 C 368.369 92.064,366.638 96.692,362.254 101.454 C 359.917 103.993,359.517 105.319,360.740 106.462 C 361.951 107.593,362.567 107.352,365.336 104.669 C 370.551 99.616,371.806 97.072,371.806 91.552 C 371.806 86.252,371.136 84.527,368.640 83.393 C 367.738 82.983,362.428 82.856,361.035 83.210 M306.441 87.863 C 305.222 88.083,303.606 88.359,302.851 88.475 C 293.482 89.914,289.599 91.370,288.464 93.867 C 288.018 94.850,287.882 104.087,288.273 106.807 C 288.386 107.593,288.567 109.034,288.674 110.009 C 289.079 113.686,291.677 117.499,294.835 119.051 C 297.633 120.426,300.444 120.467,306.336 119.220 C 308.310 118.803,311.040 118.231,312.402 117.950 C 316.391 117.128,317.460 116.164,316.482 114.274 C 315.660 112.682,314.447 112.667,306.960 114.150 C 300.923 115.346,299.067 115.523,297.490 115.052 C 293.975 114.002,291.712 106.969,295.106 107.640 C 296.487 107.913,302.334 107.844,304.435 107.530 C 307.022 107.144,308.116 106.412,308.126 105.063 C 308.141 103.029,305.973 102.392,301.303 103.057 C 299.625 103.297,298.895 103.305,297.491 103.102 C 296.536 102.964,295.278 102.851,294.697 102.851 C 292.889 102.851,292.819 102.719,292.819 99.295 C 292.819 95.041,292.881 95.007,303.801 93.245 C 311.613 91.986,312.777 91.560,312.777 89.962 C 312.777 87.865,310.535 87.123,306.441 87.863 M99.683 91.586 C 96.866 91.922,93.906 92.225,90.919 92.484 C 88.851 92.663,86.434 92.950,83.576 93.356 C 82.790 93.467,81.708 93.559,81.171 93.559 C 80.635 93.559,79.615 93.650,78.905 93.763 C 78.195 93.875,76.711 94.075,75.607 94.206 C 73.694 94.435,72.749 94.522,66.784 95.016 C 65.358 95.134,64.101 95.286,63.992 95.354 C 63.649 95.565,58.793 95.921,54.277 96.065 C 49.717 96.210,49.376 96.283,48.591 97.282 C 47.622 98.514,48.541 100.306,50.312 100.636 C 51.928 100.937,65.039 100.397,65.676 100.003 C 65.788 99.934,67.000 99.785,68.368 99.673 C 71.053 99.452,72.952 99.262,77.719 98.736 C 80.812 98.395,83.514 98.116,86.800 97.797 C 88.926 97.591,92.045 97.218,94.038 96.932 C 94.824 96.819,95.939 96.727,96.515 96.727 C 97.092 96.727,98.207 96.633,98.993 96.518 C 99.779 96.404,101.165 96.223,102.072 96.115 C 104.800 95.793,106.456 94.279,105.804 92.704 C 105.190 91.221,104.221 91.044,99.683 91.586 M347.518 93.094 C 346.705 93.524,345.565 94.039,344.984 94.238 C 343.292 94.820,341.337 96.090,339.775 97.624 C 337.895 99.470,337.799 99.449,336.954 97.017 C 335.681 93.353,333.800 92.554,329.616 93.899 C 320.772 96.743,318.455 99.132,319.933 103.881 C 321.458 108.779,325.807 111.818,330.247 111.088 C 333.177 110.606,333.574 111.101,332.950 114.450 C 332.239 118.264,331.385 119.263,327.069 121.328 C 322.813 123.365,321.111 123.608,318.902 122.492 C 315.811 120.932,313.900 123.862,316.286 126.503 C 318.529 128.986,323.333 128.631,329.517 125.527 C 336.437 122.052,337.887 119.333,337.930 109.747 C 337.960 103.022,338.073 102.853,340.802 105.449 C 343.401 107.923,345.074 108.389,348.569 107.611 C 351.757 106.902,352.114 107.726,351.228 113.745 C 350.257 120.349,347.864 125.238,345.604 125.238 C 342.072 125.238,341.904 129.608,345.385 130.931 C 347.753 131.832,353.484 125.067,354.915 119.682 C 356.952 112.014,356.758 104.678,354.382 99.578 C 353.895 98.532,353.373 97.275,353.222 96.784 C 352.658 94.947,350.326 92.272,349.314 92.302 C 349.139 92.308,348.332 92.664,347.518 93.094 M230.221 93.469 C 229.847 93.783,229.469 94.384,229.323 94.894 C 228.848 96.560,228.374 96.784,226.630 96.165 C 223.933 95.207,222.124 97.910,224.124 99.910 C 224.811 100.597,227.069 101.795,227.679 101.795 C 228.810 101.796,228.798 101.694,228.742 110.642 C 228.684 120.003,228.676 119.948,230.412 121.517 C 231.964 122.919,233.525 122.945,236.968 121.627 C 241.327 119.958,242.473 117.617,239.562 116.329 L 238.580 115.895 236.651 116.554 C 233.271 117.708,233.369 117.867,233.369 111.209 C 233.369 108.372,233.461 105.593,233.575 105.032 C 233.688 104.471,233.836 103.652,233.903 103.211 C 234.000 102.571,234.199 102.293,234.883 101.838 C 238.194 99.634,238.370 98.137,235.480 96.754 C 234.465 96.268,234.248 96.049,233.753 95.011 C 232.775 92.961,231.491 92.400,230.221 93.469 M259.706 96.941 C 258.606 97.806,258.567 98.492,259.358 103.045 C 259.835 105.790,259.445 111.788,258.734 112.645 C 258.600 112.806,257.985 112.979,257.365 113.030 C 256.657 113.089,255.623 113.416,254.581 113.911 C 251.042 115.592,246.808 114.372,245.824 111.388 C 245.338 109.918,245.569 109.761,249.525 108.865 C 254.995 107.625,257.231 105.697,257.231 102.218 C 257.231 98.685,255.120 97.044,250.755 97.183 C 244.122 97.396,238.817 104.655,240.650 111.007 C 242.144 116.180,246.302 119.430,251.426 119.430 L 254.382 119.430 256.130 118.532 C 257.091 118.039,258.064 117.635,258.292 117.635 C 258.552 117.635,258.914 117.970,259.261 118.532 C 260.600 120.697,262.229 120.734,263.599 118.630 C 263.615 118.605,263.702 117.064,263.792 115.206 C 264.232 106.095,264.246 106.041,266.548 104.710 C 268.383 103.648,269.483 102.451,269.483 101.515 C 269.483 99.919,267.882 98.975,266.166 99.560 C 264.569 100.104,264.268 100.025,263.617 98.895 C 262.305 96.618,260.967 95.949,259.706 96.941 M191.552 98.166 C 188.372 99.223,181.626 104.978,181.626 106.633 C 181.626 109.508,183.750 109.801,186.378 107.290 C 192.177 101.749,195.129 101.500,196.248 106.456 C 196.770 108.767,196.606 109.014,193.453 110.658 C 188.141 113.427,186.806 115.899,189.266 118.415 C 193.598 122.845,202.910 121.384,201.171 116.548 C 200.913 115.829,200.842 115.222,200.933 114.519 C 202.416 103.171,198.264 95.934,191.552 98.166 M210.982 98.917 C 206.473 100.159,203.080 105.323,204.934 108.125 C 205.923 109.619,207.260 110.153,212.883 111.296 C 217.628 112.260,217.715 113.598,213.094 114.555 C 209.961 115.205,208.628 116.426,209.365 117.972 C 210.353 120.044,213.854 120.001,218.291 117.864 C 225.159 114.556,224.417 109.093,216.856 107.304 C 215.891 107.075,214.245 106.686,213.200 106.440 C 209.664 105.608,209.702 103.775,213.263 103.378 C 214.863 103.200,215.531 102.922,216.161 102.174 C 218.030 99.952,214.739 97.883,210.982 98.917 M332.075 99.102 C 332.617 99.592,333.263 102.041,333.263 103.603 C 333.263 106.792,327.573 107.431,325.479 104.478 C 323.636 101.877,324.279 100.846,328.668 99.365 C 331.236 98.499,331.394 98.487,332.075 99.102 M348.113 98.873 C 349.226 99.466,350.135 101.372,349.654 102.106 C 348.517 103.841,343.611 103.074,343.611 101.162 C 343.611 99.916,346.917 98.236,348.113 98.873 M251.408 102.135 C 251.814 102.290,251.846 102.925,251.463 103.242 C 250.426 104.103,247.496 104.186,247.819 103.346 C 247.886 103.171,247.941 102.983,247.941 102.929 C 247.941 102.445,250.618 101.831,251.408 102.135 M106.125 110.468 C 104.963 110.689,103.015 111.063,101.795 111.300 C 97.807 112.074,96.006 112.347,94.826 112.355 C 94.187 112.359,92.809 112.503,91.763 112.674 C 89.547 113.039,79.343 113.096,77.614 112.754 C 76.646 112.563,74.958 112.467,63.992 111.978 C 61.959 111.888,60.165 111.732,60.006 111.633 C 59.731 111.463,54.604 111.152,48.786 110.953 C 45.047 110.825,43.312 111.943,44.235 113.887 C 44.945 115.385,45.453 115.485,54.503 115.910 C 56.544 116.006,58.350 116.169,58.516 116.272 C 58.804 116.450,60.398 116.546,70.433 116.989 C 72.872 117.096,75.343 117.280,75.924 117.397 C 77.647 117.744,91.437 117.679,93.453 117.315 C 94.382 117.147,95.689 117.007,96.357 117.005 C 97.591 117.001,100.441 116.570,102.756 116.038 C 103.458 115.877,104.741 115.645,105.607 115.524 C 110.740 114.805,112.878 112.836,110.792 110.750 C 109.933 109.890,109.355 109.856,106.125 110.468 M363.569 114.238 C 361.309 115.216,361.887 118.268,364.333 118.268 C 365.386 118.268,366.631 117.191,366.631 116.280 C 366.631 115.054,364.684 113.756,363.569 114.238 M274.717 143.462 C 274.335 143.845,273.598 144.951,273.078 145.920 C 271.488 148.883,270.866 149.340,269.933 148.228 C 267.615 145.465,267.059 145.229,265.731 146.447 C 262.893 149.048,268.402 155.869,272.076 154.304 C 274.032 153.471,278.353 147.174,278.353 145.156 C 278.353 143.094,276.120 142.054,274.717 143.462 M221.704 146.200 C 219.816 147.752,219.976 152.756,221.978 154.758 C 224.501 157.281,226.059 157.011,229.640 153.430 C 232.197 150.873,232.660 149.542,231.466 148.182 C 230.259 146.807,229.347 146.991,227.529 148.976 C 226.012 150.632,225.524 150.534,225.137 148.495 C 224.676 146.067,223.126 145.030,221.704 146.200 M294.816 152.323 C 294.428 152.585,293.556 153.630,292.878 154.646 C 291.447 156.791,291.142 156.901,289.925 155.713 C 287.998 153.831,286.203 155.388,283.050 161.670 C 281.128 165.499,281.003 168.613,282.725 169.741 C 284.224 170.724,285.525 169.708,286.302 166.949 C 286.858 164.974,287.526 163.500,288.529 162.038 C 289.767 160.232,289.808 161.159,288.682 165.537 C 287.766 169.102,288.011 170.591,289.642 171.365 C 291.570 172.279,292.259 171.278,293.854 165.250 C 294.722 161.970,296.017 158.612,297.166 156.663 C 298.201 154.907,298.351 154.225,297.906 153.289 C 297.256 151.919,295.999 151.526,294.816 152.323 M201.273 161.194 C 200.201 161.748,199.860 162.610,199.735 165.086 C 199.611 167.557,199.349 169.349,198.716 172.062 C 197.458 177.446,201.474 179.526,203.151 174.359 C 205.484 167.174,204.401 159.581,201.273 161.194 M214.315 162.313 C 213.295 162.867,212.739 164.170,212.249 167.159 C 212.001 168.669,211.614 170.686,211.390 171.640 C 210.715 174.512,210.919 176.045,212.084 176.862 C 213.169 177.622,214.507 177.057,215.313 175.499 C 215.978 174.212,217.621 165.037,217.365 164.031 C 216.963 162.443,215.546 161.646,214.315 162.313 M268.722 168.828 C 267.702 169.848,267.745 170.727,268.943 173.345 C 270.521 176.794,270.536 178.182,269.027 181.455 C 267.008 185.834,259.062 188.640,257.086 185.672 C 255.795 183.733,255.309 181.198,255.839 179.167 C 256.720 175.789,255.725 173.178,253.555 173.178 C 252.076 173.178,251.374 174.148,250.878 176.874 C 250.136 180.960,250.052 181.289,249.460 182.471 C 247.613 186.156,238.605 187.698,235.471 184.866 C 232.835 182.484,232.346 178.926,234.233 175.859 C 236.090 172.842,233.518 170.024,231.081 172.405 C 224.858 178.481,229.478 189.829,238.706 191.138 C 241.655 191.556,247.476 190.224,250.296 188.486 C 251.993 187.440,252.224 187.492,253.955 189.304 C 255.900 191.341,256.444 191.610,258.855 191.722 C 265.775 192.045,273.201 186.627,274.634 180.212 C 276.023 173.995,271.761 165.789,268.722 168.828 " stroke="none" fill="#090909" fill-rule="evenodd"></path></g></svg>