<svg id="svg" version="1.1" xmlns="http://www.w3.org/2000/svg" xmlns:xlink="http://www.w3.org/1999/xlink" width="400" height="275.86206896551727" viewBox="0, 0, 400,275.86206896551727"><g id="svgg"><path id="path0" d="M284.727 45.511 C 283.201 46.220,280.370 49.075,276.652 53.655 C 272.828 58.366,262.353 72.288,260.140 75.599 C 258.247 78.432,255.003 82.798,252.932 85.300 C 252.214 86.167,251.165 87.755,250.600 88.830 C 250.036 89.904,248.009 93.195,246.097 96.143 C 244.185 99.091,241.938 102.593,241.103 103.924 C 239.457 106.550,225.962 120.354,221.931 123.536 C 220.869 124.374,217.828 127.201,215.172 129.817 C 212.517 132.434,209.662 135.104,208.828 135.751 C 207.993 136.398,206.333 137.840,205.138 138.957 C 199.610 144.123,198.067 141.937,200.732 132.715 C 201.834 128.900,203.862 119.819,203.862 118.699 C 203.860 115.436,200.354 113.370,197.771 115.110 C 195.769 116.460,195.560 117.025,192.682 128.909 C 189.707 141.192,188.420 141.563,183.465 131.569 C 179.842 124.261,179.310 125.915,189.805 111.862 C 192.552 108.183,192.878 107.735,198.899 99.310 C 201.230 96.048,204.001 92.200,205.056 90.759 C 215.263 76.815,218.949 69.677,217.509 66.642 C 215.367 62.128,211.620 63.319,199.066 72.505 C 196.621 74.294,193.860 76.309,192.930 76.982 C 192.000 77.656,189.038 79.883,186.349 81.931 C 183.659 83.979,180.667 86.230,179.700 86.933 C 178.732 87.635,176.063 89.621,173.769 91.346 C 171.474 93.071,168.013 95.662,166.078 97.103 C 164.142 98.545,160.772 101.077,158.589 102.732 C 152.054 107.684,151.120 107.626,150.080 102.207 C 147.795 90.313,140.605 82.759,134.809 86.162 C 131.298 88.223,127.255 93.172,123.894 99.526 C 118.093 110.492,115.084 111.935,112.441 105.020 C 106.147 88.549,106.151 88.585,110.101 85.215 C 111.062 84.395,113.093 82.522,114.614 81.052 C 116.135 79.582,118.208 77.720,119.222 76.914 C 120.235 76.108,122.904 73.951,125.153 72.121 C 127.402 70.291,132.407 66.426,136.276 63.532 C 147.713 54.978,149.181 53.300,147.711 50.457 C 146.052 47.249,143.160 47.893,136.735 52.899 C 134.738 54.456,130.606 57.621,127.554 59.933 C 121.466 64.546,115.024 69.873,111.590 73.134 C 103.658 80.665,101.566 81.700,98.577 79.565 C 96.616 78.165,95.456 77.918,93.956 78.581 C 91.907 79.488,91.405 80.756,88.709 91.845 C 87.829 95.466,87.191 96.445,82.577 101.253 C 80.617 103.295,78.589 105.524,78.070 106.207 C 77.551 106.890,75.693 108.940,73.942 110.764 C 72.191 112.588,70.046 114.947,69.176 116.006 C 68.305 117.065,66.899 118.738,66.051 119.724 C 53.484 134.343,44.814 147.845,42.720 156.056 C 39.393 169.100,44.011 174.459,56.138 171.630 C 58.110 171.170,61.214 170.532,63.034 170.212 C 64.855 169.892,66.964 169.448,67.721 169.224 C 68.478 169.001,70.516 168.632,72.250 168.405 C 74.838 168.066,75.803 167.799,77.633 166.918 C 78.859 166.327,81.041 165.345,82.483 164.735 C 95.418 159.259,106.966 152.034,127.532 136.552 C 129.649 134.959,132.287 133.016,133.395 132.234 C 134.503 131.452,136.272 130.125,137.325 129.284 C 144.557 123.515,145.185 124.241,147.184 140.690 C 147.433 142.738,147.812 145.671,148.025 147.208 C 148.883 153.376,148.504 155.310,145.684 159.152 C 132.798 176.706,124.961 193.930,127.411 199.310 C 130.219 205.475,135.412 204.348,148.894 194.648 C 165.712 182.549,163.892 183.424,169.824 184.583 C 175.129 185.620,177.224 184.881,181.840 180.346 C 186.760 175.511,189.081 171.948,191.859 164.966 C 194.100 159.332,194.787 158.491,202.330 152.138 C 204.132 150.621,206.839 148.262,208.347 146.897 C 217.321 138.767,218.527 140.019,212.232 150.929 C 207.412 159.283,206.557 160.791,202.556 168.000 C 201.336 170.200,199.811 173.055,199.168 174.345 C 198.526 175.634,197.033 178.428,195.852 180.552 C 193.590 184.617,187.289 197.299,185.436 201.517 C 184.390 203.897,182.454 208.139,179.581 214.345 C 170.427 234.114,169.798 243.018,177.298 246.648 C 182.224 249.033,189.595 244.380,218.069 220.916 C 219.586 219.665,221.830 217.831,223.056 216.838 C 224.281 215.846,226.702 213.845,228.435 212.392 C 230.168 210.939,232.540 208.953,233.706 207.978 C 237.075 205.162,240.838 201.905,242.391 200.461 C 243.179 199.729,244.629 198.487,245.615 197.703 C 248.949 195.049,251.408 192.973,253.363 191.163 C 254.434 190.172,256.241 188.632,257.379 187.740 C 258.517 186.849,260.441 185.158,261.655 183.982 C 262.869 182.806,264.607 181.259,265.517 180.543 C 266.428 179.827,268.228 178.222,269.517 176.976 C 270.807 175.730,272.421 174.293,273.103 173.782 C 273.786 173.270,275.959 171.289,277.931 169.379 C 289.108 158.556,289.469 158.444,295.205 164.029 C 298.060 166.808,299.119 167.321,303.061 167.834 C 306.191 168.242,307.034 168.690,307.034 169.947 C 307.034 170.527,303.311 178.032,301.733 180.635 C 300.653 182.415,298.437 186.447,295.185 192.552 C 294.174 194.448,292.888 196.717,292.327 197.594 C 291.766 198.471,290.612 200.582,289.762 202.284 C 288.912 203.986,287.628 206.372,286.908 207.586 C 280.155 218.973,279.145 221.786,281.012 224.004 C 283.381 226.820,287.012 225.254,289.537 220.327 C 290.252 218.933,291.673 216.366,292.695 214.621 C 293.717 212.876,295.655 209.365,297.001 206.819 C 298.347 204.273,300.241 200.860,301.210 199.233 C 302.179 197.607,303.399 195.363,303.921 194.248 C 304.443 193.132,305.439 191.270,306.135 190.110 C 306.830 188.949,308.928 185.170,310.798 181.712 C 312.668 178.253,314.559 174.898,315.000 174.257 C 315.441 173.616,316.440 171.898,317.219 170.440 C 318.938 167.222,319.234 166.895,322.226 164.910 C 328.006 161.075,329.686 158.216,329.078 153.245 C 328.663 149.852,328.852 148.958,330.420 146.897 C 332.418 144.267,332.861 144.666,334.317 150.408 C 335.772 156.142,336.851 157.868,339.429 158.580 C 342.866 159.529,345.020 156.896,346.790 149.579 C 348.300 143.337,349.452 140.966,350.976 140.966 C 352.616 140.966,355.077 146.034,355.998 151.310 C 356.263 152.828,356.708 155.047,356.986 156.242 C 357.392 157.979,357.460 159.039,357.327 161.520 L 357.160 164.624 358.253 165.796 C 360.531 168.238,364.364 167.227,365.480 163.890 C 366.207 161.713,365.519 152.011,364.435 149.159 C 364.283 148.760,363.891 147.280,363.564 145.871 C 362.558 141.535,360.476 137.811,357.263 134.602 C 352.327 129.671,349.438 129.306,344.614 133.003 C 342.270 134.800,341.467 134.812,339.867 133.077 C 338.272 131.347,338.358 129.908,340.360 124.788 C 344.338 114.613,342.283 108.049,335.344 108.766 C 332.930 109.015,326.923 112.474,324.690 114.902 C 324.310 115.314,323.069 116.371,321.931 117.250 C 320.793 118.130,317.193 121.539,313.931 124.826 C 310.669 128.113,307.255 131.382,306.345 132.091 C 305.435 132.799,303.697 134.286,302.483 135.395 C 301.269 136.503,299.214 138.011,297.915 138.747 C 292.673 141.715,288.845 145.230,286.841 148.916 C 285.547 151.295,282.819 154.291,279.172 157.337 C 277.883 158.414,275.338 160.760,273.517 162.551 C 266.628 169.326,265.398 168.954,265.088 160.000 C 264.986 157.041,264.743 153.525,264.550 152.187 C 263.880 147.565,264.824 145.788,269.379 143.099 C 270.593 142.382,272.796 141.081,274.274 140.208 C 281.296 136.061,288.144 128.727,292.501 120.690 C 296.789 112.780,298.022 108.354,297.880 101.387 C 297.708 92.955,294.435 89.264,285.012 86.876 C 283.241 86.427,281.421 85.939,280.966 85.792 C 280.510 85.644,278.966 85.273,277.535 84.968 C 272.530 83.901,272.454 83.071,276.810 77.104 C 278.078 75.366,280.016 72.420,281.116 70.558 C 282.216 68.696,283.804 66.055,284.646 64.690 C 290.873 54.586,292.315 48.467,289.055 45.980 C 287.739 44.977,286.229 44.813,284.727 45.511 M196.594 86.493 C 196.852 87.165,195.928 89.231,194.533 91.105 C 193.827 92.052,192.441 93.968,191.452 95.362 C 176.924 115.848,177.404 115.303,173.871 115.316 C 170.485 115.329,168.537 117.275,168.935 120.248 C 169.490 124.402,169.497 124.275,168.627 126.116 C 168.174 127.076,166.240 129.972,164.331 132.552 C 156.901 142.589,156.169 142.640,154.882 133.204 C 154.501 130.418,154.007 126.834,153.782 125.241 C 152.696 117.536,152.688 117.549,163.586 109.373 C 165.786 107.722,170.086 104.442,173.142 102.082 C 191.164 88.170,196.003 84.953,196.594 86.493 M272.883 93.118 C 274.354 93.491,277.029 94.042,278.826 94.344 C 289.788 96.184,291.596 99.100,288.065 109.241 C 284.129 120.544,278.816 127.645,270.654 132.512 C 262.829 137.179,262.933 137.274,261.374 124.000 C 261.125 121.876,260.750 118.959,260.542 117.517 C 260.145 114.764,259.540 109.070,259.001 103.027 C 258.622 98.767,258.624 98.762,261.368 95.798 C 264.963 91.915,266.611 91.531,272.883 93.118 M138.198 96.409 C 141.036 97.877,143.929 112.065,141.988 114.998 C 141.363 115.942,133.041 122.479,128.966 125.228 C 128.207 125.739,126.159 127.237,124.414 128.556 C 122.669 129.874,120.248 131.617,119.034 132.429 C 117.821 133.240,115.710 134.791,114.343 135.876 C 112.977 136.961,110.990 138.407,109.929 139.089 C 108.868 139.771,106.364 141.496,104.364 142.923 C 95.083 149.545,87.732 153.511,85.692 152.999 C 84.103 152.600,84.127 151.810,85.975 143.862 C 86.646 140.979,87.494 137.255,87.860 135.586 C 88.227 133.917,89.209 129.821,90.043 126.483 C 90.876 123.145,91.819 119.048,92.137 117.379 C 92.456 115.710,92.950 113.352,93.237 112.138 C 93.523 110.924,94.071 108.379,94.454 106.483 C 95.850 99.579,97.180 97.178,99.233 97.857 C 100.383 98.238,101.002 99.377,102.748 104.324 C 107.152 116.804,112.554 121.220,119.381 117.917 C 121.296 116.991,126.548 111.832,127.940 109.510 C 128.845 108.000,131.841 102.886,134.047 99.085 C 135.621 96.373,136.737 95.654,138.198 96.409 M250.481 110.409 C 251.109 111.441,251.440 112.976,251.865 116.828 C 252.315 120.910,252.888 125.763,253.379 129.655 C 254.643 139.667,255.419 146.595,255.720 150.538 C 255.862 152.389,256.182 154.996,256.433 156.331 C 257.050 159.615,256.848 165.861,256.029 168.828 C 255.338 171.330,255.305 172.801,255.894 174.826 C 256.518 176.975,256.164 177.989,254.126 179.887 C 251.733 182.115,240.685 191.610,236.875 194.712 C 235.536 195.802,233.239 197.745,231.772 199.028 C 229.095 201.370,216.118 212.126,211.296 216.000 C 209.879 217.138,207.969 218.695,207.050 219.460 C 206.131 220.226,204.386 221.580,203.172 222.470 C 201.959 223.359,200.034 224.858,198.897 225.799 C 196.160 228.062,187.543 234.338,185.796 235.340 C 179.710 238.831,180.729 232.412,189.173 214.069 C 190.674 210.807,192.184 207.431,192.529 206.567 C 193.425 204.320,206.126 179.101,207.854 176.138 C 209.671 173.023,212.401 168.067,214.082 164.828 C 214.791 163.462,216.368 160.723,217.586 158.741 C 218.805 156.758,220.142 154.462,220.559 153.637 C 221.440 151.897,226.529 143.309,229.294 138.897 C 230.340 137.228,232.908 133.007,235.001 129.517 C 237.094 126.028,239.650 121.869,240.682 120.276 C 241.714 118.683,243.317 116.200,244.244 114.759 C 247.532 109.650,249.279 108.432,250.481 110.409 M82.643 115.622 C 83.072 116.316,82.737 119.405,81.816 123.247 C 80.505 128.721,79.579 132.817,78.495 137.931 C 77.997 140.283,77.205 143.448,76.737 144.966 C 76.268 146.483,75.638 148.779,75.335 150.069 C 73.530 157.760,72.483 159.068,67.133 160.314 C 65.789 160.627,63.448 161.198,61.931 161.583 C 51.428 164.248,49.791 163.639,51.310 157.630 C 52.859 151.506,61.823 137.230,70.869 126.483 C 79.799 115.872,81.709 114.111,82.643 115.622 M331.182 122.514 C 331.588 123.793,329.968 128.041,326.300 135.310 C 322.008 143.817,320.627 145.314,320.003 142.138 C 319.511 139.632,319.058 138.472,317.833 136.578 C 316.127 133.942,316.248 133.636,320.785 129.099 C 326.436 123.445,330.634 120.787,331.182 122.514 M175.506 135.582 C 175.883 135.958,176.972 137.561,177.927 139.143 C 179.127 141.133,180.613 143.038,182.749 145.322 C 189.717 152.772,189.438 153.280,169.931 168.696 C 165.099 172.514,164.685 172.716,161.192 172.969 C 157.050 173.269,155.063 174.658,155.022 177.283 C 154.986 179.612,154.274 180.535,150.027 183.750 C 141.393 190.286,137.571 191.695,138.361 188.053 C 138.717 186.412,144.012 176.529,145.914 173.956 C 146.485 173.184,147.367 171.807,147.874 170.897 C 148.381 169.986,149.624 168.000,150.636 166.483 C 155.331 159.448,157.945 155.622,159.017 154.217 C 159.659 153.377,160.848 151.697,161.660 150.483 C 164.131 146.793,170.821 137.657,172.095 136.234 C 173.494 134.671,174.419 134.494,175.506 135.582 M307.506 145.520 C 307.888 145.787,308.207 146.452,308.400 147.383 C 309.165 151.065,311.628 152.322,315.001 150.752 C 317.950 149.379,317.804 152.546,314.721 156.839 C 310.901 162.159,297.379 159.579,297.379 153.530 C 297.379 149.851,305.039 143.792,307.506 145.520 " stroke="none" fill="#1a1a1a" fill-rule="evenodd"></path></g></svg>