<svg id="svg" version="1.1" xmlns="http://www.w3.org/2000/svg" xmlns:xlink="http://www.w3.org/1999/xlink" width="400" height="266.6666666666667" viewBox="0, 0, 400,266.6666666666667"><g id="svgg"><path id="path0" d="M89.672 18.270 C 85.474 20.394,84.412 24.531,79.846 56.533 C 75.832 84.675,74.851 89.062,71.883 92.159 C 69.264 94.893,67.068 93.418,62.640 85.950 C 52.763 69.293,48.026 59.268,43.324 45.067 C 38.825 31.476,34.711 26.469,30.839 29.869 C 29.401 31.131,28.962 32.610,26.965 42.933 C 17.418 92.293,16.653 106.306,23.480 106.866 C 26.778 107.137,27.328 105.877,27.350 98.000 C 27.365 92.623,27.457 91.324,28.096 87.467 C 28.496 85.047,29.533 78.747,30.400 73.467 C 34.081 51.048,35.050 49.951,40.400 62.144 C 44.743 72.044,52.291 85.859,57.879 94.133 C 68.592 109.997,78.701 106.487,83.988 85.067 C 85.590 78.576,85.859 76.860,89.856 47.596 C 91.426 36.096,92.826 29.026,94.276 25.271 C 96.506 19.499,94.193 15.983,89.672 18.270 M214.667 18.166 C 211.955 19.244,210.904 24.223,211.745 32.000 C 211.968 34.056,212.137 42.888,212.258 58.800 C 212.368 73.209,212.561 83.843,212.749 85.867 C 212.919 87.700,213.174 90.884,213.315 92.942 C 213.925 101.836,217.451 106.013,222.064 103.310 C 224.588 101.831,225.599 99.458,228.287 88.698 C 234.002 65.826,237.450 57.227,240.479 58.293 C 243.851 59.479,246.001 74.723,244.771 88.717 C 243.720 100.668,244.413 105.045,247.490 105.873 C 250.611 106.713,252.053 104.339,252.514 97.600 C 252.660 95.473,252.915 92.233,253.082 90.400 C 253.601 84.698,253.278 68.866,252.562 64.933 C 249.871 50.138,246.091 43.106,240.834 43.113 C 236.269 43.120,232.857 47.372,228.311 58.719 C 224.656 67.843,222.917 70.298,221.891 67.781 C 221.146 65.953,221.015 63.660,220.788 48.533 C 220.657 39.807,220.434 31.707,220.294 30.533 C 220.153 29.360,220.029 27.255,220.019 25.856 C 219.975 20.004,217.823 16.911,214.667 18.166 M175.555 45.633 C 174.467 45.939,173.449 47.162,172.476 49.333 C 171.155 52.282,170.120 53.001,166.173 53.713 C 162.394 54.394,160.520 56.038,160.895 58.346 C 161.217 60.332,162.500 61.115,167.581 62.424 C 171.245 63.368,171.474 64.235,171.729 78.133 C 171.980 91.819,172.461 94.387,175.747 99.590 C 179.597 105.686,184.445 107.080,192.464 104.397 C 199.579 102.016,202.400 99.949,202.400 97.116 C 202.400 93.780,199.119 93.037,193.185 95.027 C 182.505 98.609,179.814 94.410,180.046 74.525 C 180.169 64.028,180.550 63.398,187.065 62.911 C 192.697 62.491,194.739 61.353,194.739 58.637 C 194.739 56.204,192.478 54.841,187.734 54.413 C 183.419 54.025,180.850 52.357,180.806 49.917 C 180.763 47.461,177.760 45.011,175.555 45.633 M268.029 48.639 C 265.801 49.874,266.629 53.067,269.177 53.067 C 270.951 53.067,272.003 51.626,271.452 49.955 C 270.978 48.521,269.363 47.900,268.029 48.639 M363.306 52.776 C 357.092 55.050,345.624 61.655,342.148 64.963 C 334.208 72.519,334.197 79.175,342.112 87.531 C 348.585 94.364,353.927 95.879,361.134 92.927 C 365.756 91.034,367.189 94.055,366.315 103.847 C 366.078 106.498,365.823 110.293,365.747 112.282 C 365.081 129.735,360.027 138.559,349.091 141.360 C 345.449 142.293,342.218 142.001,334.115 140.004 C 327.967 138.488,325.474 138.587,324.045 140.404 C 318.558 147.379,345.140 153.789,356.000 148.109 C 367.994 141.836,373.331 131.922,374.147 114.400 C 374.287 111.393,374.521 107.913,374.667 106.667 C 375.008 103.746,374.990 95.117,374.637 92.533 C 374.486 91.433,374.276 83.693,374.170 75.333 C 373.952 58.188,374.053 59.004,371.718 55.508 C 369.714 52.506,366.711 51.531,363.306 52.776 M118.000 54.232 C 108.777 57.236,101.006 64.113,99.469 70.631 C 97.668 78.269,105.403 94.396,112.591 97.992 C 119.558 101.478,132.795 99.399,140.473 93.613 C 147.609 88.236,150.205 83.301,150.228 75.067 C 150.259 63.848,145.565 58.868,134.133 57.994 C 128.983 57.600,128.489 57.458,125.752 55.584 C 122.704 53.497,121.111 53.219,118.000 54.232 M301.600 60.156 C 298.620 61.212,297.913 61.331,296.416 61.023 C 295.674 60.871,294.587 60.645,294.000 60.522 C 290.687 59.826,288.538 62.178,288.535 66.505 C 288.533 68.344,290.558 82.385,291.362 86.109 C 292.634 92.001,295.977 94.537,299.515 92.293 C 301.648 90.940,302.628 87.945,302.664 82.667 C 302.745 70.486,306.411 67.211,312.792 73.615 C 317.800 78.642,319.894 85.044,318.544 91.200 C 316.715 99.539,316.713 100.695,318.525 102.507 C 321.412 105.395,324.623 102.966,326.263 96.653 C 329.637 83.669,328.083 77.750,318.819 68.309 C 311.035 60.375,306.732 58.338,301.600 60.156 M267.320 63.842 C 264.775 64.950,264.399 66.381,264.404 74.933 C 264.413 89.547,266.521 95.633,271.057 94.137 C 273.785 93.236,274.329 90.710,273.300 83.717 C 272.901 81.001,272.685 77.849,272.567 73.019 C 272.382 65.415,272.381 65.413,270.403 64.067 C 269.408 63.389,268.509 63.324,267.320 63.842 M364.104 64.089 C 365.554 65.039,365.716 65.938,365.819 73.600 C 365.989 86.214,365.458 87.542,360.680 86.444 C 359.298 86.127,357.625 85.867,356.963 85.867 C 351.029 85.867,345.420 81.111,345.489 76.139 C 345.530 73.189,346.932 71.304,351.179 68.490 C 357.586 64.245,362.031 62.732,364.104 64.089 M135.566 66.706 C 139.907 67.577,141.467 69.853,141.467 75.314 C 141.467 79.304,141.099 80.791,139.527 83.159 C 135.407 89.366,121.237 93.163,115.810 89.515 C 111.022 86.297,106.825 74.617,109.057 70.720 C 110.234 68.664,111.005 68.388,115.342 68.474 C 118.470 68.536,119.694 68.434,122.809 67.849 C 124.857 67.464,127.373 66.992,128.400 66.799 C 130.778 66.352,133.622 66.315,135.566 66.706 M63.220 142.347 C 61.439 144.220,61.505 143.363,61.400 165.718 C 61.337 179.251,61.404 186.992,61.602 189.052 C 61.764 190.747,62.004 196.153,62.133 201.067 C 62.678 221.752,64.803 228.557,70.707 228.527 C 75.003 228.506,78.286 224.318,82.392 213.622 C 85.999 204.224,87.378 202.396,90.856 202.403 C 93.478 202.408,95.707 203.983,99.336 208.395 C 106.247 216.799,109.052 223.043,109.715 231.506 C 110.185 237.492,111.193 239.333,114.000 239.333 C 119.844 239.333,119.723 224.858,113.792 214.439 C 108.669 205.440,99.267 195.407,94.353 193.694 C 87.593 191.339,81.950 194.559,77.192 203.485 C 74.493 208.548,73.509 209.524,72.253 208.388 C 71.154 207.393,70.898 205.626,70.664 197.409 C 70.542 193.123,70.343 189.463,70.221 189.275 C 70.099 189.087,69.932 179.153,69.849 167.200 C 69.733 150.494,69.618 145.221,69.353 144.406 C 68.366 141.370,65.170 140.297,63.220 142.347 M271.179 147.006 C 268.678 148.692,268.691 148.634,266.142 168.667 C 265.713 172.040,264.939 177.920,264.423 181.733 C 263.907 185.547,263.364 189.867,263.217 191.333 C 263.070 192.800,262.813 195.240,262.648 196.756 C 261.572 206.582,262.779 213.294,265.765 214.102 C 269.356 215.073,270.915 211.798,270.929 203.257 C 270.937 198.000,272.314 186.145,275.612 162.933 C 277.027 152.976,277.194 149.991,276.421 148.435 C 275.435 146.449,272.994 145.783,271.179 147.006 M146.800 189.228 C 141.451 190.014,140.118 190.270,138.400 190.837 C 129.750 193.694,126.562 199.435,126.575 212.133 C 126.589 224.640,134.302 230.928,153.867 234.381 C 165.724 236.474,171.467 235.619,171.467 231.761 C 171.467 228.955,169.001 227.427,163.671 226.931 C 152.353 225.878,143.473 222.790,145.632 220.658 C 145.834 220.459,147.336 219.706,148.968 218.986 C 156.159 215.814,163.455 208.875,164.994 203.746 C 167.678 194.796,158.538 187.502,146.800 189.228 M222.741 191.962 C 215.106 193.906,211.070 199.244,210.102 208.681 C 208.223 226.989,217.102 239.206,231.842 238.594 C 243.287 238.119,251.348 234.370,250.121 230.091 C 249.327 227.321,247.049 226.883,241.245 228.383 C 230.047 231.279,223.682 230.073,220.770 224.505 C 218.923 220.971,220.027 218.737,224.852 216.249 C 240.558 208.149,238.797 187.875,222.741 191.962 M178.106 193.677 C 177.608 194.013,176.900 194.823,176.533 195.477 L 175.867 196.667 175.785 206.596 C 175.675 220.067,176.040 222.098,180.025 230.135 C 183.432 237.007,186.074 239.120,189.016 237.326 C 191.393 235.878,191.227 233.594,188.319 227.731 C 184.611 220.256,183.298 213.066,185.023 209.685 C 185.839 208.085,187.123 207.162,190.728 205.584 C 196.218 203.180,198.080 201.319,197.368 198.945 C 196.632 196.488,194.501 195.723,190.267 196.397 C 186.671 196.969,185.776 196.786,183.755 195.060 C 181.225 192.901,179.783 192.548,178.106 193.677 M152.290 198.163 C 159.750 199.763,154.005 208.916,144.267 210.945 C 136.830 212.495,135.561 211.918,135.787 207.089 C 136.028 201.906,138.491 199.319,144.155 198.296 C 146.751 197.827,150.442 197.767,152.290 198.163 M225.007 202.282 C 226.624 203.414,224.782 206.400,222.467 206.400 C 221.470 206.400,221.067 205.960,221.067 204.871 C 221.067 202.738,223.436 201.181,225.007 202.282 M269.455 241.188 C 268.571 242.072,268.551 243.673,269.413 244.483 C 271.822 246.746,275.418 243.644,273.087 241.313 C 272.050 240.276,270.423 240.220,269.455 241.188 " stroke="none" fill="#1d1d1d" fill-rule="evenodd"></path></g></svg>