<svg id="svg" version="1.1" xmlns="http://www.w3.org/2000/svg" xmlns:xlink="http://www.w3.org/1999/xlink" width="400" height="460.5042016806722" viewBox="0, 0, 400,460.5042016806722"><g id="svgg"><path id="path0" d="M176.542 29.616 C 165.206 31.859,144.447 58.826,137.602 80.200 C 137.321 81.080,136.572 82.835,135.939 84.100 C 135.306 85.365,134.510 87.615,134.169 89.100 C 133.828 90.585,133.198 92.970,132.769 94.400 C 132.339 95.830,131.743 98.350,131.444 100.000 C 131.145 101.650,130.531 104.890,130.081 107.200 C 129.309 111.166,128.445 116.392,127.552 122.504 C 126.870 127.176,127.312 169.806,128.065 172.000 C 128.478 173.204,128.772 176.186,128.952 181.000 C 129.516 196.089,129.963 202.674,130.593 205.200 C 130.998 206.826,131.450 211.771,131.799 218.400 C 132.158 225.238,132.578 229.781,132.983 231.200 C 133.358 232.518,133.779 236.608,134.032 241.400 C 134.265 245.800,134.712 250.390,135.027 251.600 C 135.341 252.810,135.861 254.752,136.181 255.916 C 136.501 257.080,136.887 260.265,137.039 262.995 C 137.447 270.347,136.862 271.266,132.501 270.120 C 126.923 268.653,116.405 273.205,103.800 282.541 C 102.260 283.682,99.927 285.332,98.615 286.208 C 89.229 292.475,82.454 302.741,81.026 312.856 C 80.705 315.135,80.119 317.810,79.725 318.800 C 78.683 321.420,78.670 337.788,79.707 341.463 C 80.090 342.818,80.684 345.409,81.028 347.221 C 81.877 351.697,84.152 357.210,87.623 363.200 C 91.712 370.256,92.289 371.125,94.385 373.388 C 95.410 374.495,96.910 376.321,97.719 377.447 C 104.252 386.538,119.435 395.715,130.107 397.023 C 132.798 397.353,135.300 397.715,135.666 397.827 C 138.306 398.639,153.148 395.044,158.751 392.235 C 159.768 391.725,162.220 390.717,164.200 389.995 C 166.180 389.273,169.420 387.661,171.400 386.413 C 173.380 385.166,179.013 381.997,183.917 379.372 C 196.327 372.731,197.998 371.317,197.999 367.462 C 198.002 361.220,191.109 360.328,183.400 365.571 C 181.860 366.619,178.350 368.649,175.600 370.082 C 172.850 371.516,167.810 374.142,164.400 375.919 C 151.842 382.461,144.562 384.806,136.849 384.791 C 117.730 384.756,101.875 370.667,93.466 346.240 L 91.800 341.400 91.800 330.200 C 91.800 319.660,91.852 318.859,92.679 316.600 C 93.162 315.280,93.939 312.762,94.404 311.004 C 96.647 302.534,103.054 296.061,116.600 288.582 C 118.140 287.731,120.733 286.169,122.363 285.110 C 124.073 283.999,126.526 282.835,128.163 282.359 C 129.723 281.905,132.070 281.188,133.378 280.766 C 138.278 279.187,138.535 279.418,141.017 287.611 C 143.296 295.134,146.176 299.654,149.782 301.365 C 153.785 303.264,157.600 300.601,157.600 295.907 C 157.600 294.151,157.268 293.355,154.427 288.294 C 153.589 286.800,152.935 284.853,152.571 282.770 C 152.262 281.000,151.743 278.525,151.418 277.270 C 151.093 276.014,150.556 272.543,150.224 269.556 C 149.893 266.569,149.343 263.061,149.001 261.762 C 148.659 260.463,148.112 255.511,147.785 250.757 C 147.292 243.590,147.018 241.608,146.180 239.157 C 145.306 236.603,145.115 235.081,144.775 228.000 C 144.549 223.283,144.049 218.016,143.598 215.600 C 143.042 212.618,142.698 208.152,142.414 200.200 C 142.131 192.298,141.824 188.293,141.372 186.600 C 139.087 178.047,139.102 126.029,141.393 114.200 C 141.904 111.560,142.445 108.320,142.594 107.000 C 142.953 103.837,145.024 95.664,146.070 93.285 C 146.526 92.248,147.396 89.780,148.003 87.800 C 151.789 75.459,165.071 52.011,171.445 46.414 C 179.720 39.149,187.150 39.505,203.145 47.935 C 216.355 54.897,222.878 60.795,230.198 72.397 C 235.184 80.299,241.424 98.038,243.356 109.806 C 243.681 111.783,244.218 114.570,244.550 116.000 C 244.881 117.430,245.348 120.130,245.588 122.000 C 245.827 123.870,246.459 127.290,246.991 129.600 C 247.524 131.910,248.231 136.860,248.563 140.600 C 248.894 144.340,249.443 148.284,249.782 149.364 C 250.122 150.444,250.401 152.514,250.402 153.964 C 250.404 155.414,250.674 158.384,251.002 160.565 C 251.331 162.746,251.606 166.436,251.614 168.765 C 251.622 171.190,251.896 174.111,252.256 175.600 C 253.151 179.309,253.604 195.988,253.928 237.200 C 254.223 274.758,254.104 273.003,256.525 275.534 C 261.097 280.317,266.370 277.483,269.186 268.730 C 270.654 264.169,273.006 262.533,279.400 261.628 C 280.940 261.410,283.517 260.954,285.126 260.616 C 287.040 260.213,290.222 259.999,294.326 259.998 C 297.843 259.996,302.343 259.733,304.565 259.398 C 312.992 258.128,328.626 259.048,332.481 261.042 C 346.993 268.546,362.199 322.795,355.791 344.200 C 349.897 363.885,340.865 373.149,323.056 377.776 C 312.322 380.564,283.005 374.662,276.076 368.318 C 272.274 364.837,268.604 365.234,266.656 369.338 C 264.023 374.888,269.241 380.607,280.264 384.251 C 316.728 396.308,337.531 392.322,356.721 369.600 C 366.552 357.959,372.206 336.809,369.618 321.350 C 369.365 319.837,368.814 316.440,368.394 313.800 C 367.975 311.160,367.364 308.100,367.036 307.000 C 366.709 305.900,366.162 303.290,365.822 301.200 C 364.942 295.811,361.304 284.931,357.198 275.411 C 352.666 264.903,342.378 251.509,337.064 249.200 C 332.532 247.231,309.272 246.197,300.719 247.585 C 299.334 247.810,295.590 247.995,292.400 247.996 C 286.573 247.998,279.124 248.700,272.800 249.844 C 265.795 251.110,266.249 252.865,265.966 223.400 C 265.800 206.034,265.592 198.539,265.247 197.400 C 264.937 196.378,264.632 190.381,264.401 180.800 C 264.007 164.449,263.825 161.321,263.004 156.800 C 262.704 155.150,262.345 151.910,262.206 149.600 C 261.871 144.060,260.965 137.293,260.211 134.692 C 259.877 133.541,259.336 129.792,259.008 126.361 C 258.680 122.929,258.054 118.963,257.617 117.548 C 257.180 116.133,256.640 113.631,256.418 111.988 C 254.706 99.315,248.754 80.867,242.732 69.564 C 234.123 53.407,207.701 32.439,192.648 29.818 C 188.862 29.159,179.447 29.041,176.542 29.616 " stroke="none" fill="#141414" fill-rule="evenodd"></path></g></svg>