<svg id="svg" version="1.1" xmlns="http://www.w3.org/2000/svg" xmlns:xlink="http://www.w3.org/1999/xlink" width="400" height="210.68139963167587" viewBox="0, 0, 400,210.68139963167587"><g id="svgg"><path id="path0" d="M250.474 56.869 C 247.986 58.392,247.521 60.136,249.095 62.033 C 249.561 62.594,250.045 63.448,250.169 63.929 C 250.294 64.411,250.548 65.327,250.734 65.964 C 250.919 66.602,251.142 68.261,251.229 69.652 C 251.317 71.043,251.538 72.700,251.721 73.334 C 252.219 75.054,252.216 92.040,251.718 93.897 C 251.532 94.588,251.252 95.674,251.096 96.312 C 249.180 104.122,242.796 114.429,238.604 116.482 C 235.219 118.138,229.592 117.111,228.108 114.565 C 227.695 113.857,227.143 112.993,226.881 112.645 C 226.619 112.297,226.188 111.586,225.923 111.064 C 225.659 110.543,224.988 109.425,224.433 108.582 C 223.877 107.738,223.214 106.410,222.958 105.631 C 222.702 104.852,222.318 103.868,222.105 103.444 C 221.366 101.970,218.956 94.419,218.773 92.999 C 218.671 92.213,218.484 91.303,218.356 90.977 C 218.229 90.652,218.069 89.703,218.002 88.870 C 217.934 88.037,217.776 87.071,217.651 86.723 C 217.526 86.375,217.356 84.336,217.274 82.192 C 217.167 79.422,217.025 78.026,216.781 77.371 C 216.510 76.641,216.438 75.628,216.437 72.524 C 216.436 67.346,216.076 66.388,213.410 64.457 C 210.766 62.542,207.663 65.765,208.624 69.429 C 208.990 70.828,209.062 71.728,209.062 74.927 C 209.062 77.862,209.141 78.994,209.399 79.787 C 209.627 80.487,209.765 81.879,209.824 84.089 C 209.872 85.885,210.048 88.019,210.215 88.830 C 210.382 89.642,210.605 90.969,210.711 91.781 C 211.675 99.156,215.859 109.620,220.804 117.019 C 223.449 120.977,224.755 122.279,227.356 123.551 L 229.189 124.447 234.141 124.447 L 239.094 124.447 240.885 123.611 C 248.153 120.219,257.675 105.474,259.239 95.190 C 259.581 92.941,259.399 71.311,259.032 70.495 C 258.875 70.148,258.676 68.678,258.590 67.229 C 258.503 65.780,258.284 64.073,258.103 63.435 C 257.921 62.798,257.661 61.850,257.524 61.330 C 257.247 60.272,254.320 57.112,253.235 56.699 C 252.358 56.366,251.177 56.439,250.474 56.869 M121.254 68.487 C 119.197 70.000,118.320 74.039,119.385 77.088 C 119.576 77.635,119.818 79.125,119.922 80.400 C 120.027 81.675,120.258 83.237,120.435 83.871 C 120.613 84.505,120.759 85.465,120.759 86.005 C 120.759 86.544,120.923 87.401,121.124 87.908 C 121.663 89.270,121.681 103.450,121.146 105.058 C 120.953 105.638,120.739 106.591,120.670 107.176 C 120.535 108.321,118.858 113.618,118.241 114.848 C 118.035 115.259,117.697 116.117,117.491 116.754 C 117.048 118.122,113.630 125.000,112.924 125.945 C 109.667 130.300,108.989 130.819,106.282 131.036 C 99.470 131.583,93.420 125.392,91.295 115.701 C 89.864 109.172,89.982 110.622,89.986 99.670 C 89.989 90.360,90.019 89.533,90.406 88.078 C 91.435 84.210,90.953 78.047,89.505 76.536 C 86.427 73.328,83.470 75.940,83.461 81.876 C 83.457 84.396,83.371 85.337,83.035 86.512 C 82.636 87.907,82.613 88.618,82.613 99.789 C 82.613 110.961,82.636 111.671,83.035 113.066 C 83.267 113.877,83.456 114.981,83.456 115.520 C 83.456 116.665,84.512 121.007,85.037 122.023 C 85.236 122.409,85.565 123.207,85.769 123.797 C 86.648 126.354,93.277 133.959,96.621 136.249 C 99.950 138.528,105.819 139.612,109.033 138.542 C 114.230 136.811,120.710 129.377,123.707 121.707 C 124.069 120.780,124.645 119.380,124.986 118.597 C 125.327 117.813,125.606 117.070,125.606 116.946 C 125.606 116.822,125.903 116.043,126.266 115.216 C 126.629 114.389,127.340 112.049,127.846 110.017 L 128.767 106.322 128.767 96.378 C 128.767 89.730,128.691 86.238,128.538 85.841 C 128.412 85.515,128.227 84.394,128.127 83.351 C 128.026 82.308,127.797 81.039,127.618 80.532 C 127.439 80.025,127.292 79.121,127.292 78.523 C 127.292 77.925,127.146 76.918,126.967 76.284 C 126.788 75.650,126.569 74.168,126.481 72.991 C 126.180 68.992,123.596 66.766,121.254 68.487 M292.624 88.471 C 291.579 89.128,290.451 90.538,290.197 91.504 C 289.563 93.914,288.742 97.198,288.494 98.314 C 288.392 98.778,288.173 99.679,288.008 100.316 C 286.130 107.586,285.142 111.709,285.142 112.276 C 285.142 112.574,285.007 113.301,284.841 113.891 C 284.675 114.481,284.286 115.959,283.976 117.176 C 283.666 118.393,283.090 120.432,282.695 121.707 C 282.300 122.982,281.979 124.168,281.982 124.341 C 281.984 124.515,281.618 125.843,281.167 127.292 C 279.190 133.653,279.191 134.458,281.171 136.239 C 283.237 138.096,285.304 137.275,286.985 133.930 C 287.503 132.900,289.357 127.259,289.357 126.714 C 289.357 126.498,289.689 125.335,290.095 124.131 C 290.501 122.926,290.833 121.698,290.834 121.402 C 290.834 121.106,291.175 119.536,291.591 117.914 C 292.006 116.291,292.466 114.442,292.612 113.804 C 292.759 113.166,292.979 112.266,293.101 111.802 C 294.204 107.634,295.657 101.583,295.809 100.527 C 295.884 100.005,296.265 98.318,296.656 96.777 C 297.576 93.147,297.598 91.703,296.756 90.374 C 295.552 88.476,293.856 87.695,292.624 88.471 M311.327 89.283 C 309.238 90.313,307.045 94.218,306.315 98.209 C 306.241 98.614,305.680 100.558,305.068 102.529 C 303.934 106.183,302.737 110.287,302.363 111.802 C 302.248 112.266,301.844 113.641,301.465 114.858 C 301.086 116.075,300.713 117.403,300.636 117.808 C 300.560 118.214,300.179 119.542,299.789 120.759 C 299.400 121.976,299.020 123.303,298.946 123.709 C 298.872 124.115,298.501 125.443,298.120 126.660 C 296.091 133.155,296.303 134.744,299.407 136.330 C 300.832 137.058,304.295 134.314,304.643 132.182 C 304.713 131.753,305.085 130.358,305.469 129.083 C 305.853 127.808,306.307 126.196,306.478 125.501 C 306.650 124.805,307.049 123.383,307.365 122.339 C 307.682 121.296,308.304 119.210,308.747 117.703 C 309.509 115.110,309.842 113.938,310.869 110.221 C 311.109 109.352,311.625 107.597,312.016 106.322 C 312.407 105.047,312.795 103.625,312.877 103.161 C 312.960 102.698,313.677 100.377,314.470 98.004 C 316.298 92.531,316.311 92.067,314.675 90.341 C 313.345 88.937,312.543 88.684,311.327 89.283 M40.921 103.476 C 39.726 104.341,39.054 105.457,38.887 106.849 C 38.811 107.487,38.622 108.435,38.466 108.957 C 38.310 109.478,38.124 110.616,38.053 111.486 C 37.981 112.355,37.791 113.541,37.631 114.120 C 36.777 117.202,36.459 118.466,36.459 118.782 C 36.459 119.310,32.892 129.995,32.352 131.085 C 31.861 132.077,29.421 139.342,29.190 140.499 C 28.840 142.257,31.059 145.416,32.643 145.416 C 34.092 145.416,35.952 143.692,36.582 141.764 C 36.778 141.165,37.109 140.335,37.317 139.921 C 37.525 139.507,38.215 137.610,38.850 135.706 C 39.486 133.802,40.254 131.688,40.559 131.008 C 40.863 130.328,41.237 129.238,41.390 128.585 C 41.543 127.932,42.337 125.311,43.155 122.761 C 44.965 117.119,45.049 116.792,45.406 114.015 C 45.562 112.798,45.795 111.535,45.922 111.209 C 46.411 109.958,46.215 106.043,45.613 105.015 C 44.386 102.921,42.528 102.312,40.921 103.476 M63.330 104.717 C 61.570 105.819,60.195 108.019,59.958 110.116 C 59.879 110.811,59.682 111.855,59.520 112.434 C 59.158 113.725,58.643 115.804,58.267 117.492 C 57.962 118.862,55.457 126.242,55.024 127.049 C 54.878 127.320,54.161 129.264,53.432 131.369 C 52.702 133.473,51.747 136.096,51.309 137.197 C 49.879 140.787,50.111 142.308,52.340 143.947 C 54.193 145.310,57.449 143.294,58.477 140.148 C 58.685 139.510,59.000 138.704,59.176 138.356 C 59.717 137.291,66.292 117.405,66.772 115.385 C 67.020 114.341,67.311 112.919,67.419 112.223 C 67.527 111.528,67.718 110.692,67.843 110.366 C 69.030 107.284,65.762 103.196,63.330 104.717 M153.952 111.241 C 151.232 112.899,151.037 114.859,153.107 119.705 C 153.478 120.574,153.948 121.740,154.151 122.295 C 155.524 126.053,162.365 133.283,165.974 134.791 C 166.730 135.107,171.081 135.215,172.402 134.951 C 172.901 134.851,173.770 134.168,175.477 132.533 C 178.613 129.530,178.400 129.559,181.770 131.680 C 184.771 133.568,190.395 134.109,193.205 132.779 C 194.956 131.951,196.327 130.528,197.476 128.346 L 198.419 126.554 198.486 121.565 C 198.560 115.961,198.551 115.918,197.025 114.437 C 195.367 112.828,194.131 112.913,192.437 114.750 C 191.323 115.959,191.151 116.718,191.150 120.429 C 191.147 127.611,187.388 128.064,180.798 121.675 C 177.069 118.060,176.135 117.965,173.307 120.908 C 172.165 122.097,171.767 122.978,171.756 124.341 C 171.702 131.274,163.252 126.220,160.482 117.597 C 158.920 112.733,156.063 109.953,153.952 111.241 " stroke="none" fill="#090909" fill-rule="evenodd"></path></g></svg>