<svg id="svg" version="1.1" xmlns="http://www.w3.org/2000/svg" xmlns:xlink="http://www.w3.org/1999/xlink" width="400" height="397.3333333333333" viewBox="0, 0, 400,397.3333333333333"><g id="svgg"><path id="path0" d="M144.516 33.722 C 140.910 35.982,141.397 34.426,130.389 78.844 C 126.136 96.003,123.415 102.982,120.978 102.982 C 119.252 102.982,118.427 101.492,114.486 91.264 C 110.237 80.235,109.295 78.262,107.794 77.252 C 104.244 74.862,101.501 76.886,97.190 85.078 C 95.864 87.599,93.282 92.346,91.453 95.626 C 89.624 98.907,87.351 103.013,86.403 104.752 C 82.780 111.399,81.308 111.414,79.181 104.825 C 77.896 100.846,73.854 87.829,70.706 77.535 C 66.203 62.811,65.509 61.005,63.394 58.492 C 61.085 55.748,58.671 55.364,56.620 57.416 C 54.481 59.554,54.661 60.954,58.658 73.260 C 60.523 79.001,62.595 85.666,63.263 88.072 C 63.932 90.477,64.986 94.056,65.607 96.024 C 66.776 99.733,68.952 106.893,73.157 120.875 C 78.611 139.005,79.636 141.372,82.571 142.598 C 86.745 144.342,89.422 140.608,88.115 134.864 C 86.772 128.960,87.862 125.119,95.126 110.139 C 102.679 94.562,104.269 93.909,108.567 104.618 C 113.058 115.809,117.869 119.689,123.857 116.948 C 130.141 114.073,134.058 105.496,140.589 80.318 C 146.219 58.612,150.696 39.762,150.696 37.762 C 150.696 34.144,147.341 31.951,144.516 33.722 M256.064 44.340 C 249.163 45.882,223.303 52.796,219.682 54.068 C 218.370 54.529,215.708 55.354,213.767 55.902 C 202.967 58.953,200.557 61.978,199.375 73.967 C 198.850 79.292,203.795 113.745,206.597 124.280 C 207.169 126.430,209.157 136.432,211.762 150.262 C 213.471 159.335,215.866 162.434,219.733 160.575 C 222.950 159.028,223.272 156.412,221.445 146.663 C 218.473 130.799,216.947 123.156,214.490 111.828 C 212.499 102.654,212.942 102.032,222.492 100.582 C 240.417 97.860,247.921 94.305,245.662 89.607 C 244.022 86.196,241.035 86.002,230.417 88.613 C 212.896 92.922,210.930 92.374,209.906 82.891 C 208.681 71.555,208.923 69.727,211.862 68.079 C 214.908 66.371,227.328 62.109,233.526 60.644 C 235.852 60.095,239.421 59.111,241.457 58.459 C 243.493 57.807,246.852 56.922,248.922 56.493 C 267.905 52.558,271.804 50.641,269.727 46.264 C 268.304 43.266,263.745 42.624,256.064 44.340 M185.487 44.799 C 184.187 45.341,181.863 45.505,172.763 45.700 C 159.291 45.988,157.058 46.699,157.058 50.696 C 157.058 54.384,159.435 55.373,168.986 55.658 C 178.443 55.941,179.213 56.263,178.987 59.841 C 178.884 61.484,176.756 68.284,175.069 72.366 C 174.301 74.225,172.098 80.330,170.173 85.934 C 168.248 91.537,166.380 96.689,166.022 97.381 C 165.663 98.074,164.776 100.289,164.050 102.303 C 161.346 109.806,159.152 115.544,158.525 116.754 C 158.170 117.439,156.979 120.191,155.878 122.869 C 154.777 125.548,152.628 129.921,151.103 132.588 C 145.928 141.636,145.593 142.934,147.771 145.523 C 149.832 147.972,153.630 147.108,155.946 143.663 C 160.531 136.845,166.893 124.060,170.367 114.684 C 171.820 110.763,174.062 104.871,175.351 101.590 C 176.639 98.310,178.788 92.495,180.126 88.668 C 181.463 84.841,183.637 78.668,184.956 74.950 C 186.276 71.233,187.934 66.402,188.643 64.215 C 191.226 56.239,192.852 55.088,202.187 54.635 C 208.703 54.318,211.157 53.094,211.764 49.858 C 212.552 45.659,210.725 44.735,201.590 44.716 C 197.545 44.707,192.624 44.573,190.656 44.418 C 187.752 44.189,186.778 44.261,185.487 44.799 M296.272 52.876 C 293.118 53.638,291.874 56.886,293.735 59.499 C 295.118 61.441,297.846 62.334,306.470 63.668 C 322.700 66.177,325.340 68.377,325.581 79.585 C 325.881 93.540,320.303 103.307,309.412 107.900 C 297.166 113.065,295.265 116.977,289.847 148.158 C 288.996 153.053,290.482 156.046,293.765 156.046 C 297.540 156.046,299.241 153.012,301.000 143.141 C 304.394 124.082,305.995 120.702,313.272 117.231 C 327.899 110.255,335.180 98.586,335.504 81.600 C 335.768 67.736,332.259 61.138,322.369 56.904 C 317.125 54.659,299.900 52.001,296.272 52.876 M293.875 166.288 C 290.145 168.282,290.199 174.847,293.961 176.685 C 298.985 179.139,302.663 170.829,298.301 166.881 C 297.265 165.943,295.071 165.649,293.875 166.288 M169.185 217.560 C 164.257 220.279,154.615 242.114,151.506 257.593 C 147.294 278.570,147.483 293.603,152.091 304.023 C 155.609 311.978,164.837 321.677,171.414 324.334 C 179.536 327.614,198.156 329.404,207.753 327.828 C 209.722 327.504,212.336 327.239,213.564 327.238 C 214.792 327.237,216.760 327.054,217.938 326.830 C 219.116 326.606,222.674 326.157,225.845 325.832 C 229.016 325.507,235.815 324.624,240.954 323.871 C 246.093 323.117,252.356 322.219,254.871 321.875 C 257.386 321.531,263.559 320.525,268.588 319.638 C 279.591 317.699,281.878 317.768,281.902 320.039 C 281.906 320.344,279.538 322.846,276.640 325.599 C 258.812 342.533,255.007 348.088,258.641 351.881 C 261.406 354.767,264.643 353.398,268.497 347.714 C 271.038 343.966,276.024 338.707,281.680 333.810 C 293.079 323.941,298.916 317.276,300.056 312.827 C 301.788 306.063,298.653 301.369,289.169 296.525 C 274.014 288.785,261.678 287.797,261.639 294.321 C 261.620 297.429,263.551 298.506,274.989 301.775 C 284.906 304.610,282.619 307.303,268.588 309.313 C 265.527 309.752,261.322 310.460,259.245 310.888 C 257.167 311.316,251.441 312.221,246.521 312.900 C 241.600 313.579,234.354 314.596,230.417 315.162 C 220.912 316.526,218.355 316.813,211.531 317.277 C 208.360 317.493,204.209 317.878,202.307 318.133 C 195.721 319.015,181.058 317.136,174.038 314.509 C 164.991 311.125,158.908 298.608,158.869 283.300 C 158.821 264.349,161.945 251.725,171.608 231.819 C 174.102 226.681,176.143 222.063,176.143 221.557 C 176.143 218.256,172.116 215.943,169.185 217.560 " stroke="none" fill="#1c1c1c" fill-rule="evenodd"></path></g></svg>